<?xml version="1.0" encoding="UTF-8" standalone="no"?>
<svg
   xmlns:dc="http://purl.org/dc/elements/1.1/"
   xmlns:cc="http://creativecommons.org/ns#"
   xmlns:rdf="http://www.w3.org/1999/02/22-rdf-syntax-ns#"
   xmlns:svg="http://www.w3.org/2000/svg"
   xmlns="http://www.w3.org/2000/svg"
   xmlns:sodipodi="http://sodipodi.sourceforge.net/DTD/sodipodi-0.dtd"
   xmlns:inkscape="http://www.inkscape.org/namespaces/inkscape"
   width="256px"
   height="256px"
   viewBox="0 0 256 256"
   version="0 0 256 "
   inkscape:version="1.0.2 (e86c870879, 2021-01-15)"
   sodipodi:docname="youtube.svg">
  <metadata
     id="metadata294">
    <rdf:RDF>
      <cc:Work
         rdf:about="">
        <dc:format>image/svg+xml</dc:format>
        <dc:type
           rdf:resource="http://purl.org/dc/dcmitype/StillImage" />
      </cc:Work>
    </rdf:RDF>
  </metadata>
  <defs
     id="defs292" />
  <sodipodi:namedview
     pagecolor="#ffffff"
     bordercolor="#666666"
     borderopacity="1"
     objecttolerance="10"
     gridtolerance="10"
     guidetolerance="10"
     inkscape:pageopacity="0"
     inkscape:pageshadow="2"
     inkscape:window-width="2560"
     inkscape:window-height="1016"
     id="namedview290"
     showgrid="false"
     inkscape:zoom="1.6283098"
     inkscape:cx="-0.37606161"
     inkscape:cy="64.874299"
     inkscape:window-x="1920"
     inkscape:window-y="34"
     inkscape:window-maximized="1"
     inkscape:current-layer="g286" />
  <g
     id="g286">
    <path
       id="path282"
       d="m 128.60284,34.930974 c 0,0 -79.956554,0.16411 -99.822272,5.58203 -11.042637,2.9881 -19.6681518,11.61362 -22.6562498,22.65625 -6.00896925,35.29859 -8.3404349,89.084056 0.1640625,122.970696 2.988098,11.04264 11.6136133,19.66816 22.6562503,22.65625 19.865718,5.41793 99.822269,5.41797 99.822269,5.41797 0,0 79.9546,-4e-5 99.82032,-5.41797 11.04263,-2.98809 19.66815,-11.61361 22.65625,-22.65625 6.33732,-35.34784 8.29118,-89.100346 -0.16407,-123.134756 -2.98809,-11.04264 -11.61361,-19.66815 -22.65625,-22.65625 -19.86571,-5.41792 -99.82031,-5.41797 -99.82031,-5.41797 z m -25.44922,51.22461 66.33008,38.417966 -66.33008,38.41797 z" />
  </g>
</svg>
