<?xml version="1.0" encoding="UTF-8" standalone="no"?>
<svg
   xmlns:dc="http://purl.org/dc/elements/1.1/"
   xmlns:cc="http://creativecommons.org/ns#"
   xmlns:rdf="http://www.w3.org/1999/02/22-rdf-syntax-ns#"
   xmlns:svg="http://www.w3.org/2000/svg"
   xmlns="http://www.w3.org/2000/svg"
   xmlns:sodipodi="http://sodipodi.sourceforge.net/DTD/sodipodi-0.dtd"
   xmlns:inkscape="http://www.inkscape.org/namespaces/inkscape"
   width="256px"
   height="256px"
   viewBox="0 0 256 256"
   version="1.1"
   inkscape:version="1.0.2 (e86c870879, 2021-01-15)"
   sodipodi:docname="reddit.svg"
   id="svg849">
  <metadata
     id="metadata851">
    <rdf:RDF>
      <cc:Work
         rdf:about="">
        <dc:format>image/svg+xml</dc:format>
        <dc:type
           rdf:resource="http://purl.org/dc/dcmitype/StillImage" />
      </cc:Work>
    </rdf:RDF>
  </metadata>
  <defs
     id="defs2" />
  <sodipodi:namedview
     inkscape:zoom="0.7"
     inkscape:cx="-99.174197"
     inkscape:cy="245.09595"
     inkscape:window-width="2560"
     inkscape:window-height="1016"
     inkscape:window-x="1920"
     inkscape:window-y="34"
     inkscape:window-maximized="1"
     id="namedview841"
     inkscape:document-rotation="0"
     showgrid="false"
     inkscape:current-layer="g847" />
  <g
     id="g847">
    <g
       transform="matrix(0.26458333,0,0,0.26458333,76.210599,99.296602)"
       id="g845"
       style="fill:#161614;fill-opacity:1">
      <path
         d="m 194.51408,-375.29386 a 483.77954,483.77932 0 0 0 -482.55414,483.77935 483.77954,483.77932 0 0 0 483.77954,483.77932 483.77954,483.77932 0 0 0 483.77953,-483.77932 483.77954,483.77932 0 0 0 -483.77953,-483.77935 483.77954,483.77932 0 0 0 -1.2254,0 z m 202.51477,196.55012 c 27.68291,0 50.16732,22.49173 50.16732,50.17468 0,27.69369 -22.48441,50.182054 -50.16732,50.182054 -27.11316,0 -49.02841,-21.338939 -50.18948,-47.871514 L 241.86888,-148.75112 209.58049,2.3634731 c 73.82476,2.8811704 140.15006,25.3715039 188.59253,59.9778639 12.6858,-12.115988 29.99447,-19.606328 49.02315,-19.606328 38.64861,0 70.36414,31.13838 70.36414,70.356781 0,28.83325 -17.29447,53.64062 -41.51573,64.60627 1.15034,6.91268 1.72736,14.41761 1.72736,21.34106 0,109.00085 -126.30919,196.6682 -282.03246,196.6682 -155.723266,0 -282.032511,-88.24789 -282.032511,-196.6682 0,-7.50399 0.573695,-14.42838 1.734766,-21.34106 -24.231985,-10.96565 -41.530545,-35.18984 -41.530545,-64.02309 0,-38.648599 31.145801,-70.364188 70.364183,-70.364188 19.028675,0 36.337362,7.49771 49.0231576,19.613698 C 42.321499,27.737585 109.80228,5.2432829 184.77734,2.931876 l 35.76529,-168.410386 c 0.56977,-3.4617 2.3009,-6.33755 5.18207,-8.06838 2.31137,-1.73087 5.77301,-2.3153 9.23475,-1.73476 l 117.07677,24.80313 c 8.07371,-16.72799 25.38342,-28.26522 44.99263,-28.26522 z M 84.427932,113.09179 c -27.693658,0 -50.182074,22.49173 -50.182074,50.17468 0,27.68291 22.488416,50.75922 50.182074,50.18946 27.682958,0 50.174708,-22.50655 50.174708,-50.18946 0,-27.68295 -22.49175,-50.17468 -50.174708,-50.17468 z m 221.464108,0.58318 c -27.68292,0 -50.17471,22.49173 -50.17471,50.17468 0,27.68291 22.49179,50.17468 50.17471,50.17468 27.69369,0 50.18207,-23.0723 50.18207,-50.17468 0,-27.68295 -22.48838,-50.17468 -50.18207,-50.17468 z M 85.572146,274.1572 c -3.316574,0 -6.631068,1.29195 -9.227377,3.88285 -5.181808,5.19254 -5.181808,13.26954 0,18.46212 34.036571,34.02582 99.785541,36.91678 119.394711,36.91678 19.02868,0 84.78093,-2.31042 119.38731,-36.91678 4.612,-5.19258 4.612,-13.26958 0,-18.46212 -5.19258,-5.1818 -13.26222,-5.1818 -18.45476,0 -21.34008,21.92057 -68.05705,29.41681 -100.93255,29.41681 -32.8755,0 -79.01197,-7.49624 -100.932587,-29.41681 -2.596271,-2.5909 -5.918174,-3.88285 -9.234747,-3.88285 z"
         style="stroke-width:3.77953;fill:#161614;fill-opacity:1"
         id="path843" />
    </g>
  </g>
</svg>
