<?xml version="1.0" standalone="no"?>
<!DOCTYPE svg PUBLIC "-//W3C//DTD SVG 20010904//EN"
 "http://www.w3.org/TR/2001/REC-SVG-20010904/DTD/svg10.dtd">
<svg version="1.0" xmlns="http://www.w3.org/2000/svg"
 width="525.000000pt" height="526.000000pt" viewBox="0 0 525.000000 526.000000"
 preserveAspectRatio="xMidYMid meet">

<g transform="translate(0.000000,526.000000) scale(0.100000,-0.100000)"
fill="#f7a8b8" stroke="none">
<path d="M1603 5136 c-151 -107 -254 -250 -253 -354 1 -35 30 -98 65 -140 15
-18 24 -37 19 -41 -5 -4 -36 -18 -68 -30 -61 -22 -201 -104 -214 -125 -4 -7
-18 -19 -30 -28 -33 -22 -164 -177 -205 -240 -18 -29 -50 -89 -71 -133 -20
-44 -43 -92 -51 -106 -8 -14 -21 -48 -30 -75 -9 -27 -20 -58 -24 -69 -5 -11
-14 -40 -20 -65 -59 -229 -80 -314 -91 -365 -6 -33 -18 -78 -25 -100 -25 -76
-102 -251 -128 -292 -15 -24 -27 -44 -27 -47 0 -21 -148 -211 -214 -276 -73
-71 -56 -99 52 -85 58 7 171 57 222 97 16 13 50 39 76 58 26 19 59 47 73 63
14 15 29 27 33 27 5 0 8 -72 8 -159 0 -88 4 -162 9 -165 5 -3 12 -26 15 -51
16 -100 143 -230 249 -253 56 -12 58 -6 22 66 -14 28 -25 56 -25 64 0 8 -5 19
-11 25 -20 20 -6 67 22 77 22 7 31 5 55 -17 16 -15 34 -27 39 -27 6 0 26 -16
45 -35 19 -19 39 -35 45 -35 22 0 45 -37 45 -71 0 -20 9 -54 20 -77 11 -22 20
-45 20 -49 0 -22 94 -111 144 -136 62 -31 170 -53 210 -43 26 6 25 8 -48 79
-78 76 -137 160 -162 229 -26 75 -17 76 86 8 41 -27 87 -52 102 -55 15 -4 28
-11 28 -16 0 -5 7 -9 16 -9 9 0 49 -10 88 -21 55 -17 80 -31 113 -63 63 -63
56 -76 -157 -295 -110 -112 -135 -140 -210 -231 -67 -81 -96 -128 -119 -190
-26 -72 -59 -186 -66 -230 -3 -19 -10 -51 -16 -70 -20 -65 -112 -325 -119
-335 -4 -5 -11 -26 -15 -45 -3 -19 -19 -75 -35 -125 -27 -82 -42 -137 -72
-263 -6 -29 -7 -47 0 -54 15 -15 81 -27 144 -28 31 0 79 -5 107 -11 l49 -10 6
-72 c4 -40 5 -81 4 -92 -2 -12 4 -21 16 -23 17 -4 18 3 11 152 l-7 156 53 0
c111 0 360 -71 410 -116 16 -14 19 -32 19 -106 0 -77 2 -88 18 -88 16 0 17 26
14 442 -3 427 -3 450 22 652 15 115 24 211 21 214 -13 14 -24 -21 -39 -128
-30 -222 -39 -380 -34 -662 3 -211 1 -278 -8 -278 -6 0 -37 11 -69 25 -81 36
-217 74 -303 85 -84 11 -235 -1 -325 -27 -32 -8 -59 -14 -61 -12 -9 9 67 277
132 464 39 111 93 282 121 381 64 228 69 240 154 354 70 95 347 380 368 380 6
0 41 -22 78 -49 130 -95 295 -187 429 -237 86 -33 185 -33 233 -1 39 26 194
227 211 274 7 18 17 34 23 37 6 2 51 -21 100 -51 50 -29 134 -77 187 -104 54
-28 106 -63 117 -77 10 -15 32 -67 49 -117 40 -119 142 -321 238 -470 42 -66
111 -176 152 -245 42 -69 91 -147 110 -173 19 -26 32 -50 29 -53 -3 -3 -47
-12 -99 -19 -207 -31 -405 -78 -520 -126 -40 -16 -77 -28 -84 -25 -8 3 -1 27
22 75 19 40 34 77 34 84 -1 6 -20 -29 -44 -79 -24 -50 -49 -94 -54 -98 -6 -4
-29 -40 -52 -81 -36 -65 -41 -81 -35 -114 7 -43 28 -107 38 -117 4 -4 7 -14 7
-23 0 -8 7 -35 16 -58 12 -30 22 -43 36 -43 22 0 21 6 -20 113 -22 58 -24 70
-11 78 29 18 45 2 94 -93 34 -68 55 -98 68 -98 9 0 17 2 17 4 0 3 -31 69 -68
148 -38 79 -75 160 -83 181 -17 47 -13 51 100 98 86 37 355 109 369 100 10 -6
34 -72 77 -209 14 -46 42 -118 62 -160 19 -43 44 -96 54 -119 12 -30 24 -43
38 -43 19 0 19 1 1 38 -11 20 -28 57 -38 82 -11 25 -31 70 -44 100 -13 30 -35
87 -48 127 -24 70 -24 72 -6 92 24 26 150 111 199 134 20 10 37 21 37 26 0 4
-17 32 -39 62 -21 30 -49 74 -62 99 -13 25 -43 73 -67 107 -23 34 -42 65 -42
68 0 3 -16 27 -35 52 -19 25 -35 52 -35 59 0 8 -4 14 -10 14 -5 0 -10 4 -10 9
0 6 -14 31 -31 57 -47 68 -166 289 -180 332 -6 20 -15 39 -18 42 -4 3 -15 34
-26 70 -37 130 -58 152 -240 250 -156 84 -170 92 -188 108 -10 9 -23 17 -30
19 -7 1 -25 6 -42 9 -16 4 -41 14 -55 23 -14 9 -50 27 -80 40 -30 13 -77 34
-105 46 -27 12 -65 28 -82 35 -18 7 -33 15 -33 19 0 3 -16 17 -36 30 -33 23
-35 27 -32 75 3 45 6 52 33 65 17 8 54 17 83 19 59 5 63 -1 37 -73 -16 -42
-19 -78 -9 -88 4 -3 27 16 53 42 31 32 78 64 141 95 94 46 170 69 157 49 -11
-18 -11 -267 -1 -270 6 -2 23 22 39 54 18 37 63 93 129 163 92 94 166 189 166
212 0 4 9 27 19 51 11 23 26 65 34 92 17 60 29 62 87 15 51 -42 156 -87 227
-96 75 -9 82 1 36 50 -51 54 -82 105 -117 191 -15 39 -31 77 -36 86 -5 9 -12
34 -16 54 l-7 38 42 -7 c55 -8 54 8 -3 58 -46 40 -61 76 -71 171 -3 28 -8 69
-11 93 -4 27 -2 42 5 42 5 0 40 -16 75 -36 53 -29 80 -37 139 -41 81 -6 181
11 174 31 -2 6 -48 34 -102 61 -54 28 -100 55 -102 60 -2 6 10 19 26 30 20 13
38 41 55 85 21 54 32 67 58 78 72 29 95 42 136 78 59 51 66 66 48 108 -20 47
-135 160 -223 219 -67 44 -186 108 -225 121 -10 3 -18 15 -18 26 0 13 -13 28
-35 41 -29 17 -35 27 -35 53 0 36 -28 56 -75 56 l-25 0 0 116 c0 105 -3 122
-30 190 -39 98 -72 144 -161 229 -81 77 -214 154 -232 136 -6 -6 -14 -34 -19
-63 -4 -29 -16 -84 -26 -121 -15 -55 -24 -71 -46 -82 -15 -8 -41 -26 -58 -40
-16 -14 -37 -25 -46 -25 -25 0 -168 86 -175 105 -4 8 -11 15 -16 15 -5 0 -48
25 -96 55 -135 84 -185 92 -345 50 -214 -56 -300 -97 -398 -191 -41 -38 -77
-70 -81 -72 -19 -7 -44 85 -43 153 2 64 7 81 66 200 36 72 76 143 91 159 43
47 6 64 -52 22z m-78 -165 c-49 -96 -65 -154 -65 -240 0 -66 -2 -72 -16 -60
-8 7 -25 31 -36 53 -24 47 -21 94 13 160 23 48 114 156 130 156 5 0 -7 -31
-26 -69z m772 -162 c37 -19 97 -56 132 -82 35 -26 89 -65 120 -85 52 -34 56
-39 46 -59 -20 -39 -7 -83 29 -98 69 -29 142 -93 276 -245 191 -216 316 -432
399 -689 12 -35 21 -73 21 -83 0 -11 4 -27 9 -36 5 -9 14 -62 20 -117 7 -55
14 -112 17 -127 10 -48 -12 -31 -66 53 -88 137 -100 170 -100 280 0 108 -7
129 -63 181 -20 20 -37 43 -37 51 0 49 -92 205 -181 306 -80 91 -121 142 -211
261 -134 178 -308 339 -430 395 -78 37 -169 35 -247 -5 -67 -33 -201 -144
-201 -166 0 -31 44 -12 93 40 57 59 90 78 178 106 69 22 100 19 179 -21 118
-58 261 -191 391 -364 85 -112 123 -158 226 -280 74 -88 145 -207 168 -283 7
-23 6 -23 -82 -20 l-88 3 -48 73 c-26 39 -52 72 -57 72 -24 0 -19 -26 14 -75
20 -30 36 -59 36 -65 0 -9 -26 -12 -114 -14 -17 -1 -50 24 -110 82 -84 81 -87
84 -72 106 23 35 77 56 145 56 82 0 124 -19 193 -88 38 -37 61 -53 68 -46 17
17 -74 109 -138 141 -77 38 -177 40 -237 4 -22 -12 -44 -29 -48 -37 -4 -8 -12
-14 -17 -14 -5 0 -39 39 -76 88 -68 87 -91 112 -106 112 -22 0 -1 -39 72 -132
77 -98 80 -105 75 -143 -3 -22 -14 -58 -25 -79 l-19 -40 34 -42 c55 -67 61
-88 36 -120 -11 -15 -21 -37 -21 -50 0 -40 -17 -27 -65 51 -42 66 -75 95 -75
65 0 -19 37 -84 85 -148 59 -82 56 -94 -27 -85 -57 5 -67 10 -103 47 -23 23
-51 57 -64 75 -13 18 -46 58 -73 89 -28 33 -46 62 -43 70 3 8 -10 33 -28 56
-19 22 -44 61 -57 86 -50 98 -101 276 -104 365 -1 45 -6 60 -16 60 -12 0 -15
-18 -16 -85 0 -91 -4 -106 -40 -186 -13 -28 -31 -72 -41 -97 -14 -35 -30 -54
-68 -79 -53 -35 -100 -102 -111 -155 -11 -53 11 -38 45 32 27 54 84 116 96
104 2 -2 -7 -33 -19 -69 -12 -36 -28 -91 -35 -122 l-14 -56 -58 -22 c-33 -11
-64 -18 -69 -15 -6 3 -10 34 -10 67 0 67 39 196 92 306 17 34 28 65 25 68 -22
22 -61 -38 -102 -155 -15 -43 -25 -59 -31 -50 -4 8 -9 112 -9 231 0 119 -4
220 -8 224 -33 34 -42 -317 -13 -576 9 -80 16 -148 16 -152 0 -3 -23 -23 -51
-44 l-52 -38 6 -71 6 -72 -52 -11 c-28 -6 -76 -14 -104 -18 l-53 -7 0 77 c0
61 -3 76 -15 76 -10 0 -15 -10 -15 -32 0 -18 -3 -57 -6 -85 -7 -52 -7 -53 -40
-53 l-34 0 5 98 c2 53 7 187 10 297 6 221 16 307 47 408 20 65 17 96 -8 79
-16 -11 -51 -139 -64 -232 -6 -47 -14 -211 -19 -366 -4 -154 -11 -286 -15
-292 -4 -7 -14 -12 -23 -12 -17 0 -63 -44 -63 -60 0 -5 -15 -33 -34 -62 -43
-69 -76 -158 -76 -208 0 -52 36 -145 67 -174 23 -22 24 -26 13 -60 -10 -33
-30 -50 -30 -27 0 11 -69 66 -74 60 -4 -4 10 -128 19 -170 4 -19 -1 -35 -20
-57 -35 -42 -32 -54 12 -50 36 3 37 1 49 -38 7 -23 17 -51 23 -63 16 -29 1
-26 -45 7 -51 37 -109 109 -137 169 -21 46 -22 61 -22 303 0 270 -2 251 60
515 83 353 140 570 174 660 10 25 4 45 -13 45 -25 0 -102 -278 -226 -815 -14
-60 -29 -144 -36 -200 -5 -46 -12 -56 -77 -121 -113 -111 -248 -195 -337 -209
l-44 -7 54 62 c30 34 79 92 107 128 60 76 190 330 226 442 23 70 32 102 57
213 102 457 219 706 430 917 63 63 107 97 170 130 82 43 88 45 172 45 l87 0
71 77 c97 106 170 147 345 197 180 51 232 51 332 0z m-354 -897 c15 -37 27
-70 27 -72 0 -3 -27 -3 -60 -2 -33 2 -60 6 -60 8 0 13 53 134 59 134 5 0 20
-30 34 -68z m709 -228 c-9 -7 -21 -14 -25 -14 -5 0 -22 -10 -39 -21 -16 -12
-33 -18 -37 -13 -55 67 -79 103 -72 110 4 5 13 28 20 52 l12 43 79 -72 c73
-65 78 -73 62 -85z m-689 122 c26 -10 40 -28 67 -82 18 -38 44 -82 57 -98 13
-16 22 -30 20 -32 -2 -2 -66 -12 -143 -23 -76 -11 -154 -23 -173 -27 l-34 -7
6 40 c9 57 68 226 81 235 18 12 84 9 119 -6z m922 -178 c-116 -131 -330 -349
-333 -339 -2 6 8 26 23 44 41 51 328 337 338 337 5 0 -8 -19 -28 -42z m219 6
c22 -21 21 -23 -22 -69 -20 -22 -68 -76 -106 -120 -113 -130 -303 -315 -324
-315 -10 0 -28 10 -40 23 l-21 22 92 95 c51 53 137 144 192 204 55 60 115 124
133 143 36 36 71 43 96 17z m336 -171 c52 -54 96 -88 140 -110 36 -18 74 -39
85 -48 19 -15 16 -16 -45 -12 -70 5 -104 18 -186 74 -38 25 -54 43 -59 66 -17
78 -22 107 -16 107 3 0 39 -35 81 -77z m-1280 42 l23 -24 -29 -34 c-16 -19
-38 -45 -48 -58 -11 -13 -35 -42 -55 -64 -52 -58 -171 -199 -265 -314 -32 -39
-64 -71 -70 -71 -14 0 -106 76 -130 108 -16 21 -16 23 11 60 108 144 309 395
320 399 22 9 114 20 169 22 42 1 55 -3 74 -24z m316 -190 c12 -31 -2 -35 -36
-10 l-34 25 32 0 c19 0 35 -6 38 -15z m-111 -5 c3 -5 38 -32 78 -60 42 -29 82
-67 97 -90 33 -55 109 -104 205 -135 108 -34 139 -32 238 16 22 11 41 19 43
19 2 0 4 -51 4 -113 0 -191 -45 -302 -172 -422 -109 -103 -219 -158 -373 -185
-114 -19 -132 -27 -137 -58 -2 -15 -2 -51 0 -80 l4 -54 67 -42 c36 -24 93 -55
126 -70 160 -74 207 -99 212 -113 8 -19 -25 -78 -103 -183 -75 -102 -102 -120
-180 -120 -99 0 -274 77 -464 205 -154 104 -148 97 -127 140 10 20 21 35 25
33 4 -2 36 -17 72 -35 36 -17 81 -36 101 -42 44 -14 109 -14 109 -1 0 5 -21
29 -46 52 -25 24 -65 68 -89 98 -38 49 -44 66 -55 135 -6 44 -17 91 -23 104
-12 25 -89 76 -123 83 -24 4 -102 160 -143 285 -31 96 -57 210 -49 218 3 3 31
-8 64 -25 70 -35 151 -40 242 -14 191 55 289 184 304 404 2 25 10 38 28 47 30
15 57 17 65 3z m873 -42 c16 -29 60 -93 96 -142 37 -49 64 -91 62 -94 -7 -6
-106 46 -133 70 -12 11 -26 19 -32 17 -7 -3 -13 -50 -16 -116 -9 -216 -46
-292 -179 -369 l-49 -28 26 46 c48 80 58 132 61 296 l4 154 29 31 c33 35 68
104 78 155 4 17 10 32 15 32 4 0 22 -24 38 -52z m-1740 -193 c18 -33 50 -77
71 -97 34 -33 39 -44 45 -100 16 -161 133 -441 265 -636 42 -63 81 -121 86
-130 6 -9 15 -21 21 -27 28 -26 86 -106 81 -111 -8 -8 -105 42 -152 79 -150
118 -288 296 -397 512 -80 158 -124 293 -135 413 -5 51 -9 62 -22 60 -13 -3
-16 -16 -14 -66 8 -192 160 -522 350 -759 33 -42 19 -42 -80 1 -104 46 -205
112 -223 148 -17 32 -39 36 -53 9 -12 -21 10 -155 30 -194 20 -37 86 -130 119
-167 46 -50 22 -51 -88 -3 -73 32 -124 108 -157 233 -14 56 -17 115 -16 410 1
190 4 370 7 401 l6 57 57 11 c151 30 159 28 199 -44z m-317 -135 c-3 -169 1
-155 -107 -329 -100 -161 -108 -150 -40 52 24 73 49 159 56 192 6 33 16 76 21
96 5 20 9 54 9 75 0 22 4 44 8 50 7 12 43 23 52 17 2 -3 3 -71 1 -153z m-115
53 c-9 -32 -26 -75 -37 -95 -16 -30 -18 -47 -13 -87 7 -55 -9 -111 -31 -111
-15 0 -40 52 -49 102 -12 66 60 240 107 258 35 13 40 -4 23 -67z m2265 22 c27
-14 52 -34 55 -43 3 -9 10 -26 15 -37 5 -11 18 -49 30 -85 24 -75 59 -147 102
-209 l30 -44 -37 7 c-61 12 -143 63 -210 132 -38 39 -64 44 -70 12 -48 -221
-76 -276 -219 -427 l-112 -119 -3 47 c-3 47 21 152 56 251 16 46 28 60 68 87
164 106 196 160 214 353 5 52 9 96 10 98 1 7 27 -1 71 -23z m-2151 -404 c12
-24 13 -68 2 -75 -5 -3 -23 7 -40 22 -25 22 -29 31 -22 50 11 27 46 29 60 3z
m-39 -107 l49 -36 0 -64 c0 -35 -2 -64 -5 -64 -19 0 -155 108 -155 124 0 11
48 76 57 76 3 0 27 -16 54 -36z m1781 -7 c-10 -12 -22 -34 -26 -50 -10 -41
-33 -59 -126 -96 -47 -19 -104 -47 -128 -63 -24 -17 -46 -27 -49 -24 -14 13
32 58 90 87 84 43 164 98 212 148 40 42 65 39 27 -2z m-1006 -178 c29 -18 34
-26 34 -60 0 -21 -2 -39 -4 -39 -4 0 -76 108 -76 115 0 9 12 5 46 -16z m1739
-1794 c-33 -27 -58 -29 -63 -3 -3 17 15 24 68 27 l25 1 -30 -25z m-2355 -256
c0 -26 -3 -30 -17 -24 -10 4 -51 10 -91 13 -77 5 -82 21 -7 23 22 0 49 4 60 9
41 17 55 12 55 -21z"/>
<path d="M2650 2728 c-30 -28 -79 -62 -109 -76 -70 -32 -147 -27 -251 16 -73
31 -103 34 -66 6 83 -60 248 -78 339 -37 64 30 185 144 150 143 -5 -1 -33 -24
-63 -52z"/>
<path d="M4108 1573 c-15 -16 -15 -34 -6 -183 8 -122 8 -183 0 -235 -7 -38
-14 -90 -17 -115 -3 -25 -12 -55 -20 -67 -11 -16 -17 -85 -25 -269 -13 -314
-21 -347 -130 -564 -63 -126 -67 -140 -40 -140 11 0 23 8 26 18 3 9 32 73 65
142 86 183 99 243 110 505 5 121 14 238 19 260 5 22 15 67 24 100 26 106 33
221 22 372 -6 90 -6 147 0 153 18 18 54 -3 88 -54 44 -64 55 -114 56 -244 0
-99 1 -105 30 -140 39 -49 122 -235 128 -287 6 -56 -22 -164 -65 -248 -19 -38
-32 -72 -29 -75 9 -8 82 157 96 216 20 87 10 145 -48 269 -29 61 -52 116 -52
122 0 6 13 11 29 11 67 0 306 58 491 120 170 57 266 78 282 62 16 -16 -8 -76
-40 -94 -15 -9 -74 -35 -132 -59 -58 -23 -112 -48 -121 -56 -8 -7 -20 -13 -26
-13 -11 0 -48 -15 -240 -101 -57 -25 -83 -46 -83 -68 0 -11 5 -9 16 8 9 12 44
35 78 51 132 61 239 101 247 93 13 -13 14 -96 1 -119 -6 -12 -28 -29 -47 -39
-48 -22 -39 -29 13 -11 l42 15 7 -27 c13 -51 8 -117 -10 -145 -26 -40 -154
-93 -254 -104 -36 -4 -43 -2 -58 21 -14 21 -15 31 -5 60 10 31 23 41 107 83
52 26 99 56 104 65 12 23 14 23 -77 -7 -96 -31 -128 -32 -148 -3 -11 16 -16
18 -16 7 0 -27 23 -39 72 -39 26 0 48 -4 48 -9 0 -5 -20 -19 -45 -31 -36 -17
-47 -29 -55 -58 -14 -53 -13 -67 11 -88 12 -10 25 -30 30 -43 9 -22 11 -23 28
-7 9 9 21 16 25 16 4 0 50 20 102 45 52 25 100 43 106 39 16 -10 3 -92 -18
-116 -26 -28 -119 -68 -160 -68 -28 0 -38 6 -55 33 l-20 32 3 -30 c2 -19 11
-34 26 -41 49 -24 44 -31 -50 -64 -103 -35 -111 -40 -132 -79 -7 -14 -28 -52
-46 -83 -70 -127 -105 -268 -66 -268 17 0 22 15 32 85 7 57 47 145 102 225 31
46 46 58 97 78 108 42 239 110 280 145 40 35 40 35 38 103 -1 55 2 71 17 84
27 23 32 56 20 130 -12 75 -12 73 -4 121 3 20 1 46 -5 56 -7 15 -6 25 5 41 8
12 19 22 25 22 5 0 43 16 85 35 41 19 80 35 85 35 6 0 23 7 39 15 34 17 60 71
60 120 0 49 -18 59 -87 45 -72 -13 -183 -46 -244 -71 -25 -10 -61 -21 -80 -24
-19 -3 -47 -10 -64 -15 -156 -50 -351 -88 -374 -73 -13 8 -16 29 -17 109 -1
105 -13 163 -43 222 -42 82 -127 126 -163 85z"/>
<path d="M3040 1344 c0 -27 5 -56 10 -64 7 -10 8 4 4 45 -8 75 -14 83 -14 19z"/>
<path d="M3061 1235 c0 -11 4 -29 9 -40 l9 -20 0 20 c0 11 -4 29 -9 40 l-9 20
0 -20z"/>
<path d="M3187 1203 c-9 -31 -20 -128 -13 -122 3 3 10 34 15 70 9 63 8 87 -2
52z"/>
<path d="M3087 1130 c6 -49 23 -91 22 -55 0 11 -7 38 -14 60 l-13 40 5 -45z"/>
<path d="M3159 1040 c-5 -30 -35 -39 -42 -13 -8 32 4 -51 15 -97 5 -25 12
-103 15 -175 4 -81 9 -121 14 -105 12 40 9 160 -5 225 -10 50 -10 68 1 108 8
27 12 56 10 65 -2 12 -5 9 -8 -8z"/>
<path d="M2710 773 c0 -6 -29 -59 -65 -118 -36 -60 -65 -110 -65 -111 0 -1
-16 -30 -35 -64 -19 -34 -35 -65 -35 -68 0 -14 21 17 56 83 20 39 49 88 63
110 43 65 93 166 87 172 -3 4 -6 2 -6 -4z"/>
<path d="M2676 590 c-39 -44 -48 -64 -15 -34 23 21 63 74 56 74 -3 0 -21 -18
-41 -40z"/>
<path d="M2596 474 c-21 -31 -36 -58 -33 -60 2 -2 20 21 41 52 20 31 35 59 33
61 -2 2 -21 -22 -41 -53z"/>
</g>
</svg>
