<svg id="svg" version="1.1" xmlns="http://www.w3.org/2000/svg" xmlns:xlink="http://www.w3.org/1999/xlink" width="400" height="400" viewBox="0, 0, 400,400"><g id="svgg"><path id="path0" d="M271.911 5.198 C 268.990 8.056,265.206 11.791,263.501 13.498 C 256.938 20.068,249.483 27.520,246.702 30.289 C 242.652 34.322,242.000 35.084,242.000 35.786 C 242.000 36.124,241.820 36.400,241.600 36.400 C 241.380 36.400,241.200 36.940,241.200 37.600 C 241.200 38.260,241.020 38.800,240.800 38.800 C 240.538 38.800,240.400 47.267,240.400 63.400 L 240.400 88.000 253.200 88.000 L 266.000 88.000 266.000 67.811 L 266.000 47.622 280.800 32.838 L 295.600 18.053 295.600 15.595 C 295.600 13.217,295.545 13.086,293.900 11.565 C 292.965 10.700,292.047 9.833,291.859 9.637 C 291.671 9.442,289.464 7.194,286.955 4.641 L 282.391 0.000 279.807 0.000 L 277.222 -0.000 271.911 5.198 M78.300 149.476 C 77.569 149.667,77.302 151.200,78.000 151.200 C 78.222 151.200,78.400 152.259,78.400 153.576 C 78.400 154.883,78.580 156.064,78.800 156.200 C 79.020 156.336,79.200 157.517,79.200 158.824 C 79.200 160.141,79.378 161.200,79.600 161.200 C 79.822 161.200,80.000 162.267,80.000 163.600 C 80.000 164.933,80.178 166.000,80.400 166.000 C 80.622 166.000,80.800 167.067,80.800 168.400 C 80.800 169.720,80.964 170.800,81.164 170.800 C 81.504 170.800,81.655 171.852,82.241 178.300 C 82.366 179.675,82.633 180.800,82.834 180.800 C 83.035 180.800,83.200 181.540,83.200 182.444 L 83.200 184.088 84.700 183.839 C 87.320 183.404,312.397 183.074,314.700 183.501 L 316.800 183.891 316.800 182.345 C 316.800 181.495,316.980 180.800,317.200 180.800 C 317.426 180.800,317.600 179.667,317.600 178.200 C 317.600 176.733,317.774 175.600,318.000 175.600 C 318.222 175.600,318.400 174.533,318.400 173.200 C 318.400 171.867,318.578 170.800,318.800 170.800 C 319.022 170.800,319.200 169.733,319.200 168.400 C 319.200 167.067,319.378 166.000,319.600 166.000 C 319.822 166.000,320.000 164.933,320.000 163.600 C 320.000 162.267,320.178 161.200,320.400 161.200 C 320.622 161.200,320.800 160.133,320.800 158.800 C 320.800 157.467,320.978 156.400,321.200 156.400 C 321.426 156.400,321.600 155.267,321.600 153.800 C 321.600 152.333,321.774 151.200,322.000 151.200 C 322.817 151.200,322.385 149.689,321.500 149.452 C 320.466 149.175,79.361 149.198,78.300 149.476 M110.832 351.728 C 110.288 352.272,110.263 355.468,110.800 355.800 C 111.020 355.936,111.200 356.991,111.200 358.144 C 111.200 359.297,111.364 360.411,111.565 360.620 C 111.765 360.829,112.035 362.035,112.165 363.300 C 112.294 364.565,112.506 366.635,112.635 367.900 C 112.765 369.165,113.035 370.371,113.235 370.580 C 113.436 370.789,113.600 371.914,113.600 373.080 C 113.600 374.246,113.765 375.200,113.966 375.200 C 114.167 375.200,114.426 376.325,114.542 377.700 C 114.657 379.075,114.951 381.370,115.196 382.800 C 115.440 384.230,115.738 386.345,115.857 387.500 C 115.976 388.655,116.237 389.600,116.437 389.600 C 116.637 389.600,116.800 390.230,116.800 391.000 C 116.800 391.770,116.980 392.400,117.200 392.400 C 117.420 392.400,117.600 392.649,117.600 392.954 C 117.600 393.711,122.593 398.800,123.336 398.800 C 123.665 398.800,124.008 399.025,124.100 399.300 C 124.233 399.698,139.769 399.800,200.000 399.800 C 260.231 399.800,275.767 399.698,275.900 399.300 C 275.992 399.025,276.325 398.800,276.641 398.800 C 277.526 398.800,282.400 393.728,282.400 392.807 C 282.400 392.363,282.580 392.000,282.800 392.000 C 283.020 392.000,283.200 391.471,283.200 390.824 C 283.200 390.177,283.380 389.536,283.600 389.400 C 283.820 389.264,284.000 388.364,284.000 387.400 C 284.000 386.436,284.180 385.536,284.400 385.400 C 284.620 385.264,284.800 383.993,284.800 382.576 C 284.800 381.125,284.975 380.000,285.200 380.000 C 285.422 380.000,285.600 378.933,285.600 377.600 C 285.600 376.267,285.778 375.200,286.000 375.200 C 286.220 375.200,286.400 374.221,286.400 373.024 C 286.400 371.827,286.580 370.736,286.800 370.600 C 287.020 370.464,287.200 369.319,287.200 368.056 C 287.200 366.793,287.363 365.589,287.563 365.380 C 287.903 365.024,288.084 363.859,288.644 358.400 C 288.769 357.190,289.035 356.029,289.235 355.820 C 290.053 354.968,289.658 352.027,288.700 351.830 C 286.620 351.401,111.259 351.301,110.832 351.728 " stroke="none" fill="#c78675" fill-rule="evenodd"></path><path id="path1" d="M102.800 88.633 C 102.250 88.939,101.934 89.191,102.097 89.194 C 102.658 89.205,100.656 91.200,100.085 91.200 C 99.771 91.200,99.604 91.433,99.713 91.717 C 99.822 92.001,99.661 92.575,99.356 92.993 C 98.917 93.593,98.905 93.819,99.300 94.070 C 99.700 94.324,99.700 94.389,99.300 94.394 C 98.379 94.405,98.603 112.497,99.534 113.340 C 100.605 114.309,300.195 114.170,300.808 113.200 C 302.510 110.508,300.809 90.400,298.880 90.400 C 298.543 90.400,298.378 90.289,298.514 90.152 C 298.864 89.803,297.779 88.800,297.052 88.800 C 296.719 88.800,296.336 88.620,296.200 88.400 C 295.764 87.694,266.370 87.897,265.424 88.613 C 264.273 89.483,242.127 89.483,240.976 88.613 C 239.840 87.753,104.349 87.774,102.800 88.633 M77.843 148.633 C 77.458 149.636,77.558 149.809,78.100 149.075 C 78.568 148.441,86.447 148.391,200.400 148.298 L 322.200 148.199 200.143 148.099 C 89.154 148.009,78.064 148.057,77.843 148.633 M169.781 249.700 L 168.200 251.400 169.900 249.819 C 171.481 248.348,171.784 248.000,171.481 248.000 C 171.416 248.000,170.651 248.765,169.781 249.700 M208.175 249.300 L 207.000 250.600 208.300 249.425 C 209.015 248.779,209.600 248.194,209.600 248.125 C 209.600 247.816,209.270 248.088,208.175 249.300 M234.244 257.000 C 234.573 258.471,234.802 258.790,234.794 257.767 C 234.791 257.345,234.605 256.730,234.382 256.400 C 234.085 255.962,234.048 256.124,234.244 257.000 M165.344 260.800 C 165.344 262.890,165.412 263.745,165.494 262.700 C 165.576 261.655,165.576 259.945,165.494 258.900 C 165.412 257.855,165.344 258.710,165.344 260.800 M172.815 274.998 C 173.734 276.253,174.422 276.911,174.615 276.718 C 174.712 276.621,174.215 276.015,173.511 275.371 C 172.807 274.727,172.494 274.559,172.815 274.998 M175.764 278.200 C 176.314 278.750,176.893 279.200,177.052 279.200 C 177.210 279.200,176.917 278.750,176.400 278.200 C 175.883 277.650,175.304 277.200,175.112 277.200 C 174.920 277.200,175.214 277.650,175.764 278.200 M189.600 291.705 C 189.600 292.082,193.240 295.693,193.429 295.504 C 193.513 295.420,192.686 294.469,191.591 293.391 C 190.496 292.312,189.600 291.554,189.600 291.705 M206.981 295.700 L 205.400 297.400 207.100 295.819 C 208.035 294.949,208.800 294.184,208.800 294.119 C 208.800 293.816,208.452 294.119,206.981 295.700 M194.073 296.500 C 195.415 297.765,196.181 298.155,195.230 297.088 C 194.697 296.490,194.099 296.000,193.902 296.000 C 193.704 296.000,193.781 296.225,194.073 296.500 " stroke="none" fill="#ececec" fill-rule="evenodd"></path><path id="path2" d="M80.691 185.229 C 76.962 188.303,76.270 193.351,78.342 202.378 C 78.567 203.357,78.678 204.274,78.590 204.416 C 78.502 204.558,78.602 205.296,78.811 206.056 C 79.021 206.815,79.257 208.238,79.335 209.218 C 79.414 210.198,79.584 211.270,79.715 211.600 C 79.845 211.930,80.046 213.010,80.161 214.000 C 80.804 219.508,81.067 221.200,81.319 221.453 C 81.474 221.607,81.600 221.523,81.600 221.267 C 81.600 220.914,91.867 220.800,123.600 220.800 C 147.510 220.800,165.600 220.952,165.600 221.152 C 165.600 221.346,164.579 222.275,163.330 223.218 C 154.701 229.733,147.263 240.172,143.252 251.400 C 139.304 262.451,139.302 281.882,143.249 289.695 C 143.442 290.077,143.600 290.664,143.600 291.000 C 143.600 291.336,143.771 291.923,143.980 292.305 C 144.189 292.687,145.117 294.620,146.041 296.600 C 149.756 304.556,157.148 313.773,163.417 318.264 C 167.170 320.952,169.095 320.800,131.376 320.800 L 97.152 320.800 97.429 322.100 C 97.581 322.815,97.787 324.525,97.887 325.900 C 97.987 327.275,98.233 328.400,98.434 328.400 C 98.635 328.400,98.800 329.465,98.800 330.767 C 98.800 332.068,98.968 333.193,99.174 333.267 C 99.380 333.340,99.605 334.452,99.674 335.738 C 99.743 337.024,99.935 338.160,100.100 338.262 C 100.265 338.364,100.400 339.416,100.400 340.600 C 100.400 341.784,100.580 342.864,100.800 343.000 C 101.020 343.136,101.200 343.741,101.200 344.345 C 101.200 346.896,105.414 351.200,107.912 351.200 C 108.374 351.200,108.864 351.380,109.000 351.600 C 109.418 352.276,110.295 352.044,110.516 351.200 C 110.724 350.403,111.062 350.400,200.000 350.400 L 289.275 350.400 289.493 351.232 C 289.658 351.865,289.912 352.002,290.555 351.802 C 291.020 351.657,291.857 351.418,292.415 351.270 C 293.908 350.873,297.198 348.682,297.199 348.083 C 297.200 347.799,297.560 347.180,298.000 346.708 C 298.460 346.214,298.800 345.296,298.800 344.548 C 298.800 343.833,298.980 343.136,299.200 343.000 C 299.420 342.864,299.600 341.784,299.600 340.600 C 299.600 339.416,299.780 338.336,300.000 338.200 C 300.220 338.064,300.400 336.984,300.400 335.800 C 300.400 334.616,300.580 333.536,300.800 333.400 C 301.020 333.264,301.200 332.083,301.200 330.776 C 301.200 329.459,301.378 328.400,301.600 328.400 C 301.822 328.400,302.000 327.333,302.000 326.000 C 302.000 324.667,302.178 323.600,302.400 323.600 C 302.620 323.600,302.800 322.970,302.800 322.200 L 302.800 320.800 269.000 320.800 C 249.594 320.800,235.200 320.649,235.200 320.445 C 235.200 320.250,236.491 319.047,238.070 317.772 C 244.975 312.193,250.260 305.658,254.046 298.018 C 257.653 290.740,257.783 290.357,260.044 280.400 C 260.711 277.460,260.722 264.590,260.060 261.200 C 259.204 256.819,257.295 250.050,256.737 249.420 C 256.551 249.211,256.395 248.761,256.390 248.420 C 256.380 247.806,254.199 243.281,252.427 240.200 C 249.196 234.580,241.503 225.898,237.023 222.816 C 236.020 222.126,235.200 221.388,235.200 221.175 C 235.200 220.929,250.383 220.827,277.170 220.895 L 319.139 221.000 319.344 218.800 C 319.456 217.590,319.735 215.430,319.964 214.000 C 320.192 212.570,320.480 210.590,320.604 209.600 C 320.729 208.610,320.924 207.440,321.039 207.000 C 321.154 206.560,321.332 205.570,321.434 204.800 C 321.537 204.030,321.740 202.770,321.885 202.000 C 322.031 201.230,322.181 200.301,322.219 199.936 C 322.256 199.571,322.429 198.311,322.602 197.136 C 323.099 193.759,323.128 191.084,322.680 190.000 C 322.453 189.450,322.252 188.891,322.234 188.759 C 322.215 188.626,321.877 188.086,321.483 187.559 C 321.089 187.031,320.639 186.396,320.483 186.146 C 319.846 185.126,317.182 183.982,316.407 184.396 C 315.365 184.954,83.745 184.958,83.400 184.400 C 82.982 183.723,82.245 183.948,80.691 185.229 M212.678 211.945 C 220.280 213.641,228.698 217.190,233.400 220.681 C 234.720 221.661,236.327 222.853,236.971 223.331 C 247.973 231.490,256.571 245.630,259.269 260.000 C 259.903 263.379,260.143 277.019,259.613 279.600 C 258.579 284.638,258.308 285.859,257.972 287.000 C 248.126 320.376,213.997 338.387,181.125 327.554 C 165.167 322.295,150.486 308.010,144.382 291.800 C 143.850 290.387,143.304 288.642,142.879 287.000 C 142.652 286.120,142.280 284.680,142.053 283.800 C 140.501 277.795,140.666 262.027,142.339 256.400 C 142.568 255.630,142.930 254.370,143.144 253.600 C 144.058 250.313,144.158 250.056,146.718 244.400 C 151.462 233.918,162.801 222.457,173.800 217.027 C 180.092 213.921,183.642 212.827,193.200 211.049 C 195.927 210.541,209.106 211.148,212.678 211.945 M216.800 285.400 C 215.828 286.390,215.123 287.200,215.233 287.200 C 215.343 287.200,216.228 286.390,217.200 285.400 C 218.172 284.410,218.877 283.600,218.767 283.600 C 218.657 283.600,217.772 284.410,216.800 285.400 " stroke="none" fill="#fcf3db" fill-rule="evenodd"></path><path id="path3" d="M101.171 89.335 C 100.461 89.867,99.867 91.200,100.340 91.200 C 100.829 91.200,102.406 89.251,102.081 89.050 C 101.921 88.951,101.512 89.080,101.171 89.335 M83.387 113.470 C 83.097 113.760,82.578 113.890,82.233 113.757 C 81.865 113.616,81.509 113.771,81.370 114.133 C 81.230 114.498,80.876 114.651,80.501 114.507 C 80.083 114.346,79.967 114.422,80.158 114.732 C 80.346 115.036,80.135 115.200,79.557 115.200 C 79.067 115.200,78.786 115.319,78.931 115.464 C 79.076 115.610,78.820 115.925,78.361 116.164 C 77.903 116.404,77.229 117.140,76.864 117.800 C 76.499 118.460,76.065 119.060,75.900 119.133 C 75.735 119.207,75.600 119.792,75.600 120.433 C 75.600 121.075,75.420 121.600,75.200 121.600 C 74.980 121.600,74.800 122.320,74.800 123.200 C 74.800 124.080,74.620 124.800,74.400 124.800 C 74.180 124.800,74.000 125.520,74.000 126.400 C 74.000 127.280,73.850 128.000,73.666 128.000 C 73.482 128.000,73.301 128.765,73.265 129.700 C 73.228 130.635,73.019 131.460,72.799 131.533 C 72.580 131.607,72.400 132.372,72.400 133.233 C 72.400 134.095,72.220 134.800,72.000 134.800 C 71.780 134.800,71.600 135.484,71.600 136.320 C 71.600 137.156,71.426 138.014,71.213 138.227 C 71.000 138.440,70.793 139.646,70.752 140.907 C 70.710 142.168,70.524 143.200,70.338 143.200 C 70.152 143.200,70.000 144.018,70.000 145.018 C 70.000 146.937,71.272 148.800,72.582 148.800 C 72.922 148.800,73.200 148.952,73.200 149.138 C 73.200 149.956,77.531 149.646,77.797 148.809 L 78.054 148.000 200.000 148.000 C 321.595 148.000,321.947 148.002,322.200 148.800 C 322.475 149.667,326.800 150.043,326.800 149.200 C 326.800 148.980,327.078 148.800,327.418 148.800 C 329.328 148.800,331.328 142.510,329.601 141.933 C 329.381 141.860,329.172 141.027,329.135 140.083 C 329.098 139.138,328.917 138.273,328.734 138.159 C 328.550 138.046,328.400 137.258,328.400 136.410 C 328.400 135.561,328.228 134.807,328.018 134.733 C 327.807 134.660,327.589 133.912,327.534 133.072 C 327.478 132.231,327.290 131.456,327.116 131.348 C 326.942 131.241,326.800 130.443,326.800 129.576 C 326.800 128.709,326.620 128.000,326.400 128.000 C 326.180 128.000,326.000 127.295,326.000 126.433 C 326.000 125.572,325.828 124.807,325.618 124.733 C 325.407 124.660,325.190 123.925,325.136 123.100 C 325.081 122.275,324.874 121.600,324.675 121.600 C 324.477 121.600,324.422 121.319,324.554 120.975 C 324.851 120.202,323.707 117.886,323.188 118.208 C 322.978 118.337,322.918 118.158,323.054 117.804 C 323.188 117.454,323.141 117.220,322.949 117.284 C 322.757 117.348,322.542 117.220,322.471 117.000 C 322.238 116.273,321.085 115.200,320.538 115.200 C 320.242 115.200,320.000 115.041,320.000 114.847 C 320.000 114.557,319.137 114.175,318.187 114.043 C 318.079 114.028,317.499 113.764,316.896 113.456 C 315.358 112.671,301.222 112.517,300.750 113.280 C 300.214 114.148,100.531 114.243,99.573 113.375 C 98.641 112.533,84.240 112.617,83.387 113.470 M193.200 211.049 C 181.075 213.305,170.861 217.252,166.793 221.255 C 166.467 221.575,165.300 222.452,164.200 223.202 C 159.020 226.735,151.016 236.154,147.631 242.701 C 146.374 245.131,145.876 246.228,144.409 249.800 C 143.923 250.985,143.346 252.795,142.879 254.600 C 142.652 255.480,142.280 256.920,142.053 257.800 C 141.205 261.080,141.042 263.192,141.045 270.800 C 141.049 278.115,141.302 280.814,142.399 285.200 C 142.647 286.190,142.949 287.497,143.071 288.105 C 143.193 288.713,143.451 289.308,143.646 289.429 C 143.841 289.549,144.000 289.999,144.000 290.429 C 144.000 290.859,144.158 291.523,144.351 291.905 C 144.544 292.287,145.476 294.220,146.423 296.200 C 159.771 324.131,190.514 337.247,219.800 327.505 C 234.654 322.564,247.613 310.797,254.498 296.000 C 255.369 294.130,256.242 292.287,256.440 291.905 C 256.638 291.523,256.800 290.936,256.800 290.600 C 256.800 290.264,256.962 289.677,257.161 289.295 C 257.497 288.648,257.841 287.454,258.772 283.700 C 260.094 278.370,260.368 265.437,259.270 260.200 C 258.207 255.133,256.947 250.753,255.804 248.149 C 251.389 238.095,244.686 229.224,237.400 223.797 C 236.520 223.141,235.710 222.513,235.600 222.401 C 228.337 215.019,205.183 208.819,193.200 211.049 M185.400 245.600 C 185.536 245.820,185.999 246.000,186.429 246.000 C 187.919 246.000,190.513 247.885,195.039 252.257 C 200.014 257.064,200.090 257.060,205.712 251.621 C 209.403 248.051,212.272 246.000,213.575 246.000 C 214.003 246.000,214.464 245.820,214.600 245.600 C 214.906 245.105,222.547 245.065,223.505 245.554 C 223.887 245.749,225.143 246.319,226.296 246.821 C 228.277 247.683,232.400 251.406,232.400 252.333 C 232.400 252.553,232.542 252.793,232.715 252.867 C 234.342 253.555,235.513 262.592,234.349 265.481 C 232.978 268.886,231.826 270.523,228.201 274.215 C 226.001 276.456,220.150 282.460,215.200 287.556 C 203.035 300.081,201.862 300.750,196.453 298.252 C 195.187 297.667,169.392 271.839,168.038 269.800 C 167.009 268.250,166.596 267.434,165.650 265.081 C 165.068 263.634,165.068 257.965,165.651 256.519 C 168.861 248.548,173.337 245.316,181.276 245.238 C 183.473 245.217,185.260 245.373,185.400 245.600 " stroke="none" fill="#fbf3fb" fill-rule="evenodd"></path><path id="path4" d="M141.732 184.700 C 173.815 184.756,226.195 184.756,258.132 184.700 C 290.070 184.644,263.820 184.597,199.800 184.597 C 135.780 184.597,109.650 184.644,141.732 184.700 M81.522 221.234 C 81.442 221.473,81.527 222.778,81.711 224.134 C 81.894 225.490,82.140 227.635,82.258 228.900 C 82.375 230.165,82.618 231.200,82.799 231.200 C 83.105 231.200,83.223 231.948,83.810 237.600 C 83.936 238.810,84.202 240.160,84.401 240.600 C 84.601 241.040,84.851 242.390,84.958 243.600 C 85.161 245.900,85.758 249.630,86.144 251.000 C 86.407 251.935,86.787 254.848,87.071 258.100 C 87.181 259.365,87.435 260.400,87.636 260.400 C 87.836 260.400,88.000 261.559,88.000 262.976 C 88.000 264.393,88.180 265.664,88.400 265.800 C 88.620 265.936,88.800 267.027,88.800 268.224 C 88.800 269.421,88.980 270.400,89.200 270.400 C 89.420 270.400,89.600 271.379,89.600 272.576 C 89.600 273.773,89.780 274.864,90.000 275.000 C 90.220 275.136,90.400 276.306,90.400 277.600 C 90.400 278.894,90.580 280.064,90.800 280.200 C 91.020 280.336,91.200 281.527,91.200 282.847 C 91.200 284.345,91.350 285.154,91.600 285.000 C 91.850 284.846,92.000 285.655,92.000 287.153 C 92.000 288.473,92.180 289.664,92.400 289.800 C 92.620 289.936,92.800 291.016,92.800 292.200 C 92.800 293.384,92.953 294.447,93.139 294.562 C 93.326 294.678,93.610 296.443,93.770 298.486 C 94.097 302.641,94.141 302.987,94.524 304.400 C 94.674 304.950,94.852 306.037,94.922 306.815 C 94.991 307.593,95.189 308.458,95.361 308.737 C 95.534 309.017,95.724 310.204,95.784 311.375 C 95.844 312.546,95.997 313.671,96.123 313.876 C 96.249 314.080,96.394 315.271,96.445 316.524 C 96.495 317.776,96.686 318.800,96.868 318.800 C 97.051 318.800,97.200 319.250,97.200 319.800 L 97.200 320.800 131.400 320.800 C 169.093 320.800,167.170 320.952,163.417 318.264 C 157.148 313.773,149.756 304.556,146.041 296.600 C 145.117 294.620,144.189 292.687,143.980 292.305 C 143.771 291.923,143.600 291.336,143.600 291.000 C 143.600 290.664,143.442 290.077,143.249 289.695 C 141.587 286.404,140.281 278.234,140.261 271.000 C 140.229 259.334,142.476 250.827,148.405 240.177 C 151.250 235.066,158.404 226.937,163.330 223.218 C 164.579 222.275,165.600 221.346,165.600 221.152 C 165.600 220.612,81.702 220.694,81.522 221.234 M235.200 221.181 C 235.200 221.390,236.020 222.126,237.023 222.816 C 241.503 225.898,249.196 234.580,252.427 240.200 C 254.199 243.281,256.380 247.806,256.390 248.420 C 256.395 248.761,256.551 249.211,256.737 249.420 C 257.295 250.050,259.204 256.819,260.060 261.200 C 260.722 264.590,260.711 277.460,260.044 280.400 C 259.769 281.610,259.268 283.770,258.931 285.200 C 256.015 297.561,248.433 309.398,238.070 317.772 C 236.491 319.047,235.200 320.250,235.200 320.445 C 235.200 320.649,249.594 320.800,269.000 320.800 L 302.800 320.800 302.800 319.800 C 302.800 319.250,302.949 318.800,303.132 318.800 C 303.314 318.800,303.505 317.770,303.556 316.512 C 303.607 315.253,303.795 314.038,303.975 313.812 C 304.155 313.585,304.416 312.410,304.555 311.200 C 304.820 308.885,305.274 305.658,305.990 301.000 C 306.226 299.460,306.504 297.419,306.608 296.464 C 306.712 295.510,306.870 294.610,306.960 294.464 C 307.049 294.319,307.235 293.139,307.373 291.843 C 307.511 290.547,307.735 289.305,307.872 289.083 C 308.009 288.862,308.182 287.942,308.257 287.040 C 308.647 282.334,308.931 280.366,309.249 280.170 C 309.442 280.051,309.600 278.883,309.600 277.576 C 309.600 276.259,309.778 275.200,310.000 275.200 C 310.226 275.200,310.400 274.067,310.400 272.600 C 310.400 271.133,310.574 270.000,310.800 270.000 C 311.020 270.000,311.200 269.111,311.200 268.024 C 311.200 266.937,311.380 265.936,311.600 265.800 C 311.820 265.664,312.000 264.393,312.000 262.976 C 312.000 261.525,312.175 260.400,312.400 260.400 C 312.622 260.400,312.800 259.333,312.800 258.000 C 312.800 256.680,312.964 255.600,313.164 255.600 C 313.365 255.600,313.630 254.565,313.753 253.300 C 314.228 248.427,314.493 246.586,314.774 246.200 C 314.935 245.980,315.112 244.901,315.169 243.803 C 315.226 242.705,315.389 241.625,315.532 241.403 C 315.769 241.036,316.023 239.191,316.650 233.300 C 316.773 232.145,317.037 231.200,317.237 231.200 C 317.437 231.200,317.600 230.019,317.600 228.576 C 317.600 227.100,317.759 226.051,317.964 226.178 C 318.311 226.392,318.800 221.730,318.497 221.100 C 318.278 220.645,235.200 220.725,235.200 221.181 M110.667 350.667 C 110.520 350.813,110.403 351.128,110.406 351.367 C 110.410 351.623,110.543 351.595,110.731 351.298 C 110.985 350.898,129.077 350.817,200.287 350.898 C 249.367 350.954,289.440 350.865,289.338 350.700 C 289.109 350.329,111.037 350.296,110.667 350.667 " stroke="none" fill="#fce4c3" fill-rule="evenodd"></path><path id="path5" d="M172.300 183.900 C 198.315 183.957,240.885 183.957,266.900 183.900 C 292.915 183.843,271.630 183.797,219.600 183.797 C 167.570 183.797,146.285 183.843,172.300 183.900 M180.305 245.883 C 180.802 245.979,181.522 245.975,181.905 245.875 C 182.287 245.775,181.880 245.696,181.000 245.701 C 180.120 245.705,179.807 245.787,180.305 245.883 M218.305 245.883 C 218.802 245.979,219.522 245.975,219.905 245.875 C 220.287 245.775,219.880 245.696,219.000 245.701 C 218.120 245.705,217.807 245.787,218.305 245.883 M170.181 250.500 L 168.600 252.200 170.300 250.619 C 171.881 249.148,172.184 248.800,171.881 248.800 C 171.816 248.800,171.051 249.565,170.181 250.500 M227.389 273.700 L 224.600 276.600 227.500 273.811 C 230.194 271.220,230.583 270.800,230.289 270.800 C 230.228 270.800,228.923 272.105,227.389 273.700 M121.328 351.100 C 127.008 351.162,136.188 351.162,141.728 351.100 C 147.268 351.037,142.620 350.986,131.400 350.986 C 120.180 350.986,115.648 351.037,121.328 351.100 " stroke="none" fill="#d8aa9d" fill-rule="evenodd"></path><path id="path6" d="M247.525 88.299 C 250.893 88.366,256.293 88.366,259.525 88.299 C 262.756 88.232,260.000 88.177,253.400 88.177 C 246.800 88.177,244.156 88.232,247.525 88.299 M113.400 149.098 C 203.465 149.365,321.876 149.369,321.462 149.106 C 321.208 148.944,266.550 148.853,200.000 148.904 C 133.450 148.954,94.480 149.041,113.400 149.098 M140.200 183.494 C 175.429 183.749,316.363 183.772,314.959 183.523 C 314.102 183.371,271.190 183.278,219.600 183.318 C 168.010 183.357,132.280 183.437,140.200 183.494 M95.528 183.900 C 101.098 183.963,110.098 183.962,115.528 183.900 C 120.958 183.837,116.400 183.785,105.400 183.786 C 94.400 183.786,89.958 183.837,95.528 183.900 M178.200 246.249 C 175.721 246.619,173.325 247.891,170.998 250.072 C 165.988 254.767,164.843 261.295,167.925 267.598 C 169.765 271.361,196.068 297.379,198.572 297.913 C 202.114 298.669,203.728 297.895,208.334 293.236 C 220.347 281.084,231.142 269.730,231.907 268.441 C 237.818 258.486,230.749 246.330,219.000 246.247 C 213.671 246.209,211.517 247.268,206.064 252.609 L 202.200 256.393 200.000 256.393 L 197.800 256.394 194.000 252.605 C 188.489 247.109,184.146 245.362,178.200 246.249 M176.200 351.497 C 242.081 351.770,289.106 351.771,288.938 351.500 C 288.836 351.335,257.848 351.244,220.076 351.297 C 182.304 351.350,162.560 351.440,176.200 351.497 " stroke="none" fill="#d4a494" fill-rule="evenodd"></path><path id="path7" d="M139.500 148.700 C 172.775 148.756,227.225 148.756,260.500 148.700 C 293.775 148.644,266.550 148.597,200.000 148.597 C 133.450 148.597,106.225 148.644,139.500 148.700 M143.100 184.300 C 174.835 184.356,226.765 184.356,258.500 184.300 C 290.235 184.243,264.270 184.197,200.800 184.197 C 137.330 184.197,111.365 184.243,143.100 184.300 M189.400 248.254 C 189.620 248.448,190.429 249.145,191.199 249.803 L 192.597 251.000 191.599 249.863 C 191.049 249.238,190.240 248.541,189.800 248.314 C 189.360 248.088,189.180 248.061,189.400 248.254 M207.250 251.073 L 204.200 254.147 207.400 251.187 C 209.160 249.559,210.675 248.176,210.767 248.113 C 210.858 248.051,210.791 248.000,210.616 248.000 C 210.442 248.000,208.927 249.383,207.250 251.073 M170.175 250.100 L 169.000 251.400 170.300 250.225 C 171.512 249.130,171.784 248.800,171.475 248.800 C 171.406 248.800,170.821 249.385,170.175 250.100 M229.600 250.200 C 230.346 250.970,231.047 251.600,231.157 251.600 C 231.267 251.600,230.746 250.970,230.000 250.200 C 229.254 249.430,228.553 248.800,228.443 248.800 C 228.333 248.800,228.854 249.430,229.600 250.200 M234.128 260.800 C 234.128 262.230,234.201 262.815,234.289 262.100 C 234.378 261.385,234.378 260.215,234.289 259.500 C 234.201 258.785,234.128 259.370,234.128 260.800 M165.693 260.800 C 165.693 261.570,165.775 261.885,165.876 261.500 C 165.976 261.115,165.976 260.485,165.876 260.100 C 165.775 259.715,165.693 260.030,165.693 260.800 M182.000 283.400 C 189.368 290.770,195.486 296.800,195.596 296.800 C 195.706 296.800,189.768 290.770,182.400 283.400 C 175.032 276.030,168.914 270.000,168.804 270.000 C 168.694 270.000,174.632 276.030,182.000 283.400 M220.395 281.100 L 213.800 287.800 220.500 281.205 C 226.725 275.077,227.381 274.400,227.095 274.400 C 227.038 274.400,224.023 277.415,220.395 281.100 M185.900 351.100 C 204.875 351.157,235.925 351.157,254.900 351.100 C 273.875 351.043,258.350 350.995,220.400 350.995 C 182.450 350.995,166.925 351.043,185.900 351.100 " stroke="none" fill="#e3baa3" fill-rule="evenodd"></path><path id="path8" d="M241.069 88.700 C 241.578 89.072,244.674 89.200,253.200 89.200 C 261.726 89.200,264.822 89.072,265.331 88.700 C 265.883 88.296,263.550 88.200,253.200 88.200 C 242.850 88.200,240.517 88.296,241.069 88.700 M177.738 245.506 C 177.484 245.668,178.952 245.800,181.000 245.800 C 183.048 245.800,184.516 245.668,184.262 245.506 C 184.008 245.344,182.540 245.212,181.000 245.212 C 179.460 245.212,177.992 245.344,177.738 245.506 M215.738 245.506 C 215.484 245.668,216.952 245.800,219.000 245.800 C 221.048 245.800,222.516 245.668,222.262 245.506 C 222.008 245.344,220.540 245.212,219.000 245.212 C 217.460 245.212,215.992 245.344,215.738 245.506 M171.972 248.162 C 169.509 249.969,166.344 254.140,166.418 255.480 C 166.427 255.656,166.810 255.080,167.267 254.200 C 168.576 251.682,170.693 249.296,172.625 248.164 C 173.601 247.592,174.400 247.051,174.400 246.962 C 174.400 246.557,173.661 246.922,171.972 248.162 M188.000 247.220 C 189.387 248.161,190.178 248.435,189.200 247.636 C 188.650 247.186,188.020 246.817,187.800 246.815 C 187.580 246.813,187.670 246.996,188.000 247.220 M210.800 247.633 L 209.800 248.448 211.100 247.814 C 211.815 247.465,212.400 247.094,212.400 246.990 C 212.400 246.592,211.763 246.848,210.800 247.633 M229.466 249.857 C 230.772 251.146,232.241 253.010,232.730 254.000 C 233.220 254.990,233.502 255.350,233.357 254.800 C 232.882 252.989,229.582 248.872,227.846 247.925 C 227.431 247.699,228.160 248.568,229.466 249.857 M194.453 252.500 C 199.867 257.927,200.131 257.923,205.728 252.336 L 209.800 248.271 205.722 252.136 C 200.587 257.001,199.502 257.168,195.942 253.644 C 195.140 252.850,193.601 251.390,192.522 250.400 C 191.444 249.410,192.312 250.355,194.453 252.500 M233.634 256.400 C 233.646 256.730,233.811 257.360,234.000 257.800 L 234.344 258.600 234.366 257.800 C 234.378 257.360,234.213 256.730,234.000 256.400 C 233.655 255.867,233.615 255.867,233.634 256.400 M165.849 257.015 C 165.712 257.373,165.618 258.146,165.640 258.733 C 165.673 259.591,165.752 259.495,166.046 258.240 C 166.422 256.639,166.295 255.853,165.849 257.015 M234.493 260.800 C 234.493 261.570,234.575 261.885,234.676 261.500 C 234.776 261.115,234.776 260.485,234.676 260.100 C 234.575 259.715,234.493 260.030,234.493 260.800 M165.758 263.547 C 166.185 267.722,167.402 269.235,182.336 284.150 C 197.619 299.413,197.741 299.506,201.662 298.789 C 203.272 298.494,206.646 296.512,206.235 296.102 C 206.104 295.971,205.593 296.232,205.098 296.682 C 203.157 298.450,199.818 298.984,197.319 297.927 C 195.753 297.264,169.380 270.997,168.075 268.800 C 167.486 267.810,166.684 265.830,166.292 264.400 C 165.679 262.165,165.604 262.045,165.758 263.547 M233.800 264.400 C 233.648 265.091,233.614 265.747,233.724 265.857 C 233.834 265.967,234.048 265.491,234.200 264.800 C 234.352 264.109,234.386 263.453,234.276 263.343 C 234.166 263.233,233.952 263.709,233.800 264.400 M232.200 268.531 C 231.459 269.803,226.305 275.338,218.731 282.994 C 211.984 289.815,206.525 295.458,206.600 295.534 C 206.676 295.609,208.597 293.794,210.869 291.498 C 228.667 273.520,231.982 270.034,232.777 268.461 C 234.012 266.017,233.637 266.062,232.200 268.531 " stroke="none" fill="#f4c9c9" fill-rule="evenodd"></path></g></svg>