<?xml version="1.0" encoding="UTF-8" standalone="no"?>
<svg
   width="256px"
   height="256px"
   viewBox="0 0 256 256"
   version="1.1"
   preserveAspectRatio="xMidYMid"
   id="svg8"
   sodipodi:docname="reddit-colour.svg"
   inkscape:version="1.1.2 (0a00cf5339, 2022-02-04)"
   xmlns:inkscape="http://www.inkscape.org/namespaces/inkscape"
   xmlns:sodipodi="http://sodipodi.sourceforge.net/DTD/sodipodi-0.dtd"
   xmlns="http://www.w3.org/2000/svg"
   xmlns:svg="http://www.w3.org/2000/svg">
  <defs
     id="defs12">
    <inkscape:path-effect
       effect="powerclip"
       id="path-effect378"
       is_visible="true"
       lpeversion="1"
       inverse="true"
       flatten="false"
       hide_clip="false"
       message="Use fill-rule evenodd on &lt;b&gt;fill and stroke&lt;/b&gt; dialog if no flatten result after convert clip to paths." />
    <clipPath
       clipPathUnits="userSpaceOnUse"
       id="clipPath374">
      <path
         d="m 213.14987,129.22027 c 0,-10.37654 -8.39111,-18.61689 -18.61689,-18.61689 -5.03467,0 -9.61422,1.98258 -12.97067,5.18826 -12.81707,-9.15626 -30.36729,-15.10684 -49.90009,-15.869151 l 8.54471,-39.981511 27.77316,5.950578 c 0.3072,7.020088 6.10418,12.666311 13.27787,12.666311 7.32444,0 13.27502,-5.950578 13.27502,-13.277867 0,-7.324444 -5.95058,-13.275022 -13.27502,-13.275022 -5.18827,0 -9.76783,3.052089 -11.904,7.478044 l -30.976,-6.562133 c -0.91592,-0.1536 -1.83183,0 -2.44338,0.457955 -0.76231,0.457956 -1.22027,1.220267 -1.37102,2.136178 l -9.46347,44.558218 c -19.83716,0.61156 -37.691734,6.56214 -50.662401,15.872 -3.356445,-3.20568 -7.936,-5.18826 -12.970667,-5.18826 -10.376533,0 -18.616889,8.39111 -18.616889,18.61689 0,7.6288 4.576711,14.03733 10.988089,16.93866 -0.3072,1.82898 -0.457955,3.6608 -0.457955,5.64623 0,28.68622 33.419377,52.03626 74.621153,52.03626 41.20178,0 74.62116,-23.19644 74.62116,-52.03626 0,-1.83183 -0.1536,-3.81725 -0.45796,-5.64623 6.40854,-2.90133 10.98525,-9.46346 10.98525,-17.09226 z"
         id="path376"
         style="display:none" />
      <path
         id="lpe_path-effect378"
         class="powerclip"
         d="M -5,-5 H 261 V 261 H -5 Z m 218.14987,134.22027 c 0,-10.37654 -8.39111,-18.61689 -18.61689,-18.61689 -5.03467,0 -9.61422,1.98258 -12.97067,5.18826 -12.81707,-9.15626 -30.36729,-15.10684 -49.90009,-15.869151 l 8.54471,-39.981511 27.77316,5.950578 c 0.3072,7.020088 6.10418,12.666311 13.27787,12.666311 7.32444,0 13.27502,-5.950578 13.27502,-13.277867 0,-7.324444 -5.95058,-13.275022 -13.27502,-13.275022 -5.18827,0 -9.76783,3.052089 -11.904,7.478044 l -30.976,-6.562133 c -0.91592,-0.1536 -1.83183,0 -2.44338,0.457955 -0.76231,0.457956 -1.22027,1.220267 -1.37102,2.136178 l -9.46347,44.558218 c -19.83716,0.61156 -37.691734,6.56214 -50.662401,15.872 -3.356445,-3.20568 -7.936,-5.18826 -12.970667,-5.18826 -10.376533,0 -18.616889,8.39111 -18.616889,18.61689 0,7.6288 4.576711,14.03733 10.988089,16.93866 -0.3072,1.82898 -0.457955,3.6608 -0.457955,5.64623 0,28.68622 33.419377,52.03626 74.621153,52.03626 41.20178,0 74.62116,-23.19644 74.62116,-52.03626 0,-1.83183 -0.1536,-3.81725 -0.45796,-5.64623 6.40854,-2.90133 10.98525,-9.46346 10.98525,-17.09226 z" />
    </clipPath>
  </defs>
  <sodipodi:namedview
     id="namedview10"
     pagecolor="#ffffff"
     bordercolor="#666666"
     borderopacity="1.0"
     inkscape:pageshadow="2"
     inkscape:pageopacity="0.0"
     inkscape:pagecheckerboard="0"
     showgrid="false"
     showguides="false"
     inkscape:zoom="3.0546875"
     inkscape:cx="61.217391"
     inkscape:cy="128"
     inkscape:window-width="1920"
     inkscape:window-height="980"
     inkscape:window-x="0"
     inkscape:window-y="64"
     inkscape:window-maximized="1"
     inkscape:current-layer="g6" />
  <g
     id="g6">
    <path
       fill="#ff4500"
       id="circle2"
       clip-path="url(#clipPath374)"
       inkscape:path-effect="#path-effect378"
       sodipodi:type="arc"
       sodipodi:cx="128"
       sodipodi:cy="128"
       sodipodi:rx="128"
       sodipodi:ry="128"
       d="M 256,128 A 128,128 0 0 1 128,256 128,128 0 0 1 0,128 128,128 0 0 1 128,0 128,128 0 0 1 256,128 Z" />
    <path
       d="m 157.1456,155.92391 c -7.32444,0 -13.27502,-5.95058 -13.27502,-13.27502 0,-7.32445 5.95058,-13.27502 13.27502,-13.27502 7.32729,0 13.27787,5.95057 13.27787,13.27502 0,7.17084 -5.95058,13.27502 -13.27787,13.27502 z"
       id="path268"
       style="fill:#ff4500;fill-opacity:1" />
    <path
       d="m 159.58898,177.74649 c -9.15627,9.15627 -26.55289,9.76782 -31.58756,9.76782 -5.18826,0 -22.58489,-0.76515 -31.590398,-9.76782 -1.371022,-1.37387 -1.371022,-3.51005 0,-4.88391 1.373867,-1.37102 3.510045,-1.37102 4.883908,0 5.79983,5.79982 18.00818,7.7824 26.70649,7.7824 8.69831,0 21.05742,-1.98258 26.70365,-7.7824 1.37386,-1.37102 3.51004,-1.37102 4.88391,0 1.22026,1.37386 1.22026,3.51004 0,4.88391 z"
       id="path266"
       style="fill:#ff4500;fill-opacity:1" />
    <path
       d="m 85.272178,142.49529 c 0,-7.32445 5.950578,-13.27502 13.277866,-13.27502 7.324446,0 13.275026,5.95057 13.275026,13.27502 0,7.32444 -5.95058,13.27787 -13.275026,13.27787 -7.327288,0.15075 -13.277866,-5.95343 -13.277866,-13.27787 z"
       id="path264"
       style="fill:#ff4500;fill-opacity:1" />
  </g>
</svg>
