<?xml version="1.0" encoding="UTF-8" standalone="no"?>
<svg
   id="svg"
   version="1.1"
   width="400"
   height="521.4814814814814"
   viewBox="0, 0, 400,521.4814814814814"
   sodipodi:docname="tfs-colour.svg"
   inkscape:version="1.1.2 (0a00cf5339, 2022-02-04)"
   xmlns:inkscape="http://www.inkscape.org/namespaces/inkscape"
   xmlns:sodipodi="http://sodipodi.sourceforge.net/DTD/sodipodi-0.dtd"
   xmlns="http://www.w3.org/2000/svg"
   xmlns:svg="http://www.w3.org/2000/svg">
  <defs
     id="defs15" />
  <sodipodi:namedview
     id="namedview13"
     pagecolor="#ffffff"
     bordercolor="#666666"
     borderopacity="1.0"
     inkscape:pageshadow="2"
     inkscape:pageopacity="0.0"
     inkscape:pagecheckerboard="0"
     showgrid="false"
     inkscape:zoom="1.4995738"
     inkscape:cx="199.72342"
     inkscape:cy="260.74075"
     inkscape:window-width="1920"
     inkscape:window-height="980"
     inkscape:window-x="0"
     inkscape:window-y="64"
     inkscape:window-maximized="1"
     inkscape:current-layer="svg" />
  <g
     id="svgg">
    <path
       id="path0"
       d="M219.102 0.700 C 218.240 1.669,217.605 4.205,217.602 6.685 C 217.601 7.869,217.235 9.684,216.755 10.885 C 215.359 14.375,215.212 15.159,214.811 21.200 C 214.497 25.924,214.236 27.462,213.401 29.490 C 212.579 31.489,212.295 33.109,211.969 37.690 C 211.647 42.192,211.316 44.119,210.404 46.800 C 209.470 49.543,209.172 51.330,208.863 56.043 C 208.619 59.756,208.262 62.308,207.882 63.043 C 206.812 65.114,206.354 67.581,206.001 73.188 C 205.713 77.748,205.470 79.133,204.590 81.224 C 203.740 83.242,203.449 84.804,203.143 88.976 C 202.718 94.763,202.436 96.343,201.237 99.654 C 200.671 101.217,200.302 103.689,200.032 107.715 C 199.720 112.380,199.451 113.980,198.662 115.860 C 197.630 118.319,196.803 123.674,196.801 127.908 C 196.800 129.616,196.500 131.154,195.859 132.733 C 194.639 135.734,194.412 137.034,194.006 143.355 C 193.752 147.308,193.459 149.068,192.816 150.500 C 192.347 151.545,191.710 153.835,191.402 155.590 C 190.825 158.868,190.763 158.985,185.000 167.561 C 184.560 168.215,182.792 170.415,181.070 172.450 C 179.349 174.484,177.594 176.828,177.170 177.659 C 176.746 178.490,174.464 181.579,172.100 184.523 C 169.735 187.467,167.260 190.636,166.600 191.565 C 165.940 192.494,164.831 193.960,164.135 194.822 C 163.440 195.685,162.459 197.068,161.956 197.895 C 161.453 198.723,160.200 200.390,159.171 201.600 C 158.142 202.810,156.826 204.520,156.248 205.400 C 155.669 206.280,154.377 207.990,153.375 209.200 C 152.374 210.410,151.082 212.210,150.505 213.200 C 149.929 214.190,148.531 216.080,147.400 217.400 C 145.316 219.833,142.859 223.071,139.610 227.667 C 138.625 229.060,136.354 232.005,134.563 234.211 C 132.772 236.417,130.698 239.137,129.954 240.256 C 127.853 243.412,125.471 246.689,122.580 250.400 C 118.218 256.001,115.671 259.445,114.504 261.322 C 113.897 262.299,111.899 264.876,110.064 267.049 C 108.230 269.222,106.360 271.720,105.909 272.600 C 105.459 273.480,103.522 276.090,101.605 278.400 C 99.688 280.710,97.637 283.371,97.047 284.313 C 96.457 285.254,95.125 287.116,94.087 288.448 C 93.049 289.781,91.660 291.625,91.000 292.545 C 89.617 294.473,85.382 299.946,83.683 302.000 C 83.046 302.770,81.564 304.840,80.390 306.600 C 79.215 308.360,77.503 310.700,76.584 311.800 C 72.710 316.438,70.684 319.084,69.997 320.400 C 69.595 321.170,67.246 324.320,64.778 327.400 C 62.310 330.480,59.822 333.720,59.250 334.600 C 58.678 335.480,57.128 337.608,55.805 339.329 C 49.771 347.181,45.496 353.054,43.758 355.879 C 43.295 356.632,42.287 357.912,41.519 358.724 C 39.143 361.233,35.742 365.714,34.811 367.558 C 34.324 368.525,32.326 371.178,30.373 373.453 C 28.419 375.729,26.450 378.268,25.997 379.096 C 25.544 379.923,24.447 381.500,23.559 382.600 C 22.010 384.520,16.178 392.103,13.914 395.142 C 12.841 396.582,11.032 399.046,8.103 403.057 C 7.276 404.189,5.770 406.169,4.756 407.457 C 3.741 408.746,2.440 410.732,1.863 411.872 C 1.287 413.011,0.632 414.057,0.408 414.195 C 0.140 414.361,-0.002 421.392,-0.006 434.724 L -0.013 455.000 5.094 459.900 C 8.675 463.337,10.976 465.201,12.800 466.142 C 14.230 466.881,16.120 467.860,17.000 468.320 C 17.880 468.779,19.680 469.508,21.000 469.940 C 22.320 470.372,24.381 471.087,25.580 471.528 C 27.028 472.062,29.311 472.419,32.380 472.594 C 35.920 472.796,37.802 473.129,40.433 474.018 C 43.156 474.938,45.020 475.255,49.449 475.549 C 53.083 475.790,55.585 476.156,56.616 476.599 C 59.466 477.823,60.529 478.023,66.336 478.424 C 70.890 478.738,72.546 479.020,74.376 479.790 C 76.834 480.825,81.771 481.600,85.899 481.600 C 87.450 481.600,89.301 481.920,90.710 482.431 C 94.814 483.921,95.331 484.020,101.182 484.442 C 105.792 484.774,107.440 485.059,109.318 485.850 C 111.194 486.639,112.823 486.921,117.336 487.239 C 120.451 487.457,123.810 487.915,124.800 488.255 C 128.841 489.644,130.817 490.015,136.000 490.359 C 139.507 490.591,141.993 490.960,143.016 491.399 C 145.857 492.619,146.925 492.822,152.578 493.214 C 156.970 493.519,158.502 493.782,159.778 494.452 C 162.404 495.830,163.507 496.051,169.400 496.381 C 174.286 496.654,175.297 496.833,177.327 497.788 C 179.362 498.746,180.489 498.945,186.327 499.377 C 191.760 499.778,193.317 500.033,194.707 500.747 C 196.675 501.757,200.722 502.368,205.600 502.392 C 208.341 502.405,209.406 502.597,211.093 503.382 C 213.881 504.680,216.908 505.198,221.773 505.210 C 225.970 505.219,227.054 505.408,230.944 506.800 C 232.568 507.381,235.064 507.764,239.070 508.045 C 243.208 508.335,245.374 508.674,246.687 509.237 C 249.384 510.393,251.457 510.774,257.328 511.189 C 261.474 511.482,263.124 511.779,265.054 512.578 C 267.044 513.402,268.635 513.674,273.454 514.014 C 278.225 514.350,279.906 514.635,281.960 515.453 C 284.005 516.268,285.824 516.578,290.991 516.993 C 295.841 517.383,297.855 517.710,299.031 518.299 C 301.135 519.353,302.446 519.578,308.880 519.995 C 311.894 520.191,314.717 520.542,315.154 520.775 C 315.696 521.066,327.031 521.200,350.980 521.200 L 386.012 521.200 388.183 519.759 C 390.315 518.343,393.670 514.605,396.498 510.493 C 397.918 508.430,398.800 505.578,398.800 503.053 C 398.800 502.334,399.077 500.811,399.416 499.670 C 399.906 498.022,400.001 496.008,399.880 489.897 C 399.718 481.719,399.628 481.182,396.996 472.600 C 396.254 470.180,395.533 467.480,395.394 466.600 C 395.254 465.720,394.693 464.229,394.146 463.287 C 393.599 462.345,392.972 460.463,392.754 459.104 C 392.535 457.745,391.849 455.456,391.230 454.017 C 390.611 452.577,389.885 450.230,389.617 448.800 C 389.349 447.370,388.606 445.000,387.965 443.533 C 387.324 442.066,386.800 440.552,386.800 440.168 C 386.800 439.784,386.187 437.654,385.438 435.435 C 384.690 433.216,383.873 430.410,383.624 429.200 C 383.375 427.990,382.750 426.190,382.235 425.200 C 381.719 424.210,381.078 422.320,380.810 421.000 C 380.542 419.680,379.896 417.520,379.375 416.200 C 378.854 414.880,378.154 412.491,377.818 410.891 C 377.482 409.291,376.837 407.257,376.385 406.370 C 375.932 405.483,375.198 403.296,374.754 401.509 C 374.309 399.722,373.584 397.554,373.144 396.690 C 372.703 395.826,372.166 394.012,371.951 392.660 C 371.735 391.307,371.044 389.120,370.415 387.800 C 369.786 386.480,369.145 384.590,368.990 383.600 C 368.836 382.610,368.269 380.720,367.730 379.400 C 367.190 378.080,366.404 375.406,365.981 373.457 C 365.558 371.509,364.861 369.345,364.431 368.650 C 364.001 367.954,363.382 366.104,363.055 364.537 C 362.729 362.971,362.108 360.994,361.676 360.144 C 361.244 359.295,360.584 357.070,360.210 355.200 C 359.836 353.330,359.120 351.080,358.620 350.200 C 358.120 349.320,357.422 347.300,357.069 345.710 C 356.716 344.121,356.080 342.141,355.656 341.310 C 355.233 340.480,354.586 338.197,354.218 336.239 C 353.851 334.280,353.122 331.830,352.597 330.795 C 352.073 329.760,351.377 327.762,351.051 326.356 C 350.724 324.950,350.074 322.905,349.605 321.812 C 349.136 320.718,348.505 318.529,348.202 316.947 C 347.900 315.364,347.294 313.368,346.857 312.511 C 346.419 311.654,345.771 309.793,345.416 308.376 C 345.061 306.959,344.327 304.787,343.784 303.548 C 343.242 302.310,342.526 299.733,342.193 297.822 C 341.859 295.911,341.139 293.463,340.591 292.382 C 340.043 291.301,339.394 289.468,339.148 288.309 C 338.902 287.149,338.255 285.316,337.711 284.236 C 337.167 283.156,336.554 281.086,336.350 279.636 C 336.145 278.186,335.462 275.896,334.832 274.547 C 334.202 273.198,333.555 271.308,333.395 270.347 C 333.235 269.386,332.612 267.340,332.010 265.800 C 331.409 264.260,330.697 261.830,330.427 260.400 C 330.158 258.970,329.490 257.029,328.944 256.087 C 328.398 255.145,327.774 253.255,327.557 251.887 C 327.340 250.519,326.663 248.410,326.053 247.200 C 325.419 245.942,324.730 243.630,324.446 241.800 C 324.172 240.040,323.443 237.520,322.827 236.200 C 322.212 234.880,321.604 233.119,321.477 232.286 C 321.350 231.453,320.774 229.743,320.197 228.486 C 319.621 227.229,318.877 224.774,318.546 223.030 C 318.214 221.287,317.522 219.029,317.007 218.014 C 316.493 216.999,315.883 215.150,315.653 213.905 C 315.423 212.661,314.793 210.771,314.253 209.705 C 313.713 208.640,312.992 206.147,312.650 204.166 C 312.308 202.184,311.571 199.530,311.012 198.266 C 310.454 197.003,309.808 195.121,309.577 194.085 C 309.346 193.048,308.707 191.244,308.156 190.077 C 307.605 188.909,306.906 186.538,306.601 184.808 C 306.297 183.078,305.661 180.904,305.188 179.976 C 304.197 178.034,304.274 176.624,305.561 173.115 C 306.148 171.514,306.524 169.075,306.816 164.965 C 307.146 160.317,307.433 158.623,308.196 156.809 C 309.223 154.370,309.989 149.493,310.018 145.210 C 310.027 143.775,310.310 141.880,310.646 141.000 C 312.099 137.197,312.436 135.513,312.816 130.159 C 313.135 125.675,313.428 123.976,314.223 122.021 C 315.024 120.049,315.331 118.244,315.746 113.075 C 316.074 108.980,316.491 106.159,316.879 105.400 C 317.866 103.469,318.390 100.563,318.788 94.800 C 319.085 90.502,319.370 88.897,320.183 86.934 C 321.012 84.932,321.278 83.383,321.593 78.706 C 321.895 74.226,322.202 72.360,322.974 70.309 C 324.015 67.542,324.800 62.580,324.800 58.763 C 324.800 57.322,325.242 55.165,326.022 52.797 C 326.993 49.852,327.321 47.959,327.613 43.617 C 327.895 39.420,328.211 37.533,328.973 35.510 C 330.022 32.722,330.800 27.775,330.800 23.888 C 330.800 15.432,325.529 12.113,314.154 13.409 L 311.400 13.723 313.200 14.222 C 314.489 14.580,314.716 14.734,314.000 14.767 C 313.419 14.793,313.189 14.935,313.453 15.106 C 313.701 15.268,313.904 15.871,313.903 16.446 C 313.901 17.022,314.217 18.447,314.605 19.614 C 315.509 22.336,315.226 26.905,313.874 31.400 C 313.327 33.217,312.705 36.812,312.435 39.719 C 312.172 42.534,311.587 46.224,311.135 47.919 C 310.160 51.569,309.807 53.637,309.243 59.000 C 309.012 61.200,308.455 64.350,308.006 66.000 C 307.556 67.650,306.918 71.340,306.588 74.200 C 306.259 77.060,305.536 81.280,304.983 83.578 C 304.430 85.876,303.801 89.476,303.585 91.578 C 303.125 96.053,302.624 98.955,301.785 102.000 C 301.452 103.210,300.911 106.540,300.584 109.400 C 300.256 112.260,299.549 116.426,299.012 118.658 C 298.475 120.889,297.841 124.669,297.604 127.058 C 297.366 129.446,296.728 133.258,296.186 135.530 C 295.644 137.801,295.017 141.311,294.793 143.330 C 294.253 148.176,293.695 151.230,292.977 153.266 C 292.653 154.183,292.120 157.488,291.792 160.611 C 291.464 163.733,290.802 167.708,290.321 169.444 C 288.956 174.367,288.901 179.297,290.168 183.115 C 290.731 184.812,291.541 187.460,291.968 189.000 C 292.395 190.540,293.224 193.240,293.810 195.000 C 294.396 196.760,295.597 200.540,296.479 203.400 C 297.361 206.260,298.440 209.590,298.878 210.800 C 299.315 212.010,300.095 214.530,300.611 216.400 C 301.127 218.270,301.927 220.880,302.388 222.200 C 302.850 223.520,303.490 225.732,303.812 227.116 C 304.133 228.500,304.669 230.160,305.003 230.806 C 305.337 231.451,306.048 233.559,306.583 235.490 C 307.557 239.005,308.747 242.784,310.647 248.400 C 311.205 250.050,312.081 253.041,312.593 255.047 C 313.105 257.053,313.789 259.213,314.112 259.847 C 314.434 260.481,315.011 262.260,315.392 263.800 C 315.773 265.340,316.508 267.680,317.025 269.000 C 317.541 270.320,318.249 272.570,318.598 274.000 C 318.947 275.430,319.583 277.500,320.010 278.600 C 320.438 279.700,321.070 281.842,321.416 283.361 C 321.762 284.879,322.382 286.780,322.792 287.585 C 323.203 288.389,323.833 290.207,324.193 291.624 C 324.553 293.041,325.458 296.090,326.205 298.400 C 326.952 300.710,327.817 303.410,328.128 304.400 C 328.439 305.390,328.980 307.010,329.330 308.000 C 329.681 308.990,330.708 312.320,331.612 315.400 C 332.517 318.480,333.616 322.080,334.055 323.400 C 334.495 324.720,335.290 327.240,335.824 329.000 C 337.040 333.016,339.064 339.457,340.096 342.600 C 343.244 352.183,344.806 357.411,345.371 360.256 C 345.683 361.826,346.294 363.807,346.727 364.658 C 347.161 365.509,347.724 367.013,347.978 368.002 C 348.636 370.570,350.649 377.133,352.210 381.800 C 352.946 384.000,354.292 388.320,355.203 391.400 C 356.113 394.480,357.455 398.800,358.185 401.000 C 360.036 406.582,362.278 413.860,362.805 416.000 C 363.048 416.990,363.675 418.970,364.197 420.400 C 364.719 421.830,365.987 425.790,367.015 429.200 C 368.043 432.610,369.243 436.390,369.683 437.600 C 370.123 438.810,370.913 441.330,371.438 443.200 C 371.963 445.070,372.826 447.860,373.354 449.400 C 374.649 453.173,377.201 461.378,379.203 468.200 C 380.106 471.280,381.364 475.240,381.997 477.000 C 390.732 501.271,377.620 516.861,352.800 511.713 C 350.490 511.234,346.530 510.551,344.000 510.196 C 341.470 509.841,337.870 509.214,336.000 508.804 C 334.130 508.393,330.445 507.763,327.811 507.403 C 325.177 507.042,321.037 506.325,318.611 505.808 C 316.185 505.291,312.490 504.657,310.400 504.400 C 308.310 504.143,304.620 503.512,302.200 502.999 C 299.780 502.485,295.665 501.771,293.056 501.412 C 290.447 501.054,286.217 500.336,283.656 499.817 C 281.095 499.299,277.920 498.758,276.600 498.615 C 274.118 498.346,270.251 497.662,265.400 496.633 C 263.860 496.306,260.980 495.842,259.000 495.600 C 257.020 495.358,253.240 494.714,250.600 494.168 C 247.960 493.621,243.733 492.902,241.207 492.569 C 236.506 491.950,231.086 490.849,222.600 488.788 C 219.960 488.147,216.180 487.419,214.200 487.170 C 212.220 486.921,208.503 486.295,205.941 485.778 C 203.378 485.262,199.148 484.547,196.541 484.191 C 193.933 483.834,190.270 483.207,188.400 482.798 C 186.530 482.388,183.020 481.771,180.600 481.428 C 178.180 481.084,173.770 480.360,170.800 479.819 C 167.830 479.277,162.520 478.543,159.000 478.186 C 155.480 477.829,150.170 477.028,147.200 476.405 C 144.230 475.783,140.000 475.064,137.800 474.808 C 135.600 474.551,131.820 473.912,129.400 473.386 C 126.980 472.861,122.840 472.143,120.200 471.791 C 117.560 471.439,113.870 470.812,112.000 470.398 C 110.130 469.984,105.990 469.265,102.800 468.800 C 99.610 468.335,95.466 467.614,93.590 467.197 C 91.715 466.780,88.475 466.236,86.390 465.988 C 84.306 465.740,80.620 465.116,78.200 464.601 C 75.780 464.086,71.640 463.369,69.000 463.008 C 66.360 462.647,62.220 461.926,59.800 461.406 C 57.380 460.886,54.230 460.339,52.800 460.191 C 51.370 460.043,47.050 459.325,43.200 458.596 C 39.350 457.867,34.850 457.083,33.200 456.854 C 11.406 453.832,2.764 433.142,17.048 418.180 C 20.891 414.155,21.866 412.886,22.227 411.441 C 22.589 409.990,26.782 403.802,30.810 398.775 C 32.495 396.671,34.787 393.611,35.903 391.975 C 37.018 390.339,38.838 387.830,39.948 386.400 C 41.057 384.970,43.624 381.550,45.652 378.800 C 47.680 376.050,50.568 372.180,52.070 370.200 C 59.660 360.195,61.164 358.196,63.126 355.510 C 64.295 353.910,65.965 351.700,66.838 350.600 C 67.710 349.500,69.858 346.620,71.611 344.200 C 74.419 340.324,79.592 333.371,83.219 328.600 C 83.888 327.720,85.558 325.470,86.929 323.600 C 88.301 321.730,90.782 318.490,92.444 316.400 C 94.106 314.310,95.988 311.790,96.626 310.800 C 97.264 309.810,99.417 306.930,101.411 304.400 C 103.404 301.870,106.241 298.090,107.716 296.000 C 109.190 293.910,111.252 291.092,112.298 289.738 C 113.344 288.384,116.270 284.443,118.800 280.981 C 121.330 277.519,124.488 273.317,125.819 271.643 C 127.149 269.969,129.394 266.980,130.808 265.000 C 132.222 263.020,134.668 259.779,136.244 257.798 C 137.820 255.817,139.985 252.926,141.055 251.374 C 142.883 248.722,150.735 238.211,159.800 226.280 C 162.000 223.384,165.150 219.170,166.800 216.915 C 168.450 214.660,171.339 210.787,173.220 208.308 C 179.604 199.894,186.257 191.017,189.490 186.600 C 192.155 182.958,195.441 178.578,198.000 175.257 C 203.926 167.567,205.952 164.173,206.445 161.113 C 206.659 159.783,207.256 157.683,207.771 156.447 C 208.516 154.659,208.799 152.898,209.155 147.833 C 209.533 142.451,209.760 141.122,210.623 139.237 C 211.469 137.389,211.708 136.051,212.019 131.404 C 212.485 124.455,212.606 123.740,213.763 121.115 C 214.488 119.471,214.757 117.930,214.971 114.200 C 215.316 108.187,215.844 105.075,216.852 103.098 C 217.449 101.927,217.733 100.177,218.021 95.876 C 218.581 87.547,218.616 87.431,222.499 81.228 C 223.295 79.956,223.381 79.103,223.664 69.628 C 224.019 57.746,224.516 52.945,225.653 50.416 C 226.247 49.096,226.622 46.851,227.026 42.200 C 227.582 35.797,227.801 34.620,228.917 32.000 C 229.246 31.230,229.714 28.185,229.958 25.234 C 230.310 20.972,230.611 19.411,231.420 17.643 C 232.139 16.073,232.498 14.473,232.638 12.209 C 232.975 6.783,233.191 5.735,234.218 4.541 C 234.758 3.913,235.199 3.272,235.200 3.116 C 235.201 2.403,237.068 1.200,238.175 1.198 L 239.400 1.195 238.254 0.598 C 236.414 -0.362,219.968 -0.274,219.102 0.700 "
       stroke="none"
       fill="#0f0f0f"
       fill-rule="evenodd" />
    <path
       id="path1"
       d="M288.570 20.514 C 288.113 20.781,287.123 21.588,286.370 22.307 C 285.616 23.026,284.195 24.202,283.210 24.920 C 273.536 31.975,281.021 46.548,292.175 42.375 C 298.746 39.916,300.530 32.945,296.204 26.628 C 295.238 25.217,294.084 23.348,293.639 22.475 C 292.548 20.338,290.335 19.481,288.570 20.514 M235.800 66.951 C 234.920 67.250,233.045 68.051,231.634 68.731 C 230.223 69.410,228.935 69.883,228.771 69.782 C 228.295 69.488,226.411 71.964,226.646 72.575 C 226.763 72.879,226.561 75.144,226.199 77.608 C 225.544 82.057,225.770 84.400,226.855 84.400 C 227.052 84.400,228.055 85.304,229.085 86.408 C 237.297 95.215,250.966 90.467,250.988 78.800 C 251.004 70.644,243.088 64.468,235.800 66.951 M249.209 220.239 C 233.211 226.070,235.979 248.553,252.861 249.891 C 266.285 250.955,274.064 234.565,264.947 224.426 C 261.320 220.391,254.077 218.464,249.209 220.239 M144.780 287.720 C 134.219 290.714,130.854 305.460,138.979 313.145 C 149.081 322.699,165.505 315.329,164.706 301.600 C 164.117 291.475,154.693 284.910,144.780 287.720 M339.200 366.012 C 337.444 366.986,332.553 369.247,329.400 370.544 C 328.080 371.086,325.020 372.362,322.600 373.379 C 315.002 376.572,299.170 382.000,297.455 382.000 C 297.187 382.000,294.635 382.702,291.782 383.560 C 288.930 384.418,283.807 385.578,280.398 386.137 C 260.914 389.334,258.671 388.985,261.495 383.198 C 266.247 373.459,258.951 364.423,248.776 367.444 C 242.466 369.318,240.004 376.487,243.368 383.190 C 246.571 389.573,245.347 390.256,231.448 389.850 C 226.581 389.708,214.500 389.427,204.600 389.226 C 194.700 389.025,183.000 388.678,178.600 388.456 C 160.212 387.525,155.943 387.400,142.600 387.400 C 134.779 387.400,126.128 387.618,123.000 387.894 C 119.920 388.166,115.240 388.575,112.600 388.803 C 104.182 389.531,93.966 391.155,90.200 392.364 C 88.220 393.000,84.080 394.273,81.000 395.194 C 67.068 399.359,51.662 404.649,46.400 407.075 C 45.630 407.430,43.740 408.216,42.200 408.822 C 38.424 410.308,33.770 412.256,31.704 413.214 C 30.772 413.646,29.269 414.000,28.365 414.000 C 26.071 414.000,24.402 414.921,23.000 416.959 C 22.340 417.919,20.693 420.064,19.341 421.726 C 12.278 430.408,12.944 440.547,21.000 447.010 C 26.371 451.318,25.461 451.093,63.800 457.600 C 67.540 458.235,75.460 459.590,81.400 460.610 C 87.340 461.631,94.450 462.821,97.200 463.253 C 99.950 463.686,104.450 464.471,107.200 464.998 C 109.950 465.524,113.100 466.070,114.200 466.211 C 115.300 466.351,118.990 466.983,122.400 467.614 C 125.810 468.245,131.390 469.223,134.800 469.787 C 138.210 470.352,144.600 471.441,149.000 472.207 C 158.619 473.884,163.547 474.595,169.400 475.151 C 171.820 475.380,175.219 475.944,176.954 476.404 C 178.689 476.863,182.739 477.574,185.954 477.983 C 189.169 478.393,193.264 479.102,195.054 479.560 C 196.843 480.018,200.173 480.588,202.454 480.827 C 204.734 481.065,208.940 481.768,211.800 482.388 C 214.660 483.009,218.260 483.644,219.800 483.800 C 221.340 483.957,224.108 484.521,225.951 485.055 C 227.794 485.589,231.034 486.304,233.151 486.643 C 235.268 486.982,239.430 487.689,242.400 488.214 C 245.370 488.740,251.580 489.816,256.200 490.606 C 260.820 491.396,268.290 492.676,272.800 493.450 C 277.310 494.225,282.710 495.130,284.800 495.461 C 286.890 495.793,291.030 496.516,294.000 497.068 C 296.970 497.619,301.650 498.415,304.400 498.836 C 307.150 499.257,312.370 500.135,316.000 500.787 C 319.630 501.439,326.290 502.606,330.800 503.380 C 335.310 504.154,342.600 505.436,347.000 506.229 C 362.895 509.095,369.358 508.497,375.570 503.586 C 380.596 499.613,382.176 488.910,378.874 481.200 C 378.545 480.430,377.870 478.450,377.375 476.800 C 376.880 475.150,376.110 472.720,375.665 471.400 C 375.220 470.080,374.020 466.210,372.999 462.800 C 371.978 459.390,370.538 454.800,369.800 452.600 C 369.062 450.400,367.805 446.350,367.006 443.600 C 366.208 440.850,365.043 437.160,364.418 435.400 C 363.793 433.640,362.435 429.410,361.401 426.000 C 360.366 422.590,358.812 417.550,357.947 414.800 C 357.082 412.050,355.733 407.730,354.950 405.200 C 354.166 402.670,353.164 399.520,352.722 398.200 C 351.979 395.980,350.561 391.355,348.186 383.400 C 347.660 381.640,346.709 378.760,346.071 377.000 C 345.433 375.240,344.496 372.090,343.989 370.000 C 342.796 365.088,342.025 364.445,339.200 366.012 "
       stroke="none"
       fill="#c4b3fb"
       fill-rule="evenodd" />
    <path
       id="path3"
       d="M225.039 73.700 C 224.666 76.160,224.477 81.024,224.797 79.939 C 225.207 78.547,225.748 72.400,225.460 72.400 C 225.337 72.400,225.148 72.985,225.039 73.700 M344.417 365.742 C 344.390 366.913,345.476 370.902,347.589 377.400 C 348.662 380.700,350.386 386.190,351.420 389.600 C 352.454 393.010,353.800 397.330,354.410 399.200 C 355.021 401.070,357.089 407.640,359.008 413.800 C 360.926 419.960,363.720 428.870,365.217 433.600 C 366.713 438.330,369.231 446.340,370.813 451.400 C 372.394 456.460,375.187 465.280,377.019 471.000 C 382.563 488.303,382.790 489.680,381.201 496.308 C 379.551 503.191,375.294 507.131,367.448 509.035 C 364.821 509.672,366.705 509.783,369.604 509.162 C 373.868 508.247,380.095 502.888,381.527 498.901 C 383.021 494.742,382.463 483.277,380.587 479.574 C 380.039 478.492,379.312 476.408,378.972 474.943 C 378.632 473.478,378.025 471.631,377.622 470.839 C 377.219 470.048,376.581 467.870,376.203 466.000 C 375.825 464.130,375.096 461.598,374.584 460.373 C 374.071 459.148,373.372 456.939,373.029 455.465 C 372.687 453.990,372.034 452.051,371.578 451.157 C 371.121 450.262,370.485 448.158,370.165 446.480 C 369.844 444.803,369.150 442.490,368.624 441.340 C 368.098 440.190,367.457 438.237,367.200 437.000 C 366.943 435.763,366.297 433.797,365.764 432.633 C 365.230 431.468,364.600 429.454,364.363 428.158 C 364.125 426.861,363.422 424.630,362.800 423.200 C 362.178 421.770,361.482 419.581,361.255 418.336 C 361.027 417.091,360.399 415.021,359.859 413.736 C 359.319 412.451,358.656 410.230,358.386 408.800 C 358.117 407.370,357.397 405.030,356.788 403.600 C 356.178 402.170,355.461 399.920,355.194 398.600 C 354.926 397.280,354.354 395.505,353.923 394.656 C 353.491 393.806,352.872 391.833,352.546 390.270 C 352.220 388.707,351.443 386.252,350.818 384.814 C 350.194 383.376,349.556 381.390,349.400 380.400 C 349.244 379.410,348.614 377.430,348.001 376.000 C 347.387 374.570,346.673 372.140,346.414 370.600 C 345.953 367.847,344.452 364.197,344.417 365.742 M19.640 417.880 C 14.119 423.835,11.503 430.525,12.164 437.000 C 12.807 443.303,20.289 451.140,27.400 452.958 C 28.720 453.296,30.849 453.933,32.130 454.375 C 33.412 454.817,37.079 455.465,40.280 455.816 C 43.481 456.166,47.202 456.804,48.550 457.232 C 49.897 457.661,53.970 458.364,57.600 458.794 C 61.230 459.224,65.332 459.939,66.716 460.382 C 68.099 460.825,71.833 461.461,75.013 461.795 C 78.192 462.129,82.280 462.828,84.097 463.350 C 85.914 463.871,89.740 464.509,92.600 464.767 C 95.661 465.044,99.116 465.634,101.000 466.203 C 104.035 467.120,110.429 468.038,113.284 467.967 C 115.381 467.915,107.285 466.131,101.664 465.406 C 98.914 465.051,95.167 464.412,93.337 463.985 C 91.508 463.559,87.803 462.925,85.105 462.577 C 82.407 462.230,78.580 461.586,76.600 461.148 C 74.620 460.709,70.513 459.999,67.473 459.570 C 64.433 459.141,60.293 458.420,58.273 457.967 C 56.253 457.515,52.449 456.877,49.820 456.550 C 47.192 456.223,43.518 455.601,41.657 455.167 C 39.795 454.733,36.366 454.097,34.036 453.753 C 26.823 452.691,24.266 451.588,19.497 447.484 C 14.169 442.898,12.744 439.464,13.527 433.099 C 14.341 426.488,15.285 424.398,19.808 419.200 C 24.317 414.017,24.185 412.977,19.640 417.880 M116.600 468.569 C 117.700 468.882,119.133 469.342,119.785 469.591 C 120.436 469.840,123.561 470.316,126.728 470.647 C 129.895 470.978,133.592 471.601,134.944 472.030 C 136.295 472.460,140.370 473.158,144.000 473.580 C 147.630 474.003,151.365 474.623,152.301 474.957 C 155.008 475.925,158.181 476.344,164.400 476.556 C 169.086 476.715,169.662 476.681,167.400 476.380 C 165.860 476.175,162.260 475.651,159.400 475.217 C 156.540 474.783,152.760 474.225,151.000 473.977 C 149.240 473.729,146.331 473.180,144.536 472.757 C 142.741 472.333,139.051 471.713,136.336 471.379 C 133.621 471.044,129.870 470.423,128.000 469.999 C 123.822 469.050,120.604 468.522,117.200 468.226 L 114.600 468.001 116.600 468.569 M174.178 477.991 C 177.004 478.959,178.643 479.256,181.978 479.401 L 186.200 479.585 183.200 479.019 C 181.550 478.708,178.940 478.184,177.400 477.854 C 171.451 476.582,170.219 476.634,174.178 477.991 M188.600 480.191 C 194.834 481.980,196.559 482.305,200.800 482.487 C 203.330 482.596,204.770 482.609,204.000 482.517 C 203.230 482.425,199.990 481.836,196.800 481.209 C 193.610 480.582,190.010 479.968,188.800 479.843 L 186.600 479.617 188.600 480.191 M208.198 483.837 C 210.987 484.810,216.360 485.632,219.400 485.550 C 221.222 485.501,221.428 485.554,213.320 483.980 C 206.023 482.564,204.424 482.519,208.198 483.837 M222.460 486.026 C 223.262 486.215,224.612 486.731,225.460 487.170 C 226.420 487.669,228.806 488.197,231.800 488.573 C 234.440 488.904,237.850 489.538,239.378 489.982 C 240.906 490.425,244.750 491.072,247.919 491.420 C 251.089 491.767,254.858 492.415,256.295 492.859 C 257.733 493.303,261.719 493.996,265.154 494.399 C 268.590 494.803,271.919 495.333,272.553 495.577 C 274.519 496.333,276.790 496.732,282.800 497.374 C 285.990 497.715,289.770 498.365,291.200 498.818 C 293.374 499.508,303.172 500.866,305.200 500.760 C 306.420 500.696,295.271 498.427,291.600 497.993 C 289.510 497.745,286.180 497.189,284.200 496.757 C 282.220 496.325,278.080 495.618,275.000 495.186 C 271.920 494.753,267.330 493.965,264.800 493.433 C 262.270 492.901,258.130 492.181,255.600 491.834 C 253.070 491.486,249.384 490.849,247.410 490.417 C 245.435 489.985,242.105 489.432,240.010 489.186 C 237.914 488.941,233.055 488.034,229.210 487.170 C 225.366 486.307,221.946 485.618,221.610 485.640 C 221.275 485.662,221.657 485.836,222.460 486.026 M308.000 501.629 C 309.301 502.119,312.817 502.765,316.600 503.208 C 320.120 503.621,324.206 504.332,325.681 504.789 C 327.155 505.246,330.845 505.883,333.881 506.205 C 336.916 506.527,340.660 507.156,342.200 507.603 C 344.942 508.399,353.817 509.640,356.198 509.560 C 357.736 509.508,349.669 507.777,345.200 507.200 C 343.330 506.959,338.470 506.147,334.400 505.396 C 330.330 504.644,325.200 503.746,323.000 503.400 C 320.800 503.053,317.426 502.432,315.502 502.019 C 313.577 501.606,310.607 501.163,308.902 501.034 L 305.800 500.800 308.000 501.629 M359.891 509.889 C 360.601 509.977,361.861 509.979,362.691 509.892 C 363.521 509.805,362.940 509.733,361.400 509.731 C 359.860 509.729,359.181 509.800,359.891 509.889 "
       stroke="none"
       fill="#8869c0"
       fill-rule="evenodd" />
    <path
       id="path4"
       d="M236.075 2.016 C 235.594 2.464,235.200 2.959,235.200 3.116 C 235.199 3.272,234.758 3.913,234.218 4.541 C 233.191 5.735,232.975 6.783,232.638 12.209 C 232.498 14.473,232.139 16.073,231.420 17.643 C 230.611 19.411,230.310 20.972,229.958 25.234 C 229.714 28.185,229.246 31.230,228.917 32.000 C 227.801 34.620,227.582 35.797,227.026 42.200 C 226.622 46.851,226.247 49.096,225.653 50.416 C 224.516 52.945,224.019 57.746,223.664 69.628 C 223.381 79.103,223.295 79.956,222.499 81.228 C 218.616 87.431,218.581 87.547,218.021 95.876 C 217.733 100.177,217.449 101.927,216.852 103.098 C 215.844 105.075,215.316 108.187,214.971 114.200 C 214.757 117.930,214.488 119.471,213.763 121.115 C 212.606 123.740,212.485 124.455,212.019 131.404 C 211.708 136.051,211.469 137.389,210.623 139.237 C 209.760 141.122,209.533 142.451,209.155 147.833 C 208.799 152.898,208.516 154.659,207.771 156.447 C 207.256 157.683,206.659 159.783,206.445 161.113 C 205.952 164.173,203.926 167.567,198.000 175.257 C 195.441 178.578,192.155 182.958,189.490 186.600 C 186.257 191.017,179.604 199.894,173.220 208.308 C 171.339 210.787,168.450 214.660,166.800 216.915 C 165.150 219.170,162.000 223.384,159.800 226.280 C 150.735 238.211,142.883 248.722,141.055 251.374 C 139.985 252.926,137.820 255.817,136.244 257.798 C 134.668 259.779,132.222 263.020,130.808 265.000 C 129.394 266.980,127.149 269.969,125.819 271.643 C 124.488 273.317,121.330 277.519,118.800 280.981 C 116.270 284.443,113.344 288.384,112.298 289.738 C 111.252 291.092,109.190 293.910,107.716 296.000 C 106.241 298.090,103.404 301.870,101.411 304.400 C 99.417 306.930,97.264 309.810,96.626 310.800 C 95.988 311.790,94.106 314.310,92.444 316.400 C 90.782 318.490,88.301 321.730,86.929 323.600 C 85.558 325.470,83.888 327.720,83.219 328.600 C 79.592 333.371,74.419 340.324,71.611 344.200 C 69.858 346.620,67.710 349.500,66.838 350.600 C 65.965 351.700,64.295 353.910,63.126 355.510 C 61.164 358.196,59.660 360.195,52.070 370.200 C 50.568 372.180,47.680 376.050,45.652 378.800 C 43.624 381.550,41.057 384.970,39.948 386.400 C 38.838 387.830,37.018 390.339,35.903 391.975 C 34.787 393.611,32.495 396.671,30.810 398.775 C 26.782 403.802,22.589 409.990,22.227 411.441 C 21.866 412.886,20.891 414.155,17.048 418.180 C 2.764 433.142,11.406 453.832,33.200 456.854 C 34.850 457.083,39.350 457.867,43.200 458.596 C 47.050 459.325,51.370 460.043,52.800 460.191 C 54.230 460.339,57.380 460.886,59.800 461.406 C 62.220 461.926,66.360 462.647,69.000 463.008 C 71.640 463.369,75.780 464.086,78.200 464.601 C 80.620 465.116,84.306 465.740,86.390 465.988 C 88.475 466.236,91.715 466.780,93.590 467.197 C 95.466 467.614,99.610 468.335,102.800 468.800 C 105.990 469.265,110.130 469.984,112.000 470.398 C 113.870 470.812,117.560 471.439,120.200 471.791 C 122.840 472.143,126.980 472.861,129.400 473.386 C 131.820 473.912,135.600 474.551,137.800 474.808 C 140.000 475.064,144.230 475.783,147.200 476.405 C 150.170 477.028,155.480 477.829,159.000 478.186 C 162.520 478.543,167.830 479.277,170.800 479.819 C 173.770 480.360,178.180 481.084,180.600 481.428 C 183.020 481.771,186.530 482.388,188.400 482.798 C 190.270 483.207,193.933 483.834,196.541 484.191 C 199.148 484.547,203.378 485.262,205.941 485.778 C 208.503 486.295,212.220 486.921,214.200 487.170 C 216.180 487.419,219.960 488.147,222.600 488.788 C 231.086 490.849,236.506 491.950,241.207 492.569 C 243.733 492.902,247.960 493.621,250.600 494.168 C 253.240 494.714,257.020 495.358,259.000 495.600 C 260.980 495.842,263.860 496.306,265.400 496.633 C 270.251 497.662,274.118 498.346,276.600 498.615 C 277.920 498.758,281.095 499.299,283.656 499.817 C 286.217 500.336,290.447 501.054,293.056 501.412 C 295.665 501.771,299.780 502.485,302.200 502.999 C 304.620 503.512,308.310 504.143,310.400 504.400 C 312.490 504.657,316.185 505.291,318.611 505.808 C 321.037 506.325,325.177 507.042,327.811 507.403 C 330.445 507.763,334.130 508.393,336.000 508.804 C 337.870 509.214,341.470 509.841,344.000 510.196 C 346.530 510.551,350.490 511.234,352.800 511.713 C 377.620 516.861,390.732 501.271,381.997 477.000 C 381.364 475.240,380.106 471.280,379.203 468.200 C 377.201 461.378,374.649 453.173,373.354 449.400 C 372.826 447.860,371.963 445.070,371.438 443.200 C 370.913 441.330,370.123 438.810,369.683 437.600 C 369.243 436.390,368.043 432.610,367.015 429.200 C 365.987 425.790,364.719 421.830,364.197 420.400 C 363.675 418.970,363.048 416.990,362.805 416.000 C 362.278 413.860,360.036 406.582,358.185 401.000 C 357.455 398.800,356.113 394.480,355.203 391.400 C 354.292 388.320,352.946 384.000,352.210 381.800 C 350.649 377.133,348.636 370.570,347.978 368.002 C 347.724 367.013,347.161 365.509,346.727 364.658 C 346.294 363.807,345.683 361.826,345.371 360.256 C 344.806 357.411,343.244 352.183,340.096 342.600 C 339.064 339.457,337.040 333.016,335.824 329.000 C 335.290 327.240,334.495 324.720,334.055 323.400 C 333.616 322.080,332.517 318.480,331.612 315.400 C 330.708 312.320,329.681 308.990,329.330 308.000 C 328.980 307.010,328.439 305.390,328.128 304.400 C 327.817 303.410,326.952 300.710,326.205 298.400 C 325.458 296.090,324.553 293.041,324.193 291.624 C 323.833 290.207,323.203 288.389,322.792 287.585 C 322.382 286.780,321.762 284.879,321.416 283.361 C 321.070 281.842,320.438 279.700,320.010 278.600 C 319.583 277.500,318.947 275.430,318.598 274.000 C 318.249 272.570,317.541 270.320,317.025 269.000 C 316.508 267.680,315.773 265.340,315.392 263.800 C 315.011 262.260,314.434 260.481,314.112 259.847 C 313.789 259.213,313.105 257.053,312.593 255.047 C 312.081 253.041,311.205 250.050,310.647 248.400 C 308.747 242.784,307.557 239.005,306.583 235.490 C 306.048 233.559,305.337 231.451,305.003 230.806 C 304.669 230.160,304.133 228.500,303.812 227.116 C 303.490 225.732,302.850 223.520,302.388 222.200 C 301.927 220.880,301.127 218.270,300.611 216.400 C 300.095 214.530,299.315 212.010,298.878 210.800 C 298.440 209.590,297.361 206.260,296.479 203.400 C 295.597 200.540,294.396 196.760,293.810 195.000 C 293.224 193.240,292.395 190.540,291.968 189.000 C 291.541 187.460,290.731 184.812,290.168 183.115 C 288.901 179.297,288.956 174.367,290.321 169.444 C 290.802 167.708,291.464 163.733,291.792 160.611 C 292.120 157.488,292.653 154.183,292.977 153.266 C 293.695 151.230,294.253 148.176,294.793 143.330 C 295.017 141.311,295.644 137.801,296.186 135.530 C 296.728 133.258,297.366 129.446,297.604 127.058 C 297.841 124.669,298.475 120.889,299.012 118.658 C 299.549 116.426,300.256 112.260,300.584 109.400 C 300.911 106.540,301.452 103.210,301.785 102.000 C 302.624 98.955,303.125 96.053,303.585 91.578 C 303.801 89.476,304.430 85.876,304.983 83.578 C 305.536 81.280,306.259 77.060,306.588 74.200 C 306.918 71.340,307.556 67.650,308.006 66.000 C 308.455 64.350,309.012 61.200,309.243 59.000 C 309.807 53.637,310.160 51.569,311.135 47.919 C 311.587 46.224,312.172 42.534,312.435 39.719 C 312.705 36.812,313.327 33.217,313.874 31.400 C 315.231 26.886,315.509 22.338,314.596 19.588 C 314.204 18.407,313.897 16.937,313.915 16.320 C 313.932 15.704,313.734 15.182,313.473 15.160 C 313.213 15.138,313.450 14.976,314.000 14.800 C 314.965 14.491,314.957 14.478,313.755 14.440 C 312.306 14.393,312.240 15.532,313.464 19.505 C 314.238 22.018,314.054 24.407,312.639 30.200 C 312.101 32.400,311.458 36.090,311.210 38.400 C 310.962 40.710,310.311 44.580,309.764 47.000 C 309.216 49.420,308.505 53.589,308.184 56.264 C 307.863 58.939,307.168 62.989,306.639 65.264 C 306.110 67.539,305.465 71.289,305.205 73.597 C 304.944 75.906,304.306 79.686,303.785 81.997 C 303.264 84.309,302.642 87.910,302.404 90.000 C 302.165 92.090,301.439 96.410,300.791 99.600 C 300.142 102.790,299.419 107.020,299.183 109.000 C 298.948 110.980,298.394 114.220,297.954 116.200 C 297.513 118.180,296.802 122.320,296.375 125.400 C 295.947 128.480,295.227 132.710,294.775 134.800 C 294.323 136.890,293.686 140.670,293.360 143.200 C 293.035 145.730,292.344 149.600,291.825 151.800 C 291.307 154.000,290.671 157.780,290.412 160.200 C 290.154 162.620,289.462 166.580,288.876 169.000 C 286.930 177.024,287.425 181.224,291.681 192.800 C 292.126 194.010,292.825 196.260,293.233 197.800 C 294.128 201.172,296.468 208.603,298.021 213.000 C 298.642 214.760,299.622 217.820,300.200 219.800 C 302.456 227.539,303.538 231.095,304.336 233.400 C 304.793 234.720,305.909 238.230,306.815 241.200 C 307.721 244.170,308.911 247.950,309.460 249.600 C 310.008 251.250,310.905 254.295,311.453 256.368 C 312.001 258.440,312.695 260.611,312.996 261.192 C 313.297 261.774,313.903 263.588,314.344 265.225 C 314.784 266.861,315.593 269.550,316.141 271.200 C 317.856 276.364,319.271 280.881,320.215 284.200 C 320.716 285.960,321.571 288.660,322.115 290.200 C 322.660 291.740,323.499 294.350,323.981 296.000 C 324.813 298.850,326.842 305.300,328.134 309.200 C 328.462 310.190,329.571 313.790,330.598 317.200 C 331.625 320.610,332.825 324.390,333.264 325.600 C 333.702 326.810,334.565 329.600,335.182 331.800 C 335.798 334.000,336.524 336.340,336.794 337.000 C 337.064 337.660,337.705 339.640,338.219 341.400 C 338.732 343.160,339.627 346.040,340.206 347.800 C 342.956 356.146,343.624 358.388,344.025 360.607 C 344.445 362.933,345.659 367.224,347.987 374.600 C 349.602 379.720,352.617 389.414,354.270 394.800 C 355.047 397.330,356.189 400.930,356.810 402.800 C 357.430 404.670,358.675 408.630,359.576 411.600 C 360.477 414.570,361.925 419.250,362.793 422.000 C 365.337 430.060,369.895 444.538,371.860 450.800 C 372.862 453.990,374.106 457.860,374.625 459.400 C 375.144 460.940,376.018 463.820,376.566 465.800 C 377.114 467.780,378.633 472.640,379.940 476.600 C 383.460 487.263,383.814 490.948,381.996 498.014 C 379.344 508.326,368.191 512.451,351.000 509.480 C 342.657 508.038,332.935 506.347,323.000 504.611 C 318.600 503.842,313.740 503.023,312.200 502.792 C 310.660 502.560,306.520 501.851,303.000 501.215 C 299.480 500.580,292.190 499.319,286.800 498.413 C 272.811 496.060,261.777 494.174,252.800 492.600 C 248.510 491.848,244.190 491.117,243.200 490.977 C 238.886 490.365,226.389 487.892,224.154 487.208 C 222.809 486.797,219.569 486.165,216.954 485.805 C 214.339 485.445,210.637 484.804,208.727 484.381 C 206.817 483.957,202.741 483.256,199.669 482.824 C 196.597 482.391,192.851 481.751,191.344 481.402 C 189.838 481.052,186.084 480.410,183.003 479.975 C 179.921 479.540,175.823 478.822,173.896 478.379 C 171.969 477.937,167.610 477.308,164.208 476.982 C 160.806 476.656,155.993 476.031,153.512 475.592 C 151.030 475.153,146.300 474.340,143.000 473.784 C 139.700 473.228,133.940 472.239,130.200 471.587 C 118.685 469.577,107.627 467.667,102.600 466.819 C 88.059 464.366,85.405 463.911,81.200 463.149 C 78.670 462.691,73.990 461.891,70.800 461.372 C 67.610 460.853,60.320 459.614,54.600 458.620 C 48.880 457.625,41.442 456.349,38.070 455.784 C 20.023 452.760,12.179 446.394,12.216 434.800 C 12.238 427.580,13.588 424.422,19.397 418.000 C 21.032 416.192,22.561 414.002,23.244 412.487 C 24.551 409.590,26.402 406.886,32.612 398.800 C 35.062 395.610,37.793 391.920,38.681 390.600 C 39.570 389.280,41.484 386.706,42.935 384.880 C 44.386 383.054,47.017 379.544,48.782 377.080 C 50.547 374.616,54.288 369.601,57.096 365.935 C 59.903 362.269,63.305 357.769,64.655 355.935 C 66.005 354.101,68.075 351.331,69.255 349.780 C 70.435 348.229,74.910 342.221,79.200 336.428 C 83.490 330.636,89.202 323.038,91.893 319.544 C 94.584 316.051,97.096 312.699,97.473 312.096 C 97.851 311.493,99.969 308.665,102.180 305.811 C 104.391 302.958,107.370 298.974,108.800 296.960 C 110.230 294.945,113.278 290.800,115.573 287.748 C 117.868 284.697,121.828 279.432,124.373 276.048 C 126.918 272.664,130.598 267.714,132.551 265.048 C 134.504 262.382,137.051 259.030,138.213 257.600 C 139.374 256.170,141.826 252.888,143.662 250.306 C 146.680 246.062,151.240 239.958,161.167 226.875 C 163.055 224.386,166.040 220.385,167.800 217.983 C 169.560 215.581,172.575 211.543,174.500 209.008 C 176.425 206.474,179.575 202.327,181.500 199.794 C 184.974 195.222,190.969 187.118,192.297 185.200 C 192.678 184.650,194.448 182.310,196.230 180.000 C 205.583 167.880,207.960 163.860,208.009 160.080 C 208.014 159.706,208.391 158.590,208.848 157.600 C 209.446 156.302,209.879 153.848,210.401 148.800 C 210.881 144.151,211.406 141.061,211.963 139.600 C 212.525 138.130,213.006 135.276,213.415 131.000 C 213.830 126.654,214.332 123.701,214.979 121.800 C 215.503 120.260,216.050 117.560,216.195 115.800 C 216.730 109.285,217.248 105.909,218.007 103.982 C 218.499 102.734,219.017 99.681,219.411 95.702 C 220.115 88.586,220.366 87.494,222.007 84.400 C 224.424 79.843,224.372 80.104,224.792 70.591 C 225.286 59.384,225.763 55.102,226.972 51.000 C 227.491 49.240,228.200 45.100,228.548 41.800 C 228.896 38.500,229.532 34.700,229.962 33.355 C 230.392 32.010,231.021 28.393,231.359 25.317 C 231.750 21.769,232.275 19.025,232.796 17.809 C 233.457 16.266,234.283 10.357,234.394 6.372 C 234.397 6.247,235.120 5.179,236.000 4.000 C 238.067 1.229,238.109 0.121,236.075 2.016 "
       stroke="none"
       fill="#646464"
       fill-rule="evenodd" />
    <path
       id="path5"
       d="M234.924 9.400 C 234.926 10.720,235.001 11.212,235.090 10.493 C 235.179 9.774,235.177 8.694,235.086 8.093 C 234.995 7.492,234.922 8.080,234.924 9.400 M307.293 55.600 C 307.293 56.370,307.375 56.685,307.476 56.300 C 307.576 55.915,307.576 55.285,307.476 54.900 C 307.375 54.515,307.293 54.830,307.293 55.600 M226.093 61.200 C 226.093 61.970,226.175 62.285,226.276 61.900 C 226.376 61.515,226.376 60.885,226.276 60.500 C 226.175 60.115,226.093 60.430,226.093 61.200 M225.693 65.200 C 225.693 65.970,225.775 66.285,225.876 65.900 C 225.976 65.515,225.976 64.885,225.876 64.500 C 225.775 64.115,225.693 64.430,225.693 65.200 M225.380 71.278 C 225.661 75.466,225.023 80.145,223.930 81.913 L 223.053 83.333 224.308 82.405 C 225.649 81.414,225.743 81.133,226.397 76.200 C 226.776 73.335,226.734 72.749,225.997 70.600 L 225.173 68.200 225.380 71.278 M220.093 96.400 C 220.093 97.170,220.175 97.485,220.276 97.100 C 220.376 96.715,220.376 96.085,220.276 95.700 C 220.175 95.315,220.093 95.630,220.093 96.400 M216.893 116.400 C 216.893 117.170,216.975 117.485,217.076 117.100 C 217.176 116.715,217.176 116.085,217.076 115.700 C 216.975 115.315,216.893 115.630,216.893 116.400 M214.093 132.000 C 214.093 132.770,214.175 133.085,214.276 132.700 C 214.376 132.315,214.376 131.685,214.276 131.300 C 214.175 130.915,214.093 131.230,214.093 132.000 M286.893 174.400 C 286.893 175.170,286.975 175.485,287.076 175.100 C 287.176 174.715,287.176 174.085,287.076 173.700 C 286.975 173.315,286.893 173.630,286.893 174.400 M147.351 246.500 C 146.170 247.848,145.480 248.800,145.684 248.800 C 145.784 248.800,146.445 248.080,147.152 247.200 C 148.525 245.492,148.664 245.001,147.351 246.500 M120.344 282.700 C 119.193 284.089,118.706 284.800,118.904 284.800 C 119.014 284.800,119.586 284.170,120.173 283.400 C 121.263 281.971,121.395 281.432,120.344 282.700 M343.241 364.128 C 343.197 367.079,344.506 372.940,346.235 377.529 C 346.788 378.998,347.669 381.640,348.191 383.400 C 350.291 390.472,351.960 395.923,352.722 398.200 C 353.164 399.520,354.166 402.670,354.950 405.200 C 355.733 407.730,357.082 412.050,357.947 414.800 C 358.812 417.550,360.366 422.590,361.401 426.000 C 362.435 429.410,363.793 433.640,364.418 435.400 C 365.043 437.160,366.208 440.850,367.006 443.600 C 367.805 446.350,369.062 450.400,369.800 452.600 C 370.538 454.800,371.978 459.390,372.999 462.800 C 374.020 466.210,375.220 470.080,375.665 471.400 C 376.110 472.720,376.880 475.150,377.375 476.800 C 377.870 478.450,378.545 480.430,378.874 481.200 C 382.176 488.910,380.596 499.613,375.570 503.586 C 369.358 508.497,362.895 509.095,347.000 506.229 C 342.600 505.436,335.310 504.154,330.800 503.380 C 326.290 502.606,319.630 501.439,316.000 500.787 C 312.370 500.135,307.150 499.257,304.400 498.836 C 301.650 498.415,296.970 497.619,294.000 497.068 C 291.030 496.516,286.890 495.793,284.800 495.461 C 282.710 495.130,277.310 494.225,272.800 493.450 C 268.290 492.676,260.820 491.396,256.200 490.606 C 251.580 489.816,245.370 488.740,242.400 488.214 C 239.430 487.689,235.268 486.982,233.151 486.643 C 231.034 486.304,227.794 485.589,225.951 485.055 C 224.108 484.521,221.340 483.957,219.800 483.800 C 218.260 483.644,214.660 483.009,211.800 482.388 C 208.940 481.768,204.734 481.065,202.454 480.827 C 200.173 480.588,196.843 480.018,195.054 479.560 C 193.264 479.102,189.169 478.393,185.954 477.983 C 182.739 477.574,178.689 476.863,176.954 476.404 C 175.219 475.944,171.820 475.380,169.400 475.151 C 163.547 474.595,158.619 473.884,149.000 472.207 C 144.600 471.441,138.210 470.352,134.800 469.787 C 131.390 469.223,125.810 468.245,122.400 467.614 C 118.990 466.983,115.300 466.351,114.200 466.211 C 113.100 466.070,109.950 465.524,107.200 464.998 C 104.450 464.471,99.950 463.686,97.200 463.253 C 94.450 462.821,87.340 461.631,81.400 460.610 C 75.460 459.590,67.540 458.235,63.800 457.600 C 25.461 451.093,26.371 451.318,21.000 447.010 C 12.943 440.547,12.279 430.422,19.341 421.718 C 23.205 416.956,23.864 415.914,24.140 414.135 C 24.282 413.219,24.491 412.139,24.605 411.735 C 24.719 411.331,24.200 412.260,23.451 413.800 C 22.702 415.340,21.067 417.770,19.817 419.200 C 15.293 424.377,14.342 426.480,13.527 433.099 C 12.744 439.464,14.169 442.898,19.497 447.484 C 24.266 451.588,26.823 452.691,34.036 453.753 C 36.366 454.097,39.795 454.733,41.657 455.167 C 43.518 455.601,47.192 456.223,49.820 456.550 C 52.449 456.877,56.253 457.515,58.273 457.967 C 60.293 458.420,64.433 459.141,67.473 459.570 C 70.513 459.999,74.620 460.709,76.600 461.148 C 78.580 461.586,82.407 462.230,85.105 462.577 C 87.803 462.925,91.496 463.556,93.312 463.979 C 95.128 464.403,98.860 465.040,101.607 465.396 C 104.353 465.752,108.490 466.470,110.800 466.992 C 113.110 467.515,116.080 468.058,117.400 468.201 C 120.951 468.584,124.187 469.133,128.000 469.999 C 129.870 470.423,133.609 471.043,136.309 471.376 C 139.008 471.708,142.788 472.344,144.709 472.789 C 148.411 473.646,154.625 474.599,171.000 476.822 C 174.300 477.270,177.990 477.887,179.200 478.192 C 180.410 478.498,184.100 479.133,187.400 479.603 C 190.700 480.073,194.930 480.792,196.800 481.200 C 198.670 481.608,202.360 482.236,205.000 482.595 C 207.640 482.954,211.420 483.589,213.400 484.006 C 215.380 484.423,218.170 484.960,219.600 485.200 C 221.030 485.440,225.350 486.334,229.200 487.188 C 233.050 488.041,237.914 488.940,240.010 489.186 C 242.105 489.431,245.435 489.985,247.410 490.417 C 249.384 490.849,253.070 491.486,255.600 491.834 C 258.130 492.181,262.270 492.901,264.800 493.433 C 267.330 493.965,271.920 494.753,275.000 495.186 C 278.080 495.618,282.220 496.324,284.200 496.755 C 286.180 497.187,289.510 497.742,291.600 497.990 C 293.690 498.238,297.470 498.890,300.000 499.439 C 302.530 499.989,306.760 500.707,309.400 501.036 C 312.040 501.365,316.090 502.063,318.400 502.588 C 320.710 503.112,324.310 503.744,326.400 503.991 C 328.490 504.238,332.186 504.870,334.614 505.395 C 337.042 505.920,341.092 506.623,343.614 506.958 C 346.136 507.293,350.430 508.024,353.155 508.583 C 370.902 512.225,381.982 505.159,381.997 490.192 C 382.000 486.904,381.515 485.034,377.019 471.000 C 375.187 465.280,372.394 456.460,370.813 451.400 C 369.231 446.340,366.713 438.330,365.217 433.600 C 363.720 428.870,360.926 419.960,359.008 413.800 C 357.089 407.640,355.021 401.070,354.410 399.200 C 353.800 397.330,352.452 393.010,351.416 389.600 C 350.379 386.190,348.570 380.430,347.395 376.800 C 346.220 373.170,344.954 368.760,344.581 367.000 C 343.379 361.312,343.286 361.114,343.241 364.128 M31.144 401.900 C 29.993 403.289,29.506 404.000,29.704 404.000 C 29.814 404.000,30.386 403.370,30.973 402.600 C 32.063 401.171,32.195 400.632,31.144 401.900 "
       stroke="none"
       fill="#9e8cc0"
       fill-rule="evenodd" />
    <path
       id="path6"
       d="M237.142 2.303 C 236.780 2.906,236.017 4.032,235.446 4.805 C 234.537 6.034,234.358 6.814,234.012 11.053 C 233.746 14.309,233.347 16.523,232.796 17.810 C 232.275 19.024,231.750 21.771,231.359 25.317 C 231.021 28.393,230.392 32.010,229.962 33.355 C 229.532 34.700,228.896 38.500,228.548 41.800 C 228.200 45.100,227.491 49.240,226.973 51.000 C 225.788 55.021,225.232 59.741,225.043 67.400 C 224.961 70.700,224.971 72.590,225.065 71.600 C 226.184 59.799,226.902 54.321,227.745 51.141 C 228.291 49.084,228.942 45.240,229.191 42.600 C 229.441 39.960,230.072 36.180,230.594 34.200 C 231.116 32.220,231.822 28.170,232.162 25.200 C 232.505 22.211,233.140 18.867,233.585 17.710 C 234.111 16.343,234.522 13.861,234.774 10.542 C 235.125 5.896,235.241 5.393,236.133 4.632 C 237.108 3.800,238.577 1.198,238.069 1.203 C 237.921 1.204,237.504 1.699,237.142 2.303 M311.885 14.693 C 311.792 14.862,312.040 16.260,312.436 17.800 C 313.429 21.661,313.376 23.169,312.035 29.071 C 311.394 31.892,310.658 36.089,310.401 38.397 C 310.143 40.706,309.501 44.503,308.975 46.835 C 308.448 49.167,307.822 52.858,307.583 55.038 C 307.345 57.217,306.709 60.966,306.171 63.368 C 305.633 65.771,304.925 69.907,304.596 72.560 C 304.268 75.212,303.561 79.366,303.026 81.791 C 302.491 84.216,301.854 87.910,301.611 90.000 C 301.368 92.090,300.653 96.320,300.022 99.400 C 299.392 102.480,298.753 106.170,298.603 107.600 C 298.454 109.030,297.824 112.720,297.205 115.800 C 296.585 118.880,295.863 123.110,295.601 125.200 C 295.339 127.290,294.706 130.980,294.196 133.400 C 293.685 135.820,293.057 139.510,292.800 141.600 C 292.543 143.690,291.889 147.470,291.347 150.000 C 290.805 152.530,290.095 156.760,289.768 159.400 C 289.441 162.040,288.834 165.640,288.419 167.400 C 286.475 175.643,286.471 179.456,288.402 185.200 C 289.030 187.070,289.815 189.590,290.146 190.800 C 290.477 192.010,291.195 194.350,291.742 196.000 C 292.290 197.650,293.489 201.430,294.408 204.400 C 295.326 207.370,296.439 210.790,296.880 212.000 C 297.322 213.210,298.281 216.270,299.012 218.800 C 301.205 226.390,302.709 231.203,303.564 233.360 C 304.009 234.482,304.627 236.480,304.939 237.800 C 305.250 239.120,305.966 241.550,306.531 243.200 C 308.344 248.493,309.638 252.543,310.236 254.800 C 311.022 257.760,313.857 266.781,315.014 270.000 C 315.528 271.430,316.345 274.130,316.831 276.000 C 317.317 277.870,317.960 279.888,318.259 280.484 C 318.559 281.080,319.067 282.700,319.389 284.084 C 319.710 285.468,320.418 287.694,320.962 289.031 C 321.506 290.369,322.237 292.709,322.586 294.231 C 322.936 295.754,323.650 298.170,324.174 299.600 C 324.697 301.030,325.846 304.540,326.727 307.400 C 328.708 313.833,331.220 321.882,333.217 328.200 C 334.052 330.840,335.399 335.160,336.211 337.800 C 337.023 340.440,338.047 343.590,338.486 344.800 C 338.925 346.010,339.707 348.530,340.222 350.400 C 340.737 352.270,341.537 354.880,341.999 356.200 C 342.461 357.520,343.087 359.878,343.389 361.440 C 343.691 363.001,344.331 364.891,344.812 365.640 C 345.292 366.388,345.563 366.640,345.414 366.200 C 344.844 364.517,344.000 361.001,344.000 360.306 C 344.000 359.623,342.628 355.094,340.212 347.800 C 339.629 346.040,338.732 343.160,338.219 341.400 C 337.705 339.640,337.064 337.660,336.794 337.000 C 336.524 336.340,335.798 334.000,335.182 331.800 C 334.565 329.600,333.702 326.810,333.264 325.600 C 332.825 324.390,331.625 320.610,330.598 317.200 C 329.571 313.790,328.462 310.190,328.134 309.200 C 326.842 305.300,324.813 298.850,323.981 296.000 C 323.499 294.350,322.660 291.740,322.115 290.200 C 321.571 288.660,320.716 285.960,320.215 284.200 C 319.271 280.881,317.856 276.364,316.141 271.200 C 315.593 269.550,314.784 266.861,314.344 265.225 C 313.903 263.588,313.297 261.774,312.996 261.192 C 312.695 260.611,312.001 258.440,311.453 256.368 C 310.905 254.295,310.008 251.250,309.460 249.600 C 308.911 247.950,307.721 244.170,306.815 241.200 C 305.909 238.230,304.793 234.720,304.336 233.400 C 303.538 231.095,302.456 227.539,300.200 219.800 C 299.622 217.820,298.642 214.760,298.021 213.000 C 296.468 208.603,294.128 201.172,293.233 197.800 C 292.825 196.260,292.126 194.010,291.681 192.800 C 287.425 181.224,286.930 177.024,288.876 169.000 C 289.462 166.580,290.154 162.620,290.412 160.200 C 290.671 157.780,291.307 154.000,291.825 151.800 C 292.344 149.600,293.035 145.730,293.360 143.200 C 293.686 140.670,294.323 136.890,294.775 134.800 C 295.227 132.710,295.947 128.480,296.375 125.400 C 296.802 122.320,297.513 118.180,297.954 116.200 C 298.394 114.220,298.948 110.980,299.183 109.000 C 299.419 107.020,300.142 102.790,300.791 99.600 C 301.439 96.410,302.165 92.090,302.404 90.000 C 302.642 87.910,303.264 84.309,303.785 81.997 C 304.306 79.686,304.944 75.906,305.205 73.597 C 305.465 71.289,306.110 67.539,306.639 65.264 C 307.168 62.989,307.863 58.939,308.184 56.264 C 308.505 53.589,309.216 49.420,309.764 47.000 C 310.311 44.580,310.962 40.710,311.210 38.400 C 311.458 36.090,312.103 32.400,312.643 30.200 C 314.044 24.488,314.241 21.815,313.434 19.441 C 313.070 18.367,312.748 16.876,312.720 16.127 C 312.671 14.812,312.235 14.063,311.885 14.693 M224.514 77.400 C 224.517 78.500,224.595 78.903,224.687 78.295 C 224.779 77.686,224.777 76.786,224.682 76.295 C 224.587 75.803,224.511 76.300,224.514 77.400 M223.688 81.083 C 223.412 81.697,222.659 83.190,222.014 84.400 C 220.367 87.487,220.116 88.577,219.411 95.702 C 219.017 99.681,218.499 102.734,218.007 103.982 C 217.248 105.909,216.730 109.285,216.195 115.800 C 216.050 117.560,215.503 120.260,214.979 121.800 C 214.332 123.701,213.830 126.654,213.415 131.000 C 213.006 135.276,212.525 138.130,211.963 139.600 C 211.406 141.061,210.881 144.151,210.401 148.800 C 209.879 153.848,209.446 156.302,208.848 157.600 C 208.391 158.590,208.014 159.706,208.009 160.080 C 207.960 163.860,205.583 167.880,196.230 180.000 C 194.448 182.310,192.678 184.650,192.297 185.200 C 190.969 187.118,184.974 195.222,181.500 199.794 C 179.575 202.327,176.425 206.474,174.500 209.008 C 172.575 211.543,169.560 215.581,167.800 217.983 C 166.040 220.385,163.055 224.386,161.167 226.875 C 151.240 239.958,146.680 246.062,143.662 250.306 C 141.826 252.888,139.374 256.170,138.213 257.600 C 137.051 259.030,134.504 262.382,132.551 265.048 C 130.598 267.714,126.918 272.664,124.373 276.048 C 121.828 279.432,117.868 284.697,115.573 287.748 C 113.278 290.800,110.230 294.945,108.800 296.960 C 107.370 298.974,104.391 302.958,102.180 305.811 C 99.969 308.665,97.851 311.493,97.473 312.096 C 97.096 312.699,94.584 316.051,91.893 319.544 C 89.202 323.038,83.490 330.636,79.200 336.428 C 74.910 342.221,70.435 348.229,69.255 349.780 C 68.075 351.331,66.005 354.101,64.655 355.935 C 63.305 357.769,59.903 362.269,57.096 365.935 C 54.288 369.601,50.547 374.616,48.782 377.080 C 47.017 379.544,44.386 383.054,42.935 384.880 C 41.484 386.706,39.570 389.280,38.681 390.600 C 37.793 391.920,35.062 395.610,32.612 398.800 C 26.443 406.832,24.512 409.647,23.340 412.307 C 22.785 413.568,22.031 414.960,21.665 415.400 L 21.000 416.200 21.944 415.400 C 22.463 414.960,23.504 413.430,24.256 412.000 C 25.756 409.150,29.078 404.438,33.457 398.947 C 35.014 396.996,37.411 393.780,38.785 391.800 C 40.159 389.820,41.946 387.390,42.755 386.400 C 43.564 385.410,45.660 382.649,47.413 380.264 C 49.166 377.880,51.637 374.550,52.905 372.864 C 54.172 371.179,56.872 367.588,58.905 364.884 C 60.937 362.180,64.310 357.707,66.400 354.944 C 68.490 352.180,71.550 348.078,73.200 345.828 C 79.098 337.786,86.283 328.189,91.400 321.522 C 94.260 317.795,97.320 313.708,98.200 312.438 C 99.080 311.169,101.240 308.278,103.000 306.014 C 104.760 303.750,107.616 299.896,109.346 297.449 C 111.076 295.002,113.439 291.830,114.597 290.400 C 116.511 288.037,117.986 286.040,121.689 280.800 C 122.389 279.810,124.504 277.020,126.390 274.600 C 128.276 272.180,131.326 268.130,133.167 265.600 C 135.008 263.070,137.434 259.858,138.557 258.463 C 139.681 257.068,142.130 253.789,144.000 251.176 C 147.123 246.813,152.375 239.777,162.195 226.800 C 168.477 218.498,176.855 207.289,179.353 203.845 C 180.647 202.060,182.720 199.340,183.960 197.800 C 185.200 196.260,187.095 193.740,188.172 192.200 C 189.249 190.660,191.946 187.009,194.165 184.088 C 206.392 167.991,207.540 166.211,208.533 161.800 C 208.881 160.260,209.437 158.229,209.769 157.287 C 210.338 155.674,210.535 154.377,211.582 145.357 C 211.814 143.353,212.348 140.715,212.767 139.495 C 213.187 138.276,213.824 134.442,214.184 130.976 C 214.562 127.323,215.170 123.735,215.630 122.438 C 216.074 121.183,216.762 117.212,217.196 113.400 C 217.622 109.660,218.327 105.490,218.763 104.134 C 219.199 102.778,219.851 98.828,220.211 95.357 C 220.873 88.973,221.693 85.878,223.646 82.404 C 224.114 81.571,224.427 80.682,224.343 80.428 C 224.258 80.173,223.963 80.468,223.688 81.083 M346.645 371.600 C 346.882 373.373,348.360 377.373,348.666 377.068 C 348.752 376.981,348.612 376.391,348.354 375.755 C 348.097 375.120,347.553 373.520,347.145 372.200 C 346.445 369.931,346.418 369.898,346.645 371.600 M349.449 380.600 C 349.690 382.156,351.184 386.149,351.433 385.901 C 351.501 385.833,351.026 384.252,350.379 382.389 C 349.627 380.223,349.291 379.578,349.449 380.600 M352.630 390.600 C 352.760 391.480,353.213 392.920,353.638 393.800 C 354.063 394.680,354.293 395.040,354.149 394.600 C 354.006 394.160,353.552 392.720,353.141 391.400 C 352.560 389.534,352.446 389.356,352.630 390.600 M355.619 400.292 C 355.595 400.907,356.850 404.084,357.040 403.893 C 357.118 403.816,356.833 402.863,356.409 401.776 C 355.985 400.689,355.629 400.021,355.619 400.292 M358.617 409.770 C 358.869 411.383,359.995 414.538,360.234 414.300 C 360.307 414.226,359.918 412.824,359.369 411.183 C 358.730 409.272,358.459 408.764,358.617 409.770 M361.407 419.000 C 361.665 420.576,363.187 424.546,363.437 424.296 C 363.508 424.225,363.021 422.645,362.356 420.784 C 361.581 418.619,361.240 417.977,361.407 419.000 M14.465 424.445 C 13.831 425.459,13.160 427.200,13.402 427.200 C 13.661 427.200,15.285 423.952,15.113 423.779 C 15.034 423.701,14.743 424.000,14.465 424.445 M364.430 428.485 C 364.395 429.279,366.001 433.733,366.236 433.497 C 366.323 433.410,365.959 432.093,365.427 430.570 C 364.895 429.046,364.446 428.108,364.430 428.485 M367.442 438.000 C 367.657 439.180,369.142 442.607,369.176 442.000 C 369.182 441.890,368.737 440.630,368.187 439.200 C 367.557 437.562,367.281 437.118,367.442 438.000 M12.405 439.713 C 12.396 440.303,14.315 443.807,15.193 444.804 L 16.071 445.800 15.267 444.400 C 14.825 443.630,14.001 442.190,13.436 441.200 C 12.872 440.210,12.407 439.541,12.405 439.713 M18.009 447.757 C 20.002 450.341,26.234 453.478,31.600 454.601 C 34.194 455.143,32.614 454.460,28.555 453.283 C 24.723 452.172,21.395 450.387,18.412 447.843 C 17.598 447.149,17.527 447.134,18.009 447.757 M370.421 447.726 C 370.399 448.471,372.008 452.525,372.235 452.298 C 372.305 452.229,371.930 451.008,371.402 449.586 C 370.874 448.164,370.432 447.327,370.421 447.726 M373.210 456.085 C 373.199 456.834,374.800 461.334,375.004 461.128 C 375.073 461.057,374.700 459.740,374.175 458.200 C 373.650 456.660,373.216 455.708,373.210 456.085 M44.200 456.778 C 48.367 457.673,50.205 457.773,47.624 456.964 C 46.647 456.657,44.667 456.316,43.224 456.205 L 40.600 456.004 44.200 456.778 M60.600 459.567 C 66.792 460.805,67.766 460.906,65.200 460.046 C 63.990 459.641,61.650 459.205,60.000 459.078 L 57.000 458.847 60.600 459.567 M78.200 462.575 C 79.520 462.882,81.410 463.235,82.400 463.359 L 84.200 463.584 82.660 462.999 C 81.813 462.677,79.923 462.324,78.460 462.215 L 75.800 462.016 78.200 462.575 M376.028 464.800 C 375.998 465.958,377.065 469.812,377.744 471.000 C 378.514 472.349,378.550 472.520,376.947 467.200 C 376.450 465.550,376.036 464.470,376.028 464.800 M96.980 465.799 C 99.609 466.335,101.827 466.706,101.910 466.624 C 102.234 466.299,97.645 465.249,95.000 465.043 C 92.480 464.846,92.677 464.922,96.980 465.799 M113.200 468.580 C 114.630 468.883,116.610 469.234,117.600 469.358 L 119.400 469.584 117.800 468.969 C 116.920 468.631,114.940 468.281,113.400 468.191 L 110.600 468.028 113.200 468.580 M131.780 471.794 C 134.409 472.333,136.619 472.714,136.691 472.642 C 136.990 472.343,131.973 471.190,129.583 471.010 C 127.426 470.846,127.788 470.976,131.780 471.794 M148.200 474.607 C 150.840 475.150,153.170 475.539,153.377 475.471 C 154.112 475.232,148.958 474.063,146.200 473.843 C 143.686 473.642,143.891 473.721,148.200 474.607 M379.010 475.000 C 379.254 476.505,380.783 480.556,381.016 480.312 C 381.075 480.250,380.590 478.670,379.937 476.800 C 379.204 474.696,378.850 474.010,379.010 475.000 M160.905 476.687 C 161.514 476.779,162.414 476.777,162.905 476.682 C 163.397 476.587,162.900 476.511,161.800 476.514 C 160.700 476.517,160.297 476.595,160.905 476.687 M164.262 476.900 C 164.364 477.065,165.292 477.203,166.324 477.207 C 167.356 477.210,169.820 477.548,171.800 477.958 C 175.941 478.813,176.438 478.774,173.722 477.804 C 171.761 477.104,163.925 476.355,164.262 476.900 M185.083 480.192 C 187.109 480.504,189.513 480.961,190.424 481.206 C 192.846 481.859,192.759 481.440,190.304 480.627 C 189.147 480.244,186.670 479.861,184.800 479.777 L 181.400 479.623 185.083 480.192 M200.200 482.819 C 201.520 483.029,203.680 483.394,205.000 483.629 C 206.320 483.865,207.850 484.137,208.400 484.234 C 208.950 484.331,208.465 484.062,207.322 483.637 C 206.096 483.180,203.717 482.776,201.522 482.650 C 198.185 482.459,198.048 482.477,200.200 482.819 M382.200 490.373 C 382.200 494.754,382.323 496.795,382.544 496.092 C 382.981 494.706,382.972 486.627,382.532 484.880 C 382.317 484.026,382.200 485.963,382.200 490.373 M214.500 485.476 C 214.885 485.576,215.515 485.576,215.900 485.476 C 216.285 485.375,215.970 485.293,215.200 485.293 C 214.430 485.293,214.115 485.375,214.500 485.476 M218.993 486.013 C 220.310 486.223,222.283 486.657,223.379 486.979 C 224.474 487.300,225.450 487.483,225.547 487.386 C 226.017 486.916,222.311 485.910,219.626 485.780 L 216.600 485.632 218.993 486.013 M234.600 489.415 C 237.240 489.952,239.579 490.333,239.798 490.262 C 240.437 490.057,234.827 488.861,232.200 488.641 C 230.475 488.497,231.150 488.715,234.600 489.415 M252.980 492.594 C 255.609 493.133,257.819 493.514,257.891 493.442 C 258.190 493.143,253.173 491.990,250.783 491.810 C 248.626 491.646,248.988 491.776,252.980 492.594 M269.380 495.402 C 272.009 495.936,274.219 496.314,274.291 496.242 C 274.576 495.957,269.648 494.847,267.200 494.645 C 265.090 494.471,265.501 494.614,269.380 495.402 M287.000 498.387 C 291.302 499.301,292.377 499.357,290.200 498.553 C 289.320 498.227,287.430 497.885,286.000 497.792 L 283.400 497.623 287.000 498.387 M381.229 499.600 C 381.156 500.866,377.470 504.829,374.546 506.785 C 372.889 507.893,371.713 508.800,371.933 508.800 C 374.315 508.800,382.136 501.145,381.458 499.478 C 381.335 499.177,381.250 499.222,381.229 499.600 M303.200 501.150 C 309.185 502.415,310.181 502.517,307.699 501.614 C 306.544 501.193,304.294 500.755,302.699 500.640 L 299.800 500.432 303.200 501.150 M322.000 504.440 C 324.090 504.854,325.975 505.136,326.188 505.067 C 326.895 504.838,321.263 503.599,319.718 503.644 C 318.646 503.675,319.316 503.909,322.000 504.440 M338.400 507.240 C 340.490 507.654,342.380 507.932,342.600 507.857 C 343.244 507.638,337.370 506.396,335.921 506.444 C 335.153 506.469,336.192 506.803,338.400 507.240 M353.600 509.864 C 357.187 510.685,366.009 510.687,368.400 509.868 L 370.200 509.252 368.000 509.508 C 365.113 509.845,358.218 509.855,354.200 509.529 L 351.000 509.270 353.600 509.864 "
       stroke="none"
       fill="#848484"
       fill-rule="evenodd" />
    <path
       id="path7"
       d="M237.397 3.068 C 237.060 3.875,236.428 4.785,235.992 5.091 C 235.349 5.541,235.199 6.113,235.192 8.123 C 235.181 11.512,234.542 15.724,233.602 18.600 C 233.170 19.920,232.545 23.340,232.213 26.200 C 231.880 29.060,231.249 32.650,230.810 34.178 C 230.371 35.706,229.733 39.576,229.393 42.778 C 229.053 45.980,228.424 49.787,227.995 51.238 C 226.629 55.858,225.250 68.714,225.940 70.400 C 226.287 71.248,226.353 71.034,226.375 68.998 C 226.414 65.301,227.522 56.597,228.436 52.806 C 228.888 50.933,229.608 46.710,230.037 43.422 C 230.465 40.134,231.085 36.444,231.413 35.222 C 231.741 34.000,232.370 30.393,232.810 27.206 C 233.251 24.020,233.960 20.150,234.386 18.606 C 235.142 15.868,235.439 13.696,235.783 8.403 C 235.903 6.544,236.157 5.630,236.676 5.185 C 237.710 4.298,238.472 2.840,238.163 2.341 C 237.989 2.059,238.223 2.006,238.850 2.183 C 239.583 2.391,239.663 2.356,239.200 2.032 C 238.264 1.377,238.054 1.497,237.397 3.068 M311.012 15.679 C 311.105 16.192,311.454 17.508,311.786 18.605 C 312.596 21.276,312.563 22.038,311.425 26.865 C 310.889 29.139,310.178 33.070,309.845 35.600 C 309.512 38.130,308.711 42.900,308.064 46.200 C 307.417 49.500,306.766 53.370,306.617 54.800 C 306.468 56.230,305.913 59.470,305.383 62.000 C 304.853 64.530,304.145 68.580,303.810 71.000 C 303.474 73.420,302.754 77.650,302.210 80.400 C 301.665 83.150,301.025 87.020,300.787 89.000 C 300.550 90.980,300.002 94.186,299.571 96.123 C 299.140 98.061,298.421 102.201,297.972 105.323 C 297.523 108.446,296.809 112.597,296.385 114.549 C 295.961 116.500,295.326 120.190,294.973 122.749 C 294.621 125.307,293.912 129.470,293.398 132.000 C 292.883 134.530,292.252 138.310,291.994 140.400 C 291.735 142.490,291.101 146.180,290.584 148.600 C 290.067 151.020,289.445 154.620,289.203 156.600 C 288.960 158.580,288.201 162.900,287.515 166.200 C 285.733 174.777,285.714 180.691,287.452 185.800 C 288.619 189.231,290.522 195.197,293.386 204.400 C 297.526 217.703,298.531 220.888,299.447 223.600 C 300.005 225.250,300.708 227.606,301.011 228.835 C 301.313 230.064,301.951 232.044,302.428 233.235 C 302.905 234.426,303.703 236.930,304.202 238.800 C 305.059 242.020,306.189 245.581,308.072 251.000 C 308.531 252.320,309.398 255.200,310.000 257.400 C 310.602 259.600,311.469 262.480,311.928 263.800 C 313.731 268.990,314.920 272.746,315.788 276.000 C 316.287 277.870,317.054 280.300,317.492 281.400 C 317.931 282.500,318.520 284.377,318.802 285.571 C 319.084 286.766,319.742 288.797,320.266 290.086 C 320.790 291.375,321.495 293.637,321.833 295.114 C 322.171 296.592,322.955 299.240,323.575 301.000 C 324.195 302.760,325.344 306.270,326.128 308.800 C 331.659 326.642,334.025 334.173,335.049 337.200 C 335.608 338.850,336.397 341.460,336.803 343.000 C 337.208 344.540,337.817 346.453,338.155 347.251 C 338.493 348.049,339.142 350.119,339.597 351.851 C 340.052 353.583,340.794 355.931,341.246 357.069 C 341.698 358.207,342.315 360.637,342.618 362.469 L 343.168 365.800 343.049 362.787 C 342.938 359.936,342.004 356.374,339.120 347.800 C 338.676 346.480,337.905 343.960,337.408 342.200 C 336.911 340.440,336.205 338.290,335.839 337.421 C 335.474 336.553,334.745 334.213,334.218 332.221 C 333.692 330.230,332.905 327.610,332.469 326.400 C 331.447 323.561,328.594 314.439,327.841 311.600 C 327.520 310.390,326.904 308.410,326.473 307.200 C 326.042 305.990,324.958 302.660,324.065 299.800 C 323.172 296.940,321.971 293.160,321.395 291.400 C 320.820 289.640,319.936 286.760,319.430 285.000 C 318.924 283.240,318.283 281.260,318.004 280.600 C 317.726 279.940,316.997 277.600,316.384 275.400 C 315.771 273.200,314.900 270.320,314.449 269.000 C 312.766 264.073,311.504 260.085,310.399 256.200 C 309.310 252.374,308.794 250.740,306.543 244.000 C 305.992 242.350,305.118 239.470,304.602 237.600 C 304.086 235.730,303.204 232.850,302.643 231.200 C 301.052 226.523,298.885 219.583,298.396 217.600 C 298.152 216.610,297.532 214.630,297.019 213.200 C 295.497 208.958,293.550 202.835,292.568 199.200 C 292.063 197.330,291.211 194.540,290.675 193.000 C 286.422 180.795,285.973 176.327,288.097 167.400 C 288.673 164.980,289.352 161.200,289.606 159.000 C 289.860 156.800,290.504 152.969,291.038 150.486 C 291.572 148.003,292.283 143.881,292.618 141.327 C 292.953 138.772,293.653 134.594,294.174 132.041 C 294.694 129.488,295.418 125.240,295.782 122.600 C 296.146 119.960,296.695 116.810,297.002 115.600 C 297.308 114.390,297.931 110.790,298.385 107.600 C 298.840 104.410,299.580 100.090,300.029 98.000 C 300.479 95.910,301.117 92.130,301.447 89.600 C 301.777 87.070,302.472 83.020,302.990 80.600 C 303.508 78.180,304.140 74.400,304.394 72.200 C 304.649 70.000,305.288 66.266,305.816 63.902 C 306.343 61.538,307.038 57.488,307.360 54.902 C 307.681 52.316,308.329 48.490,308.800 46.400 C 309.270 44.310,309.911 40.530,310.225 38.000 C 310.538 35.470,311.359 30.881,312.049 27.802 C 313.292 22.257,313.298 22.180,312.661 19.602 C 312.308 18.171,311.970 16.564,311.910 16.031 C 311.849 15.499,311.585 14.992,311.322 14.905 C 311.014 14.804,310.904 15.080,311.012 15.679 M223.896 82.698 C 222.177 84.606,221.056 88.963,220.215 97.000 C 219.888 100.117,219.272 103.602,218.825 104.860 C 218.341 106.219,217.770 109.632,217.391 113.425 C 217.024 117.101,216.435 120.659,215.978 121.959 C 215.547 123.185,215.007 125.810,214.777 127.794 C 213.759 136.575,213.544 137.941,212.798 140.321 C 212.364 141.708,211.723 145.578,211.375 148.921 C 211.026 152.265,210.412 155.990,210.010 157.200 C 209.608 158.410,209.061 160.471,208.795 161.780 C 207.932 166.019,206.625 168.047,194.168 184.481 C 191.950 187.406,189.070 191.265,187.768 193.057 C 185.009 196.851,179.489 204.189,174.274 210.994 C 172.253 213.631,169.430 217.420,168.000 219.415 C 166.570 221.409,163.825 225.102,161.899 227.621 C 155.782 235.621,147.660 246.464,144.681 250.606 C 143.097 252.810,140.149 256.770,138.131 259.406 C 131.749 267.743,123.520 278.732,120.050 283.549 C 118.208 286.107,115.757 289.370,114.604 290.800 C 113.452 292.230,110.960 295.560,109.067 298.200 C 107.175 300.840,103.989 305.160,101.989 307.800 C 99.989 310.440,97.778 313.361,97.076 314.290 C 96.374 315.220,93.857 318.550,91.483 321.690 C 86.929 327.713,78.236 339.369,73.200 346.204 C 69.122 351.739,60.978 362.607,55.818 369.400 C 49.865 377.237,43.628 385.583,39.400 391.370 C 36.204 395.744,29.551 404.650,26.274 408.940 C 25.627 409.788,24.850 411.301,24.549 412.304 C 23.735 415.009,23.888 415.258,24.955 412.965 C 26.222 410.244,28.112 407.567,36.789 396.200 C 37.797 394.880,39.923 392.000,41.513 389.800 C 43.104 387.600,45.580 384.270,47.015 382.400 C 48.450 380.530,50.584 377.650,51.759 376.000 C 52.934 374.350,55.133 371.440,56.647 369.534 C 58.161 367.628,60.210 364.934,61.200 363.549 C 62.190 362.163,64.629 358.863,66.620 356.215 C 72.974 347.765,74.973 345.108,78.627 340.255 C 80.592 337.646,83.707 333.416,85.549 330.855 C 87.390 328.295,89.518 325.434,90.277 324.498 C 91.036 323.561,92.769 321.309,94.129 319.492 C 95.488 317.674,97.085 315.560,97.678 314.794 C 98.271 314.027,101.511 309.678,104.878 305.130 C 113.531 293.441,114.475 292.173,117.079 288.747 C 120.306 284.502,129.879 271.680,134.200 265.816 C 136.180 263.129,138.800 259.686,140.023 258.165 C 141.246 256.644,143.446 253.690,144.914 251.600 C 146.381 249.510,148.848 246.180,150.396 244.200 C 151.945 242.220,153.920 239.610,154.786 238.400 C 156.826 235.552,160.755 230.257,165.969 223.335 C 168.262 220.291,171.490 216.000,173.143 213.800 C 174.796 211.600,176.649 209.170,177.261 208.400 C 179.092 206.096,186.734 195.828,190.800 190.208 C 192.890 187.320,196.121 183.000,197.980 180.609 C 201.634 175.909,204.539 171.912,206.900 168.337 C 208.903 165.303,211.283 156.362,212.190 148.464 C 212.552 145.309,213.190 141.619,213.606 140.264 C 214.023 138.909,214.647 135.280,214.994 132.200 C 215.340 129.120,216.056 124.800,216.584 122.600 C 217.112 120.400,217.836 116.124,218.192 113.098 C 218.548 110.071,219.106 106.741,219.432 105.698 C 219.757 104.654,220.464 100.574,221.003 96.631 C 222.050 88.972,222.792 85.808,224.047 83.650 C 224.931 82.131,224.852 81.636,223.896 82.698 "
       stroke="none"
       fill="#bcbcbc"
       fill-rule="evenodd" />
    <path
       id="path8"
       d="M238.193 2.388 C 238.476 2.847,237.671 4.331,236.676 5.185 C 236.157 5.630,235.903 6.544,235.783 8.403 C 235.439 13.696,235.142 15.868,234.386 18.606 C 233.960 20.150,233.251 24.020,232.810 27.206 C 232.370 30.393,231.741 34.000,231.413 35.222 C 231.085 36.444,230.465 40.134,230.037 43.422 C 229.608 46.710,228.888 50.933,228.436 52.806 C 227.465 56.831,226.400 65.472,226.400 69.320 L 226.400 72.045 227.362 70.926 C 228.129 70.035,228.240 69.649,227.909 69.030 C 227.126 67.567,228.159 57.784,229.792 51.200 C 230.092 49.990,230.622 46.740,230.969 43.979 C 231.317 41.217,231.948 37.347,232.372 35.379 C 232.796 33.410,233.440 29.730,233.802 27.200 C 234.165 24.670,234.891 20.800,235.416 18.600 C 235.942 16.400,236.490 12.800,236.635 10.600 C 236.858 7.223,237.079 6.280,238.054 4.544 C 239.036 2.795,239.115 2.453,238.583 2.249 C 238.239 2.117,238.064 2.179,238.193 2.388 M310.644 17.100 C 310.770 18.145,311.048 19.579,311.263 20.287 C 311.545 21.217,311.490 22.214,311.065 23.887 C 310.305 26.877,309.356 32.107,308.794 36.400 C 308.549 38.270,307.920 41.960,307.396 44.600 C 306.872 47.240,306.246 50.930,306.005 52.800 C 305.764 54.670,305.227 57.820,304.811 59.800 C 304.395 61.780,303.682 65.864,303.226 68.875 C 302.771 71.887,302.050 76.117,301.625 78.275 C 301.199 80.434,300.483 84.720,300.032 87.800 C 299.582 90.880,299.040 94.030,298.828 94.800 C 298.616 95.570,297.891 99.775,297.217 104.145 C 296.543 108.515,295.907 112.227,295.804 112.393 C 295.702 112.559,294.986 116.544,294.215 121.248 C 293.443 125.951,292.466 131.780,292.042 134.200 C 291.619 136.620,291.161 139.500,291.026 140.600 C 290.890 141.700,290.340 144.850,289.802 147.600 C 289.265 150.350,288.554 154.580,288.221 157.000 C 287.888 159.420,287.153 163.560,286.587 166.200 C 284.644 175.266,284.811 181.528,287.163 187.800 C 288.084 190.257,290.632 198.410,291.663 202.200 C 292.082 203.740,292.757 205.900,293.163 207.000 C 293.570 208.100,294.626 211.340,295.510 214.200 C 298.714 224.559,300.502 230.280,301.822 234.400 C 302.562 236.710,303.917 241.030,304.832 244.000 C 305.747 246.970,307.090 251.290,307.815 253.600 C 308.541 255.910,309.887 260.230,310.808 263.200 C 311.728 266.170,313.000 270.220,313.634 272.200 C 314.268 274.180,315.256 277.330,315.829 279.200 C 316.402 281.070,317.024 283.050,317.210 283.600 C 318.564 287.587,320.867 295.042,321.412 297.200 C 321.773 298.630,322.391 300.610,322.785 301.600 C 323.640 303.747,326.591 313.054,327.224 315.600 C 327.470 316.590,328.922 321.270,330.450 326.000 C 331.978 330.730,333.871 336.670,334.658 339.200 C 335.444 341.730,336.695 345.690,337.438 348.000 C 341.388 360.282,341.823 362.220,341.086 364.250 C 340.856 364.885,340.958 365.164,341.489 365.351 C 341.880 365.488,342.397 365.696,342.637 365.813 C 343.283 366.126,342.233 359.555,341.236 357.045 C 340.790 355.920,340.052 353.583,339.597 351.851 C 339.142 350.119,338.493 348.049,338.155 347.251 C 337.817 346.453,337.208 344.540,336.803 343.000 C 336.397 341.460,335.608 338.850,335.049 337.200 C 334.025 334.173,331.659 326.642,326.128 308.800 C 325.344 306.270,324.195 302.760,323.575 301.000 C 322.955 299.240,322.171 296.592,321.833 295.114 C 321.495 293.637,320.790 291.375,320.266 290.086 C 319.742 288.797,319.084 286.766,318.802 285.571 C 318.520 284.377,317.931 282.500,317.492 281.400 C 317.054 280.300,316.287 277.870,315.788 276.000 C 314.920 272.746,313.731 268.990,311.928 263.800 C 311.469 262.480,310.602 259.600,310.000 257.400 C 309.398 255.200,308.531 252.320,308.072 251.000 C 306.189 245.581,305.059 242.020,304.202 238.800 C 303.703 236.930,302.905 234.426,302.428 233.235 C 301.951 232.044,301.313 230.064,301.011 228.835 C 300.708 227.606,300.005 225.250,299.447 223.600 C 298.531 220.888,297.526 217.703,293.386 204.400 C 290.522 195.197,288.619 189.231,287.452 185.800 C 285.714 180.691,285.733 174.777,287.515 166.200 C 288.201 162.900,288.960 158.580,289.203 156.600 C 289.445 154.620,290.067 151.020,290.584 148.600 C 291.101 146.180,291.735 142.490,291.994 140.400 C 292.252 138.310,292.883 134.530,293.398 132.000 C 293.912 129.470,294.621 125.307,294.973 122.749 C 295.326 120.190,295.961 116.500,296.385 114.549 C 296.809 112.597,297.523 108.446,297.972 105.323 C 298.421 102.201,299.140 98.061,299.571 96.123 C 300.002 94.186,300.550 90.980,300.787 89.000 C 301.025 87.020,301.665 83.150,302.210 80.400 C 302.754 77.650,303.474 73.420,303.810 71.000 C 304.145 68.580,304.853 64.530,305.383 62.000 C 305.913 59.470,306.468 56.230,306.617 54.800 C 306.766 53.370,307.417 49.500,308.064 46.200 C 308.711 42.900,309.512 38.130,309.845 35.600 C 310.178 33.070,310.889 29.139,311.425 26.865 C 312.594 21.904,312.609 21.308,311.641 18.123 C 311.226 16.761,310.988 15.546,311.110 15.423 C 311.233 15.300,311.127 15.200,310.874 15.200 C 310.561 15.200,310.488 15.804,310.644 17.100 M224.286 83.237 C 222.784 85.825,222.097 88.631,221.003 96.631 C 220.464 100.574,219.757 104.654,219.432 105.698 C 219.106 106.741,218.548 110.071,218.192 113.098 C 217.836 116.124,217.112 120.400,216.584 122.600 C 216.056 124.800,215.340 129.120,214.994 132.200 C 214.647 135.280,214.023 138.909,213.606 140.264 C 213.190 141.619,212.552 145.309,212.190 148.464 C 211.283 156.362,208.903 165.303,206.900 168.337 C 204.539 171.912,201.634 175.909,197.980 180.609 C 196.121 183.000,192.890 187.320,190.800 190.208 C 186.734 195.828,179.092 206.096,177.261 208.400 C 176.649 209.170,174.796 211.600,173.143 213.800 C 171.490 216.000,168.262 220.291,165.969 223.335 C 160.755 230.257,156.826 235.552,154.786 238.400 C 153.920 239.610,151.945 242.220,150.396 244.200 C 148.848 246.180,146.381 249.510,144.914 251.600 C 143.446 253.690,141.246 256.644,140.023 258.165 C 138.800 259.686,136.180 263.129,134.200 265.816 C 129.879 271.680,120.306 284.502,117.079 288.747 C 114.475 292.173,113.531 293.441,104.878 305.130 C 101.511 309.678,98.271 314.027,97.678 314.794 C 97.085 315.560,95.488 317.674,94.129 319.492 C 92.769 321.309,91.036 323.561,90.277 324.498 C 89.518 325.434,87.390 328.295,85.549 330.855 C 83.707 333.416,80.592 337.646,78.627 340.255 C 74.973 345.108,72.974 347.765,66.620 356.215 C 64.629 358.863,62.190 362.163,61.200 363.549 C 60.210 364.934,58.161 367.628,56.647 369.534 C 55.133 371.440,52.934 374.350,51.759 376.000 C 50.584 377.650,48.450 380.530,47.015 382.400 C 45.580 384.270,43.104 387.600,41.513 389.800 C 39.923 392.000,37.797 394.880,36.789 396.200 C 27.134 408.848,23.440 414.373,24.157 415.090 C 24.658 415.592,26.592 413.873,26.642 412.881 C 26.717 411.381,27.902 409.550,34.161 401.262 C 37.042 397.446,40.300 393.028,41.400 391.443 C 42.500 389.859,44.394 387.311,45.609 385.781 C 46.823 384.252,48.881 381.560,50.182 379.800 C 51.482 378.040,53.362 375.520,54.360 374.200 C 55.358 372.880,58.116 369.190,60.490 366.000 C 62.864 362.810,66.506 357.950,68.583 355.200 C 75.437 346.127,83.390 335.527,83.996 334.656 C 85.427 332.600,100.701 312.192,104.545 307.200 C 106.154 305.110,109.148 301.060,111.198 298.200 C 113.248 295.340,115.685 292.100,116.613 291.000 C 117.541 289.900,119.700 287.020,121.412 284.600 C 123.123 282.180,126.111 278.130,128.052 275.600 C 133.267 268.801,140.986 258.512,144.400 253.807 C 147.333 249.766,155.846 238.388,163.410 228.400 C 167.203 223.393,172.390 216.461,180.472 205.600 C 182.846 202.410,185.658 198.720,186.722 197.400 C 187.786 196.080,189.708 193.470,190.994 191.600 C 192.280 189.730,195.277 185.680,197.653 182.600 C 209.707 166.977,211.441 163.327,212.799 150.717 C 213.043 148.453,213.755 144.260,214.381 141.400 C 215.007 138.540,215.730 134.310,215.986 132.000 C 216.242 129.690,216.885 125.865,217.414 123.499 C 217.943 121.133,218.653 116.993,218.991 114.299 C 219.329 111.605,219.890 108.140,220.238 106.600 C 221.257 102.088,221.505 100.740,221.780 98.200 C 222.656 90.112,224.169 84.400,225.437 84.400 C 226.233 84.400,226.334 83.907,225.798 82.637 L 225.308 81.473 224.286 83.237 "
       stroke="none"
       fill="#c9c4d9"
       fill-rule="evenodd" />
  </g>
</svg>
