<?xml version="1.0" standalone="no"?>
<!DOCTYPE svg PUBLIC "-//W3C//DTD SVG 20010904//EN"
 "http://www.w3.org/TR/2001/REC-SVG-20010904/DTD/svg10.dtd">
<svg version="1.0" xmlns="http://www.w3.org/2000/svg"
 width="158.000000pt" height="138.000000pt" viewBox="0 0 158.000000 138.000000"
 preserveAspectRatio="xMidYMid meet">
<metadata>
Created by potrace 1.16, written by Peter Selinger 2001-2019
</metadata>
<g transform="translate(0.000000,138.000000) scale(0.100000,-0.100000)"
fill="#000000" stroke="none">
<path d="M17 1373 c-4 -3 -7 -16 -7 -27 0 -12 168 -312 373 -666 361 -626 373
-645 404 -648 39 -4 -7 -78 432 685 239 416 351 620 349 635 l-3 23 -771 3
c-424 1 -774 -1 -777 -5z m123 -32 c9 -37 30 -38 30 -2 0 27 4 31 26 31 17 0
28 -6 31 -20 4 -13 14 -20 30 -20 16 0 27 7 30 20 6 24 21 26 29 5 4 -8 14
-15 23 -15 9 0 23 -6 30 -12 11 -11 13 -10 8 5 -10 28 30 37 159 37 99 0 116
-2 133 -19 21 -21 61 -18 61 5 0 10 14 14 50 14 46 0 63 -11 41 -25 -6 -3 -6
-17 1 -36 14 -39 51 -38 56 3 3 29 15 42 49 52 19 6 23 3 23 -13 0 -21 19 -20
49 3 15 12 411 18 411 7 0 -8 59 -5 85 4 15 5 16 4 6 -3 -18 -13 -6 -46 14
-38 18 7 18 4 4 -28 -6 -13 -20 -27 -30 -29 -13 -3 -19 -14 -19 -32 0 -28 -28
-85 -42 -85 -4 0 -8 -7 -8 -16 0 -23 -43 -94 -58 -94 -7 0 -20 4 -30 9 -9 6
-29 12 -44 16 -17 3 -28 12 -28 22 0 14 -3 13 -20 -5 -17 -18 -23 -20 -34 -10
-12 11 -8 17 22 35 32 20 62 53 47 53 -4 0 -51 -26 -105 -57 -95 -55 -113 -75
-85 -95 17 -13 28 -9 16 5 -13 16 -5 28 15 20 8 -3 17 2 20 11 8 20 44 42 44
26 0 -5 -7 -10 -15 -10 -25 0 -17 -19 25 -61 34 -34 42 -38 60 -29 11 6 20 15
20 20 0 6 9 10 21 10 11 0 18 4 14 9 -3 6 4 8 16 6 13 -3 29 1 37 7 19 17 -27
-62 -55 -93 -13 -14 -23 -30 -22 -35 5 -17 -12 -54 -26 -54 -13 0 -25 -21 -25
-44 0 -7 -25 -59 -56 -115 -40 -72 -60 -99 -67 -92 -18 18 -33 13 -45 -14 -9
-20 -8 -26 8 -38 18 -13 17 -15 -20 -74 -21 -33 -43 -62 -49 -64 -7 -3 -13
-14 -13 -26 -3 -28 -25 -19 -24 10 1 15 -6 23 -21 25 -25 4 -30 17 -12 28 6 3
9 17 6 30 -4 21 0 23 35 26 30 2 43 9 56 30 19 33 12 42 -33 43 -36 2 -47 -10
-40 -45 2 -11 0 -20 -6 -20 -5 0 -9 3 -9 8 0 4 -18 6 -40 4 -31 -3 -40 -8 -40
-23 0 -10 -6 -19 -12 -19 -9 0 -8 -4 2 -10 8 -5 10 -10 4 -10 -12 0 -13 -63
-1 -90 3 -8 7 -24 9 -35 3 -17 11 -20 51 -18 l47 3 -16 -33 c-9 -17 -20 -34
-24 -37 -3 -3 -16 -25 -28 -50 -31 -66 -80 -140 -92 -140 -5 0 -10 9 -10 21 0
11 -3 18 -7 16 -5 -3 -9 5 -9 18 -1 13 4 26 12 29 22 9 16 42 -10 54 -21 9
-25 7 -35 -15 -8 -18 -9 -29 -1 -38 6 -7 7 -16 2 -19 -9 -5 -95 136 -99 163
-1 9 -8 20 -16 26 -7 5 -20 22 -28 37 -8 15 -29 52 -47 84 -21 35 -35 73 -37
102 -2 25 -11 52 -20 61 -12 12 -16 12 -13 2 4 -19 -18 -25 -25 -7 -9 23 39
106 60 106 7 0 17 9 23 19 8 17 4 23 -34 44 -40 22 -47 23 -65 11 -16 -11 -19
-22 -14 -49 7 -46 -20 -48 -43 -3 -14 28 -14 32 -1 40 12 6 14 15 6 40 -12 45
-25 55 -49 40 -17 -10 -21 -8 -33 16 -8 15 -12 32 -10 39 2 6 -5 17 -16 23
-22 11 -29 53 -8 48 19 -4 57 21 57 37 0 8 -8 15 -17 15 -14 0 -12 3 6 13 34
17 37 33 7 41 -18 4 -39 31 -77 96 -61 107 -84 116 -84 34 0 -48 2 -51 22 -49
27 3 50 -19 32 -31 -8 -5 -9 -3 -4 6 6 9 4 11 -5 5 -9 -6 -11 -4 -5 5 5 9 4
11 -3 6 -9 -5 -9 -12 0 -26 7 -11 16 -16 23 -11 6 6 20 -7 37 -34 22 -37 24
-46 12 -56 -8 -6 -14 -18 -14 -26 0 -14 -3 -14 -22 0 -13 8 -22 20 -21 26 2 6
-8 22 -22 37 -13 14 -27 36 -31 47 -4 12 -13 27 -20 35 -8 7 -14 24 -14 37 0
13 -6 25 -12 28 -10 4 -10 7 0 18 19 20 15 73 -8 94 -11 10 -20 24 -20 31 0
18 -38 28 -55 14 -8 -7 -15 -8 -15 -3 0 18 12 22 63 20 45 -2 52 -5 57 -26z
m750 -875 c0 -3 -4 -8 -10 -11 -5 -3 -10 -1 -10 4 0 6 5 11 10 11 6 0 10 -2
10 -4z m20 -65 c0 -20 -19 -41 -37 -41 -16 0 -17 42 -2 57 15 15 39 5 39 -16z"/>
<path d="M1214 1335 c-4 -8 -4 -21 -1 -28 3 -8 -4 -14 -18 -15 -16 -1 -26 5
-30 18 -8 24 -18 25 -35 5 -8 -10 -9 -19 -3 -27 5 -7 6 -24 2 -38 -4 -14 -7
-19 -8 -11 -1 8 -4 12 -7 8 -7 -7 22 -52 34 -52 4 0 7 -7 6 -16 0 -19 29 -14
47 7 9 11 8 14 -2 14 -8 0 0 9 16 20 l30 20 -35 0 c-36 0 -60 14 -60 35 0 6
18 9 46 6 37 -2 45 0 38 10 -6 10 -3 10 11 -1 11 -9 16 -10 11 -2 -4 6 -3 12
3 12 7 0 7 8 -1 25 -13 28 -36 33 -44 10z"/>
<path d="M1347 1331 c3 -12 12 -21 20 -21 20 0 12 34 -9 38 -12 2 -15 -2 -11
-17z"/>
<path d="M449 1306 c10 -11 9 -16 -5 -24 -11 -6 -13 -11 -5 -16 22 -14 10 -26
-26 -26 l-38 0 34 -21 c37 -22 40 -21 70 33 24 44 19 68 -16 68 -21 0 -23 -3
-14 -14z"/>
<path d="M343 1299 c-18 -5 -33 -11 -33 -12 0 -2 17 -3 39 -2 26 0 37 4 34 13
-3 6 -6 12 -7 11 0 0 -16 -5 -33 -10z"/>
<path d="M200 1290 c0 -5 14 -10 31 -10 17 0 28 4 24 10 -3 6 -17 10 -31 10
-13 0 -24 -4 -24 -10z"/>
<path d="M1310 1292 c0 -5 14 -9 32 -10 23 -1 28 2 18 8 -19 12 -50 13 -50 2z"/>
<path d="M742 1268 c-18 -18 -15 -51 4 -44 9 3 22 6 30 6 19 0 18 36 -2 44
-20 8 -18 8 -32 -6z"/>
<path d="M970 1267 c0 -21 46 -39 59 -23 8 10 5 16 -15 24 -33 16 -44 15 -44
-1z"/>
<path d="M598 1240 c-3 -16 -1 -30 4 -30 4 0 8 14 8 30 0 17 -2 30 -4 30 -2 0
-6 -13 -8 -30z"/>
<path d="M1411 1222 c-6 -11 -8 -22 -5 -24 2 -3 -2 -11 -11 -18 -18 -15 -20
-30 -3 -30 6 0 8 3 5 7 -4 3 7 15 24 25 18 11 29 25 27 35 -5 24 -25 27 -37 5z"/>
<path d="M1070 1210 c-8 -5 -25 -10 -36 -10 -32 0 -48 -24 -34 -49 6 -12 17
-21 26 -21 27 0 74 43 74 67 0 25 -7 28 -30 13z"/>
<path d="M804 1195 c11 -8 24 -15 30 -15 5 0 1 7 -10 15 -10 8 -23 14 -29 14
-5 0 -1 -6 9 -14z"/>
<path d="M726 1181 c-4 -5 3 -7 14 -4 23 6 26 13 6 13 -8 0 -17 -4 -20 -9z"/>
<path d="M405 1170 c3 -5 11 -10 16 -10 6 0 7 5 4 10 -3 6 -11 10 -16 10 -6 0
-7 -4 -4 -10z"/>
<path d="M350 1153 c0 -13 46 -85 55 -85 9 0 25 23 25 38 0 6 -18 20 -40 33
-22 12 -40 19 -40 14z"/>
<path d="M552 1140 c-13 -21 -7 -46 11 -53 8 -3 12 7 11 30 -2 43 -7 47 -22
23z"/>
<path d="M745 1131 c-44 -20 -109 -86 -99 -102 3 -5 -2 -21 -10 -34 -9 -14
-12 -25 -6 -25 6 0 6 -9 0 -26 -6 -14 -10 -40 -9 -57 l1 -32 10 35 c5 19 9 43
9 53 0 9 6 17 12 17 7 0 6 4 -3 10 -11 7 -11 10 -2 10 7 0 10 4 7 10 -3 6 1 7
9 4 9 -3 13 -11 9 -17 -4 -6 0 -8 10 -4 9 3 16 3 14 -1 -1 -4 2 -9 7 -12 5 -3
10 3 12 13 1 9 -2 17 -7 17 -5 0 -9 5 -9 10 0 6 6 10 14 10 8 0 13 -10 12 -22
-1 -15 5 -23 16 -23 9 0 20 -3 23 -7 4 -4 14 -1 21 7 19 18 18 31 -1 15 -9 -8
-15 -9 -15 -2 0 6 4 13 9 17 13 8 10 63 -4 75 -8 6 -18 5 -31 -6 -18 -14 -18
-15 4 -4 21 10 22 9 17 -22 -4 -18 -11 -37 -17 -43 -8 -7 -9 -6 -4 3 4 6 2 12
-3 12 -6 0 -11 6 -11 14 0 8 -5 18 -12 22 -6 4 -8 3 -5 -3 4 -6 -1 -18 -11
-26 -17 -15 -19 -15 -34 2 -15 18 -14 20 8 40 14 12 31 18 41 15 13 -4 15 -3
5 4 -11 7 -11 10 2 15 9 4 16 1 16 -5 0 -7 6 -4 13 7 11 14 22 17 56 12 53 -7
60 -13 35 -32 -19 -15 -19 -15 0 -8 14 5 17 3 11 -7 -5 -8 -4 -11 3 -6 6 3 17
0 25 -9 13 -12 17 -12 26 -1 9 11 7 15 -6 21 -10 5 -24 7 -32 6 -7 -1 -10 2
-6 8 10 17 21 13 55 -15 40 -35 60 -74 64 -130 2 -36 0 -44 -11 -39 -8 3 -17
5 -19 5 -3 0 -2 6 2 13 5 8 2 8 -9 -2 -9 -7 -17 -10 -17 -7 0 4 -8 2 -18 -3
-13 -7 -23 -6 -30 1 -17 17 -26 3 -13 -19 6 -10 11 -13 11 -6 0 6 9 9 20 6 13
-3 20 0 20 8 1 8 7 3 15 -11 11 -19 14 -21 15 -7 0 20 11 22 27 6 9 -9 15 -1
24 30 19 65 -1 140 -51 185 -62 56 -135 69 -205 37z"/>
<path d="M1347 1113 c-11 -11 -8 -20 7 -20 8 0 12 6 9 14 -6 15 -7 15 -16 6z"/>
<path d="M349 1109 c-6 -31 -5 -35 12 -35 11 0 19 3 19 7 0 7 -30 34 -31 28z"/>
<path d="M785 1091 c-3 -5 -1 -12 5 -16 5 -3 10 1 10 9 0 18 -6 21 -15 7z"/>
<path d="M490 1040 c-6 -11 -8 -21 -5 -21 41 -10 55 -21 53 -45 -1 -13 -7 -24
-12 -24 -5 0 -6 -3 -3 -7 4 -3 2 -12 -4 -19 -8 -10 -6 -19 5 -36 9 -12 16 -29
16 -38 0 -21 35 -88 60 -115 11 -12 18 -23 16 -26 -3 -2 9 -12 25 -21 18 -11
27 -13 24 -5 -4 6 2 2 13 -10 22 -25 38 -31 26 -10 -6 9 -5 9 8 0 8 -7 19 -9
23 -5 5 4 5 1 1 -5 -4 -7 -2 -13 4 -13 6 0 10 -6 9 -12 -3 -27 2 -37 16 -32
11 4 15 21 15 55 0 43 -3 49 -20 49 -47 0 -142 68 -155 111 -4 10 -10 19 -14
19 -18 0 -36 69 -36 138 0 54 -4 75 -15 82 -23 15 -38 12 -50 -10z"/>
<path d="M670 1041 c0 -6 5 -13 10 -16 6 -3 10 1 10 9 0 9 -4 16 -10 16 -5 0
-10 -4 -10 -9z"/>
<path d="M829 1031 c0 -3 -2 -14 -4 -23 -3 -14 1 -15 23 -7 18 7 28 6 34 -3 6
-11 8 -10 8 0 0 7 -6 19 -12 25 -14 13 -48 19 -49 8z"/>
<path d="M386 1021 c-12 -18 2 -61 19 -61 8 0 15 -4 15 -10 0 -5 5 -10 11 -10
5 0 7 5 3 12 -5 8 -2 9 12 4 10 -4 15 -4 11 0 -4 4 -1 17 7 29 13 20 13 21
-16 17 -20 -3 -33 1 -42 13 -9 13 -15 15 -20 6z"/>
<path d="M940 1015 c0 -8 4 -15 10 -15 5 0 7 7 4 15 -4 8 -8 15 -10 15 -2 0
-4 -7 -4 -15z"/>
<path d="M948 983 c7 -3 16 -2 19 1 4 3 -2 6 -13 5 -11 0 -14 -3 -6 -6z"/>
<path d="M312 962 c-28 -22 -20 -52 13 -52 36 0 49 23 28 49 -17 20 -19 20
-41 3z"/>
<path d="M860 973 c0 -6 6 -14 13 -16 9 -4 8 -8 -3 -16 -8 -5 -11 -13 -7 -18
5 -4 12 -1 17 7 7 11 11 11 24 1 12 -10 16 -10 16 -2 0 8 8 10 20 6 26 -8 26
6 0 28 -22 19 -35 22 -25 7 9 -14 -29 -12 -43 2 -8 8 -12 9 -12 1z"/>
<path d="M810 953 c0 -15 2 -15 24 -7 22 9 20 20 -4 20 -11 0 -20 -6 -20 -13z"/>
<path d="M655 950 c-3 -5 -1 -10 4 -10 6 0 11 -5 11 -11 0 -5 -5 -7 -12 -3 -6
4 -8 3 -5 -3 9 -14 46 -23 52 -13 3 4 -2 11 -11 14 -9 4 -14 13 -10 21 6 17
-19 21 -29 5z"/>
<path d="M1150 942 c0 -26 37 -59 51 -45 6 6 9 21 7 34 -4 32 -58 42 -58 11z"/>
<path d="M714 939 c-5 -9 -2 -10 9 -6 9 3 18 2 21 -4 2 -5 3 -4 2 3 -3 17 -23
21 -32 7z"/>
<path d="M1072 925 c0 -16 2 -22 5 -12 2 9 2 23 0 30 -3 6 -5 -1 -5 -18z"/>
<path d="M760 925 c0 -8 -4 -15 -10 -15 -18 0 -10 -16 8 -17 15 -1 18 4 14 23
-5 27 -12 32 -12 9z"/>
<path d="M830 930 c-9 -6 -10 -10 -3 -10 6 0 15 5 18 10 8 12 4 12 -15 0z"/>
<path d="M1102 918 c-7 -7 -12 -16 -12 -20 0 -12 28 -10 36 3 10 17 -10 31
-24 17z"/>
<path d="M822 898 c-16 -16 -15 -25 3 -25 9 0 14 6 11 13 -3 7 0 15 7 18 7 2
7 5 2 5 -6 1 -16 -4 -23 -11z"/>
<path d="M675 869 c-5 -5 -19 -17 -30 -25 -15 -11 -12 -11 14 2 32 15 35 15
45 -2 16 -28 16 -43 0 -37 -8 3 -14 11 -14 19 0 16 -16 19 -24 5 -3 -5 1 -11
9 -14 8 -4 12 -14 10 -25 -2 -10 2 -19 8 -20 7 -1 24 -4 40 -8 18 -4 27 -2 27
5 0 7 5 9 10 6 6 -4 8 -11 5 -16 -4 -5 2 -6 12 -2 16 6 17 5 3 -12 -13 -16
-13 -18 0 -13 22 7 24 38 3 53 -12 9 -22 10 -30 3 -15 -12 -34 -1 -31 18 3 13
-32 74 -42 73 -3 0 -9 -4 -15 -10z m61 -90 c8 -14 -10 -11 -32 6 -18 13 -18
14 4 8 12 -3 25 -9 28 -14z"/>
<path d="M768 851 c-10 -12 -13 -23 -7 -32 7 -11 9 -10 9 4 0 14 5 17 23 12
19 -5 20 -5 4 5 -9 6 -15 15 -12 21 10 15 0 10 -17 -10z"/>
<path d="M842 850 c-13 -21 -5 -53 11 -47 7 2 14 14 18 28 l7 24 1 -25 c1 -17
4 -21 9 -12 5 7 15 10 24 7 9 -4 15 0 15 9 0 8 -4 13 -9 10 -4 -3 -8 3 -9 13
0 16 -1 16 -9 -2 -6 -14 -9 -15 -9 -5 -1 22 -35 22 -49 0z"/>
<path d="M955 850 c-3 -5 -1 -10 4 -10 6 0 11 5 11 10 0 6 -2 10 -4 10 -3 0
-8 -4 -11 -10z"/>
<path d="M1063 844 c3 -4 -1 -13 -9 -21 -8 -8 -11 -20 -7 -26 3 -7 3 -9 -2 -5
-4 4 -21 -6 -39 -23 -33 -31 -105 -69 -131 -69 -17 0 -21 -35 -5 -45 6 -3 10
-15 10 -26 0 -14 5 -19 18 -17 12 3 16 12 15 33 -2 27 23 59 39 49 4 -2 19 11
33 31 15 19 31 33 35 30 5 -3 11 -1 15 5 14 22 35 10 35 -20 0 -20 5 -30 15
-30 13 0 15 10 11 53 -6 62 -14 87 -29 87 -6 0 -8 -3 -4 -6z"/>
<path d="M782 808 c3 -7 15 -14 27 -16 16 -3 20 -8 16 -22 -7 -22 17 -33 47
-20 13 5 17 9 9 9 -11 1 -10 5 4 21 10 11 21 17 26 15 4 -3 10 -1 14 5 7 11 0
12 -32 4 -13 -4 -21 -10 -18 -14 2 -4 -4 -15 -15 -25 -19 -17 -20 -17 -20 2 0
12 -11 28 -25 37 -29 19 -38 20 -33 4z"/>
<path d="M565 644 c-15 -15 -15 -18 -2 -26 8 -4 27 -7 41 -6 21 2 26 7 24 23
-4 26 -40 31 -63 9z"/>
<path d="M843 632 c-1 -22 0 -24 9 -8 6 10 6 22 2 26 -5 5 -10 -3 -11 -18z"/>
<path d="M720 576 c0 -2 9 -6 20 -9 11 -3 20 -1 20 4 0 5 -9 9 -20 9 -11 0
-20 -2 -20 -4z"/>
<path d="M843 573 c4 -3 19 -8 34 -9 21 -2 24 -1 13 6 -17 11 -57 14 -47 3z"/>
<path d="M632 546 c-23 -12 -49 -29 -58 -38 -15 -15 -14 -17 5 -23 11 -3 21
-10 21 -14 0 -5 19 -5 42 -1 24 5 47 6 52 3 5 -3 21 -6 36 -5 l27 1 2 -82 c1
-45 7 -87 13 -94 6 -8 8 -16 5 -20 -4 -3 8 -13 26 -22 30 -15 33 -15 44 0 10
14 10 24 -2 51 -11 26 -14 29 -15 11 0 -30 -20 -40 -20 -10 0 14 -7 27 -15 31
-12 4 -15 24 -15 91 l0 85 -35 0 c-36 0 -81 32 -70 50 4 6 5 9 3 9 -2 -1 -22
-11 -46 -23z"/>
<path d="M688 453 c7 -3 16 -2 19 1 4 3 -2 6 -13 5 -11 0 -14 -3 -6 -6z"/>
<path d="M667 403 c-10 -9 -9 -51 1 -57 13 -8 66 39 58 52 -8 13 -48 16 -59 5z"/>
</g>
</svg>
