<?xml version="1.0" encoding="UTF-8" standalone="no"?>
<svg
   width="256px"
   height="180px"
   viewBox="0 0 256 180"
   version="1.1"
   preserveAspectRatio="xMidYMid"
   id="svg8"
   sodipodi:docname="youtube-colour.svg"
   inkscape:version="1.1.2 (0a00cf5339, 2022-02-04)"
   xmlns:inkscape="http://www.inkscape.org/namespaces/inkscape"
   xmlns:sodipodi="http://sodipodi.sourceforge.net/DTD/sodipodi-0.dtd"
   xmlns="http://www.w3.org/2000/svg"
   xmlns:svg="http://www.w3.org/2000/svg">
  <defs
     id="defs12" />
  <sodipodi:namedview
     id="namedview10"
     pagecolor="#ffffff"
     bordercolor="#666666"
     borderopacity="1.0"
     inkscape:pageshadow="2"
     inkscape:pageopacity="0.0"
     inkscape:pagecheckerboard="0"
     showgrid="false"
     inkscape:zoom="4.3444444"
     inkscape:cx="122.45524"
     inkscape:cy="90"
     inkscape:window-width="1920"
     inkscape:window-height="980"
     inkscape:window-x="0"
     inkscape:window-y="64"
     inkscape:window-maximized="1"
     inkscape:current-layer="g6" />
  <g
     id="g6"
     style="fill:#000000;fill-opacity:1">
    <path
       id="path2"
       d="M 127.86914 0 C 127.86914 0 47.912593 0.16410818 28.046875 5.5820312 C 17.004238 8.5701293 8.378723 17.195645 5.390625 28.238281 C -0.61834423 63.536871 -2.9498099 117.32234 5.5546875 151.20898 C 8.5427855 162.25162 17.168301 170.87714 28.210938 173.86523 C 48.076656 179.28316 128.0332 179.2832 128.0332 179.2832 C 128.0332 179.2832 207.9878 179.28316 227.85352 173.86523 C 238.89615 170.87714 247.52167 162.25162 250.50977 151.20898 C 256.84709 115.86114 258.80095 62.108626 250.3457 28.074219 C 247.35761 17.031582 238.73209 8.4060668 227.68945 5.4179688 C 207.82374 4.567e-05 127.86914 -1.1842379e-15 127.86914 0 z M 102.41992 51.224609 L 168.75 89.642578 L 102.41992 128.06055 L 102.41992 51.224609 z "
       style="fill:#ff0000;fill-opacity:1" />
  </g>
</svg>
