<?xml version="1.0" encoding="UTF-8" standalone="no"?>
<svg
   width="255.1035"
   height="110.67458"
   viewBox="0 0 255.1035 110.67457"
   version="1.1"
   preserveAspectRatio="xMidYMid"
   id="svg166"
   sodipodi:docname="soundcloud-colour.svg"
   inkscape:version="1.2.1 (9c6d41e410, 2022-07-14)"
   xmlns:inkscape="http://www.inkscape.org/namespaces/inkscape"
   xmlns:sodipodi="http://sodipodi.sourceforge.net/DTD/sodipodi-0.dtd"
   xmlns="http://www.w3.org/2000/svg"
   xmlns:svg="http://www.w3.org/2000/svg">
  <sodipodi:namedview
     id="namedview168"
     pagecolor="#ffffff"
     bordercolor="#666666"
     borderopacity="1.0"
     inkscape:showpageshadow="2"
     inkscape:pageopacity="0.0"
     inkscape:pagecheckerboard="0"
     inkscape:deskcolor="#d1d1d1"
     showgrid="false"
     inkscape:zoom="5.4482759"
     inkscape:cx="120.86392"
     inkscape:cy="87.917722"
     inkscape:window-width="1920"
     inkscape:window-height="980"
     inkscape:window-x="0"
     inkscape:window-y="64"
     inkscape:window-maximized="1"
     inkscape:current-layer="svg166" />
  <defs
     id="defs132">
    <linearGradient
       x1="329.89059"
       y1="-4.9861314e-06"
       x2="329.89059"
       y2="35.419586"
       id="linearGradient-1"
       gradientTransform="scale(0.31984193,3.1265444)"
       gradientUnits="userSpaceOnUse">
      <stop
         stop-color="#F6871F"
         offset="0%"
         id="stop2" />
      <stop
         stop-color="#F57E20"
         offset="23.93%"
         id="stop4" />
      <stop
         stop-color="#F36621"
         offset="62.62%"
         id="stop6" />
      <stop
         stop-color="#F04923"
         offset="100%"
         id="stop8" />
    </linearGradient>
    <linearGradient
       x1="301.29535"
       y1="-8.7349581e-06"
       x2="301.29535"
       y2="34.861252"
       id="linearGradient-2"
       gradientTransform="scale(0.31480009,3.1766192)"
       gradientUnits="userSpaceOnUse">
      <stop
         stop-color="#F6871F"
         offset="0%"
         id="stop11" />
      <stop
         stop-color="#F57E20"
         offset="23.93%"
         id="stop13" />
      <stop
         stop-color="#F36621"
         offset="62.62%"
         id="stop15" />
      <stop
         stop-color="#F04923"
         offset="100%"
         id="stop17" />
    </linearGradient>
    <linearGradient
       x1="237.20953"
       y1="-1.3928522e-05"
       x2="237.20953"
       y2="34.436829"
       id="linearGradient-3"
       gradientTransform="scale(0.31096752,3.2157699)"
       gradientUnits="userSpaceOnUse">
      <stop
         stop-color="#F6871F"
         offset="0%"
         id="stop20" />
      <stop
         stop-color="#F57E20"
         offset="23.93%"
         id="stop22" />
      <stop
         stop-color="#F36621"
         offset="62.62%"
         id="stop24" />
      <stop
         stop-color="#F04923"
         offset="100%"
         id="stop26" />
    </linearGradient>
    <linearGradient
       x1="272.74835"
       y1="-8.0358996e-06"
       x2="272.74835"
       y2="34.213547"
       id="linearGradient-4"
       gradientTransform="scale(0.30894903,3.2367798)"
       gradientUnits="userSpaceOnUse">
      <stop
         stop-color="#F6871F"
         offset="0%"
         id="stop29" />
      <stop
         stop-color="#F57E20"
         offset="23.93%"
         id="stop31" />
      <stop
         stop-color="#F36621"
         offset="62.62%"
         id="stop33" />
      <stop
         stop-color="#F04923"
         offset="100%"
         id="stop35" />
    </linearGradient>
    <linearGradient
       x1="88.368019"
       y1="-2.1929985e-05"
       x2="88.368019"
       y2="40.835239"
       id="linearGradient-5"
       gradientTransform="scale(0.36874441,2.7119055)"
       gradientUnits="userSpaceOnUse">
      <stop
         stop-color="#F6871F"
         offset="0%"
         id="stop38" />
      <stop
         stop-color="#F57E20"
         offset="23.93%"
         id="stop40" />
      <stop
         stop-color="#F36621"
         offset="62.62%"
         id="stop42" />
      <stop
         stop-color="#F04923"
         offset="100%"
         id="stop44" />
    </linearGradient>
    <linearGradient
       x1="378.47534"
       y1="2.1939063e-06"
       x2="378.47534"
       y2="34.017548"
       id="linearGradient-6"
       gradientTransform="scale(0.30717922,3.2554285)"
       gradientUnits="userSpaceOnUse">
      <stop
         stop-color="#F6871F"
         offset="0%"
         id="stop47" />
      <stop
         stop-color="#F57E20"
         offset="23.93%"
         id="stop49" />
      <stop
         stop-color="#F36621"
         offset="62.62%"
         id="stop51" />
      <stop
         stop-color="#F04923"
         offset="100%"
         id="stop53" />
    </linearGradient>
    <linearGradient
       x1="114.54494"
       y1="3.7632431e-06"
       x2="114.54494"
       y2="41.336384"
       id="linearGradient-7"
       gradientTransform="scale(0.37326909,2.6790324)"
       gradientUnits="userSpaceOnUse">
      <stop
         stop-color="#F6871F"
         offset="0%"
         id="stop56" />
      <stop
         stop-color="#F57E20"
         offset="23.93%"
         id="stop58" />
      <stop
         stop-color="#F36621"
         offset="62.62%"
         id="stop60" />
      <stop
         stop-color="#F04923"
         offset="100%"
         id="stop62" />
    </linearGradient>
    <linearGradient
       x1="159.57512"
       y1="-1.1046505e-05"
       x2="159.57512"
       y2="36.7878"
       id="linearGradient-8"
       gradientTransform="scale(0.33219608,3.0102703)"
       gradientUnits="userSpaceOnUse">
      <stop
         stop-color="#F6871F"
         offset="0%"
         id="stop65" />
      <stop
         stop-color="#F57E20"
         offset="23.93%"
         id="stop67" />
      <stop
         stop-color="#F36621"
         offset="62.62%"
         id="stop69" />
      <stop
         stop-color="#F04923"
         offset="100%"
         id="stop71" />
    </linearGradient>
    <linearGradient
       x1="199.11124"
       y1="-1.9883473e-05"
       x2="199.11124"
       y2="35.143768"
       id="linearGradient-9"
       gradientTransform="scale(0.31735011,3.1510939)"
       gradientUnits="userSpaceOnUse">
      <stop
         stop-color="#F6871F"
         offset="0%"
         id="stop74" />
      <stop
         stop-color="#F57E20"
         offset="23.93%"
         id="stop76" />
      <stop
         stop-color="#F36621"
         offset="62.62%"
         id="stop78" />
      <stop
         stop-color="#F04923"
         offset="100%"
         id="stop80" />
    </linearGradient>
    <linearGradient
       x1="410.69623"
       y1="4.9556766e-06"
       x2="410.69623"
       y2="34.233147"
       id="linearGradient-10"
       gradientTransform="scale(0.30912743,3.2349119)"
       gradientUnits="userSpaceOnUse">
      <stop
         stop-color="#F6871F"
         offset="0%"
         id="stop83" />
      <stop
         stop-color="#F57E20"
         offset="23.93%"
         id="stop85" />
      <stop
         stop-color="#F36621"
         offset="62.62%"
         id="stop87" />
      <stop
         stop-color="#F04923"
         offset="100%"
         id="stop89" />
    </linearGradient>
    <linearGradient
       x1="6.8038616"
       y1="-6.7081078e-06"
       x2="6.8038616"
       y2="49.770447"
       id="linearGradient-11"
       gradientTransform="scale(0.44942937,2.2250437)"
       gradientUnits="userSpaceOnUse">
      <stop
         stop-color="#F6871F"
         offset="0%"
         id="stop92" />
      <stop
         stop-color="#F57E20"
         offset="23.93%"
         id="stop94" />
      <stop
         stop-color="#F36621"
         offset="62.62%"
         id="stop96" />
      <stop
         stop-color="#F04923"
         offset="100%"
         id="stop98" />
    </linearGradient>
    <linearGradient
       x1="31.218304"
       y1="-2.8517259e-05"
       x2="31.218304"
       y2="44.29649"
       id="linearGradient-12"
       gradientTransform="scale(0.40000001,2.4999999)"
       gradientUnits="userSpaceOnUse">
      <stop
         stop-color="#F6871F"
         offset="0%"
         id="stop101" />
      <stop
         stop-color="#F57E20"
         offset="23.93%"
         id="stop103" />
      <stop
         stop-color="#F36621"
         offset="62.62%"
         id="stop105" />
      <stop
         stop-color="#F04923"
         offset="100%"
         id="stop107" />
    </linearGradient>
    <linearGradient
       x1="60.771736"
       y1="-7.738312e-06"
       x2="60.771736"
       y2="40.99081"
       id="linearGradient-13"
       gradientTransform="scale(0.37014953,2.7016109)"
       gradientUnits="userSpaceOnUse">
      <stop
         stop-color="#F6871F"
         offset="0%"
         id="stop110" />
      <stop
         stop-color="#F57E20"
         offset="23.93%"
         id="stop112" />
      <stop
         stop-color="#F36621"
         offset="62.62%"
         id="stop114" />
      <stop
         stop-color="#F04923"
         offset="100%"
         id="stop116" />
    </linearGradient>
    <linearGradient
       x1="185.04546"
       y1="-1.7794547e-09"
       x2="185.04546"
       y2="116.03213"
       id="linearGradient-14"
       gradientTransform="scale(1.0492382,0.95307239)"
       gradientUnits="userSpaceOnUse">
      <stop
         stop-color="#F7941E"
         offset="0%"
         id="stop119" />
      <stop
         stop-color="#F68B1F"
         offset="0%"
         id="stop121" />
      <stop
         stop-color="#F6871F"
         offset="0%"
         id="stop123" />
      <stop
         stop-color="#F57E20"
         offset="24.02%"
         id="stop125" />
      <stop
         stop-color="#F36621"
         offset="63.06%"
         id="stop127" />
      <stop
         stop-color="#F04923"
         offset="100%"
         id="stop129" />
    </linearGradient>
  </defs>
  <g
     id="g164">
    <path
       d="m 109.97043,81.481712 -1.49417,-54.48716 c 0,-1.693385 -1.39455,-2.988326 -2.98832,-2.988326 -1.69339,0 -2.98833,1.294941 -2.98833,2.988326 l -1.39455,54.48716 1.39455,26.197668 c 0,1.69338 1.39455,2.98832 2.98833,2.98832 1.69338,0 2.98832,-1.29494 2.98832,-2.98832 z"
       fill="url(#linearGradient-1)"
       id="path134"
       style="fill:url(#linearGradient-1)" />
    <path
       d="M 99.212451,81.481712 97.519066,24.902724 c 0,-1.593775 -1.294941,-2.789105 -2.789105,-2.789105 -1.494163,0 -2.789105,1.19533 -2.789105,2.789105 l -1.494163,56.479377 1.494163,26.396889 c 0,1.59377 1.294942,2.7891 2.789105,2.7891 1.494164,0 2.789105,-1.19533 2.789105,-2.7891 z"
       fill="url(#linearGradient-2)"
       id="path136"
       style="fill:url(#linearGradient-2)" />
    <path
       d="m 76.003113,25.301167 c -0.09961,-1.294941 -1.09572,-2.390661 -2.390662,-2.390661 -1.294941,0 -2.29105,0.996109 -2.390661,2.390661 l -1.693385,56.080934 1.693385,26.795329 c 0,1.29494 1.09572,2.29105 2.390661,2.29105 1.294942,0 2.291051,-0.99611 2.390662,-2.39066 l 1.992218,-26.79533 z"
       fill="url(#linearGradient-3)"
       id="path138"
       style="fill:url(#linearGradient-3)" />
    <path
       d="m 86.761089,23.40856 c 0,-1.394552 -1.19533,-2.589883 -2.589883,-2.589883 -1.394552,0 -2.589883,1.09572 -2.589883,2.589883 l -1.593774,57.973541 1.593774,26.596109 c 0,1.39455 1.195331,2.58988 2.589883,2.58988 1.394553,0 2.490273,-1.09572 2.589883,-2.58988 l 1.792997,-26.596109 z"
       fill="url(#linearGradient-4)"
       id="path140"
       style="fill:url(#linearGradient-4)" />
    <path
       d="m 32.473152,109.87082 c 0.796887,0 1.394552,-0.59767 1.494163,-1.49417 l 2.589883,-26.994549 -2.589883,-27.89105 c -0.09961,-0.796888 -0.697276,-1.494164 -1.494163,-1.494164 -0.796887,0 -1.394553,0.597665 -1.494164,1.494164 l -2.29105,27.89105 2.29105,26.994549 c 0,0.8965 0.697277,1.49417 1.494164,1.49417 z"
       fill="url(#linearGradient-5)"
       id="path142"
       style="fill:url(#linearGradient-5)" />
    <path
       d="M 120.82802,81.481712 119.43346,16.73463 c 0,-1.095719 -0.59766,-2.091828 -1.49416,-2.689494 -0.49806,-0.298832 -1.09572,-0.597665 -1.793,-0.597665 -0.59766,0 -1.19533,0.199222 -1.79299,0.498054 -0.8965,0.597666 -1.49417,1.593775 -1.49417,2.689494 v 0.597666 l -1.19533,64.149416 1.19533,25.998439 v 0.0996 c 0,0.69727 0.29884,1.39455 0.79689,1.8926 0.59767,0.69728 1.49416,1.19533 2.49027,1.19533 0.8965,0 1.69339,-0.39844 2.29105,-0.8965 0.59767,-0.59766 0.99611,-1.39455 0.99611,-2.29105 l 0.0996,-2.58988 z"
       fill="url(#linearGradient-6)"
       id="path144"
       style="fill:url(#linearGradient-6)" />
    <path
       d="m 44.326848,55.483268 c -0.09961,-0.996109 -0.796887,-1.693385 -1.693385,-1.693385 -0.896498,0 -1.693385,0.697276 -1.693385,1.693385 l -2.091829,25.898833 2.091829,27.193769 c 0.09961,0.99611 0.796887,1.69339 1.693385,1.69339 0.896498,0 1.693385,-0.69728 1.693385,-1.69339 L 46.71751,81.382101 Z"
       fill="url(#linearGradient-7)"
       id="path146"
       style="fill:url(#linearGradient-7)" />
    <path
       d="m 52.893385,37.354086 c -0.996109,0 -1.892607,0.796887 -1.892607,1.892607 l -1.992218,42.135408 1.992218,27.193769 c 0.09961,1.09572 0.896498,1.89261 1.892607,1.89261 0.996109,0 1.892607,-0.79689 1.892607,-1.89261 L 57.077043,81.382101 54.785992,39.246693 c 0,-0.996109 -0.896498,-1.892607 -1.892607,-1.892607 z"
       fill="url(#linearGradient-8)"
       id="path148"
       style="fill:url(#linearGradient-8)" />
    <path
       d="M 65.245136,108.57587 67.336965,81.481712 65.245136,29.684047 c -0.09961,-1.195331 -0.996109,-2.091829 -2.19144,-2.091829 -1.19533,0 -2.091828,0.896498 -2.191439,2.091829 l -1.892607,51.797665 1.892607,27.094158 c 0,1.19534 0.996109,2.09183 2.191439,2.09183 1.195331,0.0996 2.091829,-0.89649 2.19144,-2.09183 z"
       fill="url(#linearGradient-9)"
       id="path150"
       style="fill:url(#linearGradient-9)" />
    <path
       d="m 128.69728,7.8692607 c -0.49806,-0.2988327 -1.09572,-0.4980545 -1.793,-0.4980545 -0.79689,0 -1.59377,0.2988327 -2.19144,0.7968872 -0.79689,0.5976654 -1.29494,1.5937743 -1.29494,2.6894936 v 0.398444 l -1.39455,70.325292 0.69727,12.949416 0.69728,12.650581 c 0,1.89261 1.59377,3.38677 3.48638,3.38677 1.89261,0 3.38677,-1.59377 3.48638,-3.48638 l 1.49416,-25.599998 -1.49416,-70.624125 c -0.0996,-1.2949411 -0.69728,-2.3906609 -1.69338,-2.9883263 z"
       fill="url(#linearGradient-10)"
       id="path152"
       style="fill:url(#linearGradient-10)" />
    <path
       d="m 2.888716,96.323735 c 0.4980544,0 0.896498,-0.398443 0.9961089,-0.996109 L 6.0762646,81.382101 3.8848249,67.237354 C 3.785214,66.639689 3.3867704,66.241245 2.888716,66.241245 c -0.4980545,0 -0.996109,0.398444 -0.996109,0.996109 L 0,81.382101 1.892607,95.327626 c 0,0.597666 0.4980545,0.996109 0.996109,0.996109 z"
       fill="url(#linearGradient-11)"
       id="path154"
       style="fill:url(#linearGradient-11)" />
    <path
       d="m 12.351751,104.79066 c 0.498054,0 0.996109,-0.39844 1.09572,-0.99611 L 16.336187,81.382101 13.447471,58.471595 c -0.09961,-0.597665 -0.498055,-0.996109 -1.09572,-0.996109 -0.498054,0 -0.996109,0.398444 -1.09572,0.996109 L 8.7657588,81.382101 11.256031,103.79455 c 0.09961,0.59767 0.498055,0.99611 1.09572,0.99611 z"
       fill="url(#linearGradient-12)"
       id="path156"
       style="fill:url(#linearGradient-12)" />
    <path
       d="m 22.31284,108.87471 c 0.697277,0 1.195331,-0.49806 1.294942,-1.29494 L 26.297276,81.382101 23.607782,54.188327 c -0.09961,-0.697276 -0.597665,-1.294942 -1.294942,-1.294942 -0.697276,0 -1.19533,0.498055 -1.294941,1.294942 l -2.390662,27.193774 2.390662,26.197669 c 0.09961,0.69727 0.597665,1.29494 1.294941,1.29494 z"
       fill="url(#linearGradient-13)"
       id="path158"
       style="fill:url(#linearGradient-13)" />
    <path
       d="m 223.62646,48.012451 c -4.28327,0 -8.36732,0.896498 -12.15253,2.390662 C 208.98366,22.21323 185.27626,0 156.3891,0 c -7.07237,0 -13.94552,1.3945525 -20.02179,3.785214 -2.39066,0.8964981 -2.98832,1.892607 -2.98832,3.6856031 V 106.9821 c 0,1.89261 1.49416,3.38677 3.38677,3.58599 h 86.96031 c 17.3323,0 31.37743,-13.845911 31.37743,-31.178207 -0.0996,-17.332296 -14.14475,-31.377432 -31.47704,-31.377432 z"
       fill="url(#linearGradient-14)"
       id="path160"
       style="fill:url(#linearGradient-14)" />
  </g>
</svg>
