<svg id="svg" version="1.1" xmlns="http://www.w3.org/2000/svg" xmlns:xlink="http://www.w3.org/1999/xlink" width="400" height="342.85714285714283" viewBox="0, 0, 400,342.85714285714283"><g id="svgg"><path id="path0" d="M41.273 32.972 C 32.420 33.571,27.492 35.172,23.575 38.721 C 22.355 39.827,20.218 41.578,18.826 42.613 C 15.523 45.070,15.068 45.624,8.918 54.690 C 6.066 58.895,5.186 63.498,4.908 75.669 C 4.510 93.085,5.663 99.306,10.386 105.231 C 11.627 106.787,13.148 108.948,13.767 110.033 C 14.386 111.119,15.665 112.702,16.609 113.551 C 21.846 118.259,24.985 121.667,25.357 123.050 C 26.088 125.765,25.696 243.485,24.952 244.848 C 24.618 245.457,22.612 247.339,20.492 249.028 C 18.346 250.739,16.133 252.832,15.498 253.752 C 5.456 268.300,4.797 270.406,4.806 287.926 C 4.815 303.330,5.815 308.015,10.511 314.642 C 11.805 316.469,13.401 318.939,14.056 320.131 C 16.035 323.729,20.416 327.801,24.479 329.821 C 26.339 330.745,28.886 332.303,30.140 333.283 C 35.593 337.545,40.638 338.509,55.575 338.143 C 67.191 337.858,70.007 337.140,75.786 332.991 C 77.498 331.762,79.786 330.248,80.873 329.626 C 81.959 329.005,83.715 327.618,84.776 326.544 C 85.837 325.470,87.226 324.307,87.864 323.959 C 88.981 323.350,92.784 323.324,193.997 323.227 C 313.019 323.112,301.179 322.806,305.660 326.120 C 307.075 327.166,309.314 328.639,310.635 329.393 C 311.955 330.146,314.348 331.654,315.952 332.742 C 322.832 337.413,328.553 338.542,343.366 338.153 C 354.635 337.857,358.592 336.932,364.164 333.292 C 365.855 332.188,368.487 330.545,370.012 329.642 C 377.675 325.104,384.879 316.048,387.108 308.152 C 387.600 306.408,388.765 303.321,389.696 301.290 C 393.764 292.423,393.881 284.497,390.074 275.709 C 389.160 273.597,387.859 270.087,387.183 267.909 C 385.321 261.904,383.092 258.486,376.462 251.468 C 371.839 246.576,372.171 252.174,372.287 180.961 C 372.400 112.474,371.916 120.081,376.459 115.314 C 382.921 108.534,385.304 105.001,386.959 99.748 C 387.569 97.811,388.810 94.528,389.717 92.453 C 392.432 86.241,392.624 85.343,392.624 78.902 C 392.624 72.613,392.529 72.170,389.879 66.209 C 389.082 64.417,387.942 61.407,387.346 59.520 C 385.519 53.732,380.255 46.721,374.668 42.632 C 373.223 41.575,371.265 39.987,370.316 39.104 C 364.770 33.940,355.217 32.148,336.192 32.704 C 321.137 33.144,315.341 34.507,310.334 38.785 C 307.365 41.321,305.598 42.457,303.005 43.496 L 300.686 44.425 195.883 44.425 C 94.780 44.425,91.014 44.403,89.194 43.790 C 86.568 42.906,83.290 40.924,80.273 38.397 C 74.059 33.193,62.259 31.551,41.273 32.972 M278.708 96.046 C 280.077 96.567,279.767 97.427,277.471 99.479 C 272.959 103.514,262.135 113.919,251.553 124.393 C 245.474 130.411,238.759 136.974,236.631 138.977 C 234.503 140.980,231.218 144.089,229.331 145.885 C 224.255 150.717,222.334 151.402,218.017 149.916 C 210.200 147.227,187.434 147.135,178.583 149.756 C 174.266 151.035,173.987 150.901,166.387 143.911 C 163.925 141.647,159.836 137.942,157.300 135.678 C 154.764 133.413,150.663 129.708,148.185 127.444 C 145.708 125.180,142.575 122.429,141.223 121.331 C 139.871 120.232,137.993 118.598,137.050 117.698 C 136.106 116.798,134.171 115.128,132.750 113.987 C 131.328 112.845,129.938 111.637,129.662 111.301 C 129.386 110.965,127.693 109.533,125.901 108.119 C 124.108 106.705,121.407 104.370,119.897 102.930 C 118.388 101.490,116.419 99.721,115.523 98.999 C 113.801 97.613,113.341 96.250,114.494 95.948 C 115.761 95.617,277.834 95.714,278.708 96.046 M79.991 138.336 C 82.274 140.459,86.501 144.357,89.384 146.998 C 92.267 149.640,97.353 154.348,100.686 157.461 C 111.695 167.744,124.963 179.763,130.511 184.478 C 132.009 185.751,134.170 187.651,135.314 188.700 C 136.457 189.749,139.042 191.949,141.059 193.590 C 146.917 198.356,147.617 199.484,148.216 205.129 C 149.017 212.667,149.969 215.617,152.804 219.345 C 153.967 220.875,155.517 223.130,156.249 224.357 C 158.346 227.874,166.161 235.386,169.452 237.047 C 170.876 237.766,173.541 239.360,175.374 240.589 C 181.810 244.904,184.402 245.455,198.285 245.455 C 211.785 245.455,214.618 244.890,220.349 241.057 C 222.064 239.909,224.683 238.333,226.168 237.554 C 237.300 231.715,244.628 220.714,247.862 204.984 C 249.523 196.909,249.773 196.511,257.452 189.708 C 259.688 187.727,262.689 185.011,264.121 183.671 C 265.552 182.332,267.573 180.576,268.611 179.770 C 270.826 178.047,276.852 172.777,280.783 169.125 C 283.725 166.392,291.762 159.158,294.340 156.923 C 295.189 156.187,298.682 152.958,302.103 149.748 C 319.669 133.265,318.584 134.056,319.129 137.324 C 319.280 138.230,319.361 161.695,319.308 189.468 C 319.196 247.555,319.647 241.244,315.443 243.565 C 311.241 245.884,303.488 251.884,301.361 254.463 C 298.149 258.357,294.397 263.939,293.612 265.992 C 293.198 267.073,292.412 268.331,291.859 268.796 L 290.856 269.640 196.018 269.640 C 117.140 269.640,100.992 269.562,100.069 269.176 C 98.364 268.464,96.807 266.421,94.969 262.487 C 91.764 255.623,84.765 248.211,77.144 243.610 C 73.773 241.576,74.099 247.544,74.099 187.923 C 74.099 133.718,74.081 134.477,75.382 134.477 C 75.634 134.477,77.709 136.214,79.991 138.336 " stroke="none" fill="#04a4e4" fill-rule="evenodd"></path><path id="path1" d="" stroke="none" fill="#08a4e4" fill-rule="evenodd"></path><path id="path2" d="" stroke="none" fill="#08a4e4" fill-rule="evenodd"></path><path id="path3" d="" stroke="none" fill="#08a4e4" fill-rule="evenodd"></path><path id="path4" d="" stroke="none" fill="#08a4e4" fill-rule="evenodd"></path></g></svg>